<svg id="Layer_1" data-name="Layer 1" xmlns="http://www.w3.org/2000/svg" viewBox="0 0 716.33 217.86"><defs><style>.cls-1{fill:#fff}</style></defs><path class="cls-1" d="M488.28 279.27h55.82v8.1h-47.05v27.74h42.05v8h-42.05v33.84h-8.77ZM585.37 326.21l-32.29-46.94h10.65l26.19 38.84 26.41-38.84h10.21l-32.29 46.83v30.84h-8.88ZM640.52 279.27h56.14v8h-47.38v26.52h42.39v8h-42.39V349h47.94v8h-56.7ZM714.86 279.27h33.4c9.54 0 17.2 2.88 22.08 7.77a21.46 21.46 0 0 1 6 15.31v.22c0 12.87-8.87 20.42-21.08 22.64l23.86 31.73h-10.77l-22.53-30.18h-22.19v30.18h-8.77Zm32.62 39.61c11.66 0 20-6 20-16v-.22c0-9.54-7.33-15.31-19.87-15.31h-24v31.51ZM157.1 279.27h8.9l28.3 42.39 28.29-42.39h8.88v77.67h-8.76V294l-28.3 41.61h-.44l-28.3-41.5v62.8h-8.57ZM253.41 279.27h29.07c17.53 0 29.07 9.32 29.07 24.63v.22c0 16.76-14 25.42-30.51 25.42h-18.86v27.4h-8.77Zm28 42.28c12.87 0 21.31-6.88 21.31-17.09v-.22c0-11.1-8.32-16.87-20.86-16.87h-19.68v34.18ZM327.53 279.27h8.77v69.57H380v8.1h-52.47ZM137.35 357.5h-9.77L100 290.59 72.21 357.5h-9.43l33.4-78.23H104Z" transform="translate(-62.78 -216.02)"/><path class="cls-1" d="M350.3 108.93v58.89h5.06V50.04h-5.06v58.89zM341.93 82.03v58.89h5.06V81.75h-5.06v.28zM375.4 82.03v58.89h5.07V81.75h-5.07v.28zM366.66 108.93v58.89h5.06V50.04h-5.06v58.89zM358.75 115.96v101.9h5.06V0h-5.06v115.96z"/></svg>