<svg width="700" height="221" fill="none" xmlns="http://www.w3.org/2000/svg"><g clip-path="url(#a)" fill="#fff"><path d="M427.186 74.23h51.572v7.475h-43.46v25.613h38.883v7.417h-38.883v31.291h-8.112V74.23ZM519.553 117.575 489.71 74.172h9.851l24.222 35.87 24.396-35.87h9.445l-29.843 43.287v28.51h-8.228v-28.394ZM571.879 74.23h51.862v7.417h-43.807v24.512h39.172v7.417h-39.172v25.149h44.329v7.301h-52.384V74.23ZM640.546 74.23h30.886c8.808 0 15.877 2.665 20.397 7.185 3.651 3.767 5.621 8.866 5.563 14.14v.231c0 11.879-8.171 18.891-19.47 20.919l22.077 29.321h-9.966l-20.803-27.872h-20.514v27.872h-8.112V74.23h-.058Zm30.19 36.565c10.778 0 18.485-5.563 18.485-14.777v-.232c0-8.808-6.78-14.139-18.369-14.139h-22.194v29.148h22.078ZM87.152 74.23h8.229l26.134 39.172 26.134-39.172h8.229v71.796h-8.113V87.79l-26.134 38.476h-.406l-26.134-38.36v58.062h-7.939V74.23ZM178.824 74.23h26.888c16.225 0 26.887 8.634 26.887 22.773v.232c0 15.472-12.922 23.468-28.22 23.468h-17.442v25.323h-8.113V74.23Zm25.845 39.056c11.879 0 19.702-6.374 19.702-15.82v-.231c0-10.257-7.707-15.588-19.297-15.588h-18.195v31.581h17.79v.058ZM249.984 74.23h8.112v64.321h40.331v7.475h-48.501V74.23h.058ZM68.899 146.49h-9.04L34.363 84.66l-25.67 61.83H0l30.886-72.318h7.243L68.9 146.49ZM360.199 0c-2.434 0-4.404 1.738-4.404 3.825v184.619c0 2.086 1.97 3.824 4.404 3.824s4.404-1.738 4.404-3.824V3.824c0-2.086-1.97-3.824-4.404-3.824ZM379.148 41.143c-2.434 0-4.404 1.738-4.404 3.824v79.272c0 2.086 1.97 3.824 4.404 3.824s4.404-1.738 4.404-3.824V44.967c0-2.086-1.97-3.824-4.404-3.824ZM379.148 131.25c-2.434 0-4.404 1.738-4.404 3.825v24.337c0 2.086 1.97 3.825 4.404 3.825s4.404-1.739 4.404-3.825v-24.337c0-2.145-1.97-3.825-4.404-3.825ZM341.251 63.8c-2.434 0-4.404 1.738-4.404 3.824v13.27c0 2.144 1.97 3.825 4.404 3.825 2.433 0 4.404-1.739 4.404-3.825v-13.27c0-2.086-1.971-3.824-4.404-3.824ZM341.251 89.818c-2.434 0-4.404 1.738-4.404 3.824V216.2c0 2.086 1.97 3.825 4.404 3.825 2.433 0 4.404-1.739 4.404-3.825V93.642c0-2.086-1.971-3.824-4.404-3.824ZM322.244 87.036c-2.434 0-4.404 1.739-4.404 3.825v52.616c0 2.086 1.97 3.824 4.404 3.824s4.404-1.738 4.404-3.824V90.861c0-2.144-1.97-3.825-4.404-3.825ZM398.154 77.475c-2.434 0-4.404 1.739-4.404 3.825v71.68c0 2.086 1.97 3.825 4.404 3.825s4.404-1.739 4.404-3.825V81.3c0-2.087-1.97-3.825-4.404-3.825Z"/></g><defs><clipPath id="a"><path fill="#fff" d="M0 0h700v220.199H0z"/></clipPath></defs></svg>