<svg xmlns="http://www.w3.org/2000/svg" viewBox="0 0 409 471">
  <g fill="none">
    <path fill="#A22E19" d="M138.03783 377.10518s-15.8052 5.89417-2.69172 27.69016c9.4003 15.55674 45.4831 29.96778 67.43094 39.13341 8.94478 3.7408 13.9417 6.90184 17.3236 4.45859 3.3819-2.44325-1.38036-8.46165-9.31747-17.6825-19.8773-23.12115-62.07512-59.68708-72.74535-53.59966Z"/>
    <path fill="#FFF" d="M207.05618 446.20636s8.44785 4.5138 9.7592 7.1089c1.39531-.14812 2.65116-.91277 3.42331-2.08436a50.6042 50.6042 0 0 0 4.76227-8.68251 29.45705 29.45705 0 0 1-10.29754-7.42638l-7.64723 11.08435Z"/>
    <path fill="#004696" d="M225.08378 455.59286a115.78514 115.78514 0 0 1-10.39416 13.9417 6.12888 6.12888 0 0 0 .96625.88344c1.8773 1.38037 15.91564-17.73772 16.46778-22.27913.05331-1.31761-.5988-2.564-1.71165-3.27147a76.49986 76.49986 0 0 1-5.32822 10.72546Z"/>
    <path fill="#0070EE" d="M225.08378 455.59286a76.49986 76.49986 0 0 0 5.32822-10.72546 11.13957 11.13957 0 0 0-4.26534-1.94631 10.11807 10.11807 0 0 1-1.1457-.3727 50.60424 50.60424 0 0 1-4.72086 8.6825c-.77215 1.1716-2.028 1.93625-3.4233 2.08436l.08281.17945c.44172 1.1181-.06901 3.06441-.7316 5.78374-.66257 4.1411-4.1411 7.26073-1.5046 10.25613a115.78513 115.78513 0 0 0 10.38037-13.94171Z"/>
    <path fill="#004791" d="M215.07612 325.3138c-1.48395 8.35101-5.31415 16.10716-11.04294 22.36195-9.7868 10.96012-23.82514 23.01072-28.98771 29.65029-3.97546 5.06595-1.21472 8.72392-11.51226 17.13036-5.96319 4.8727-28.11808 4.73465-35.15795-1.8635-4.58282-4.29294 17.57207-39.8098 25.71624-50.3834 8.14416-10.57362 19.49078-31.37575 25.82667-29.76072 6.33588 1.61503 28.73924 1.29755 35.15795 12.86502Z"/>
    <path fill="#E66D57" d="M203.93655 407.2386s.27608 16.46778 24.15643 7.71625c13.5552-4.96932 38.20856-35.14415 43.42635-44.97237 3.79601-7.12269 7.8819-13.1963 6.30828-16.86808-1.80828-4.23773-9.19324 1.38037-21.023 7.48159-25.77145 13.27913-56.24996 35.40642-52.86806 46.6426Z"/>
    <path fill="#A22E19" d="M271.51933 369.98248c2.6503-4.98312 5.52147-9.4417 6.3497-12.93404-6.97086 7.63344-14.88037 16.05367-18.30368 18.73159-6.75 5.273-24.8466 26.98618-36.15181 31.2515-6.22546 2.33283-13.98312.67639-19.71165-1.29754a6.00457 6.00457 0 0 0 .23467 1.5046s.27607 16.46779 24.15642 7.71626c13.5552-4.96932 38.20856-35.14415 43.42635-44.97237Z"/>
    <path fill="#0072E6" d="M238.10064 310.73713c3.12553 7.89138 3.93947 16.5096 2.34663 24.8466-2.53988 14.48006-8.13037 32.10735-9.06902 40.49998-.71779 6.4049.88344 16.2055-3.64417 25.03986-3.51993 6.90183-18.53833 14.42484-27.99384 12.51993-6.14264-1.24233-6.0322-43.09506-4.66564-56.3742 1.36656-13.27913 0-36.93862 6.26686-38.89874 6.26687-1.96013 25.21931-14.09355 36.75918-7.63343Z"/>
    <path fill="#A22E19" d="M181.5194 242.5884c-2.76074.63497-34.24692-6.05981-40.23771-13.96932-5.9908-7.9095 35.65488-33.91562 34.06746-43.28831-1.58742-9.3727-27.60734 5.19018-40.74844 16.5644-13.1411 11.37423-21.4095 26.77913-10.36656 41.25918 10.17331 13.25152 34.9371 22.32054 44.17175 26.37882 10.75306 4.69324 18.59355-28.22851 13.1135-26.94477Z"/>
    <path fill="#004791" d="M231.37825 376.0699c.93865-8.39263 6.52914-26.01992 9.06902-40.49997 1.59284-8.33701.7789-16.95522-2.34663-24.8466-6.08742-3.40951-14.23158-1.64264-21.49231 1.06287.26227 6.98466.4141 13.5.26227 17.32361-.44172 11.44325-3.3543 71.17173-.86964 75.69934a9.35889 9.35889 0 0 0 4.04448 3.63036 21.25766 21.25766 0 0 0 7.71625-7.30214c4.5-8.86196 2.89877-18.66256 3.61657-25.06747Z"/>
    <path fill="#C9E6FF" d="M181.5194 242.5884c-1.8497.44171-17.08895-2.53988-28.50459-6.98466-2.92638 3.87883-9.66257 16.49539-10.06288 25.81287 10.33895 5.52147 21.51993 8.01993 26.88956 10.1319 13.23772 5.21778 17.15796-30.24385 11.6779-28.96011Z"/>
    <path fill="#004696" d="M171.3737 253.83839s-7.26074 9.26226-9.3451 15.18404c3.16105.99386 5.86657 1.80828 7.81289 2.56748 1.53744.66329 3.27552.68812 4.83128.06902l-3.29908-17.82054Z"/>
    <path fill="#FFF" d="M242.22794 312.40737c-14.54907-25.5644-6.15644-45.34506-15.18404-62.36499-5.23159-9.82821-17.46164-9.89723-26.43403-11.15337-7.37116-1.02147-24.8466.88344-28.2285 8.37883-5.2454 11.73312 2.24999 53.11653.8006 66.5199 7.30215 3.92024 24.10121 16.9509 69.04597-1.38037Z"/>
    <path fill="#C9E6FF" d="M227.0025 250.04238c-3.51995-6.61196-10.21473-8.80674-16.95092-9.92484-1.9187 5.82515-2.85736 24.58434 2.2776 42.4877 4.59663 16.03987 7.38497 28.98771 10.4908 36.33127a152.8206 152.8206 0 0 0 19.40796-6.52914c-14.54907-25.5644-6.18404-45.34506-15.22545-62.36499Z"/>
    <path fill="#004696" d="M232.74482 280.1896c-.66258-7.19171-.84203-13.80367-2.19479-20.12575l-9.37269-5.52147s4.44478 20.88495 11.56748 25.64722Z"/>
    <path fill="#E66D57" d="M223.16507 248.38594c3.3819-5.07975 33.22544-1.71166 41.7561-6.7776 8.53068-5.06595-20.2914-44.83433-15.29446-52.92328 4.99693-8.08895 23.64569 15.18404 31.49998 30.72697 7.85429 15.54294 9.8144 32.82513-5.92178 42.0598-14.41103 8.44784-35.57206 11.16716-43.37113 6.61195-7.79908-4.55521-11.88497-14.89416-8.66871-19.69784Z"/>
    <path fill="#E66D57" d="M250.28929 192.13598s-3.89264-.88344-4.70706-3.56135c-.81441-2.67791-3.53374-4.29294-3.23006-5.39724.30368-1.10429 2.85736 1.54602 3.60276 1.68405.7454.13804 1.1457-3.45091.3451-6.61196-.80062-3.16104 1.84969-.28987 1.84969-.28987s-.06902-2.16718 1.546-1.20092a8.01995 8.01995 0 0 1 2.5813 3.0368s.51073-1.10429 1.1733 1.02148c.66258 2.12576 1.61504 10.73925-3.16103 11.319Z"/>
    <path fill="#A22E19" d="M255.36904 187.82923c-.90823.85919-1.40982 2.063-1.38037 3.31288.31748 3.727 4.96932 7.39877 7.28834 11.13957a87.61183 87.61183 0 0 0 9.92484 14.56287c6.50153 7.93711 6.28067 18.85582 6.83282 27.8006.55214 8.94477-4.30675 6.50152-14.76993 11.23618-10.46319 4.73466-15.44631 2.42945-29.12575 1.54602a103.94166 103.94166 0 0 1-11.52607-1.1319c1.50854 4.92327 4.77596 9.11932 9.17944 11.78833 7.79908 4.55521 28.98772 1.83589 43.37114-6.61196 15.73619-9.23466 13.80367-26.53066 5.92178-42.05979-5.88037-11.71931-17.97238-27.86961-25.71624-31.5828Z"/>
    <path fill="#0070EE" d="M179.2605 220.2787s-3.84247-3.99794-1.8435-7.97367c1.99897-3.97572 8.37346-8.50672 12.86004-5.61932 2.4881 1.2145 4.02216 3.7858 3.9091 6.55218 1.9916.88197 3.4264 2.68169 3.84246 4.81973.64411 3.59815-1.08833 11.86056-1.08833 11.86056s-15.90291-3.59815-17.67977-9.63948Z"/>
    <path fill="#0070EE" d="M194.18614 213.23789c.10667-1.98331-.71399-3.90366-2.22108-5.19732.66632 1.95454 1.0217 4.15341-.15548 5.24174-2.39876 2.22108-4.28668 4.06457-4.30889 6.92976 0 1.2216-2.57645 2.50982-5.50827 3.57593 5.04185 3.9091 14.90343 6.13018 14.90343 6.13018s1.73244-8.26241 1.08833-11.86056c-.4069-2.12862-1.82357-3.9264-3.79804-4.81973Z"/>
    <path fill="#E66D57" d="m194.36382 224.3877 7.79598 16.99124c.26653 2.4876-12.3714 10.75001-16.61365 8.01809-1.2438-.7996-1.15496-3.22057-.35538-5.90807l4.97522-14.68132 4.19783-4.41994Z"/>
    <path fill="#A22E19" d="m189.21092 231.76167 6.35229-1.8657c-.04015 2.99499-1.2057 5.86524-3.26499 8.0403a11.41634 11.41634 0 0 1-6.33007 3.42046l3.24277-9.59506Z"/>
    <path fill="#E66D57" d="m190.25483 218.92385 4.81974 9.19526c1.35331 3.15392-.04323 6.81249-3.15393 8.2624a17.3022 17.3022 0 0 1-7.59609 1.59918c-2.84298.13326-4.70868-2.22108-5.33058-5.95249a35.0486 35.0486 0 0 1 .26653-11.7495c1.06611-5.5527 7.39618-7.10745 10.99433-1.35485Z"/>
    <path fill="#A22E19" d="M182.85864 234.4936c2.99846-1.13275 6.1746 3.17614 10.94991-2.22108a8.32904 8.32904 0 0 0 1.17718-4.44215v.1999c1.35331 3.15392-.04324 6.81248-3.15393 8.2624a17.3022 17.3022 0 0 1-7.59609 1.59918c-1.65635.072-3.21497-.78438-4.04236-2.22108a16.05839 16.05839 0 0 0 2.6653-1.17717Z"/>
    <path fill="#E66D57" d="M190.65462 222.89957a9.37295 9.37295 0 0 0-.15547-1.91012c-.1999-1.19938-.2221-3.04288 1.73244-2.4654 2.79856.84401 3.84246 6.66323.93285 7.68493-2.15444.73295-2.57645-1.68802-2.50982-3.3094Z"/>
    <path fill="#FFF" d="M185.61278 226.94193a17.1023 17.1023 0 0 1-5.50827 1.11054s.26653 2.22108 1.6658 2.64309c1.39928.422 3.5093-1.0217 3.84247-3.75363Z"/>
    <path fill="#B01F05" d="m258.12977 248.84146-2.08435 19.8911c2.2362-.48314 4.5-1.0905 6.73619-1.79448.66257-.22086.95245-5.977.45552-8.14417a26.91715 26.91715 0 0 0-5.10736-9.95245Z"/>
    <path fill="#FFF" d="M254.80309 244.14821c-12.13343 1.38037-23.46625-.23466-34.08127-.23466-5.76994 0 1.1595 20.98158 9.44171 24.57054 10.02197 4.04638 21.08889 4.7199 31.52759 1.9187 1.8773-12.35428-3.3543-22.69323-6.88803-26.25458Z"/>
    <path fill="#C2E7FF" d="M220.37673 255.3844c2.08435 5.52147 5.76993 11.36042 9.7868 13.09969 10.02197 4.04638 21.08889 4.7199 31.52759 1.9187a35.26839 35.26839 0 0 0-.53834-13.26532 48.4647 48.4647 0 0 1-16.34355 3.06441c-9.80061.20706-19.64263-2.9954-24.4325-4.81748Z"/>
    <path fill="#FFF" d="M274.7908 364.33678s6.32208-7.1779 9.15184-7.86809c.17647-1.39431-.28498-2.79389-1.25614-3.80981a50.0935 50.0935 0 0 0-7.35736-6.58435c-2.13956 3.23005-7.02606 7.81287-8.51686 9.33128l7.97852 8.93097Z"/>
    <path fill="#004696" d="M288.04233 348.9595a115.3573 115.3573 0 0 1 11.19477 13.32054 6.61193 6.61193 0 0 0 1.0767-.7454c1.79447-1.5184-13.62423-19.546-17.94478-21.13342-1.2757-.34766-2.64016.00395-3.58896.92484a75.1334 75.1334 0 0 1 9.26227 7.63343Z"/>
    <path fill="#0070EE" d="M288.04233 348.9595a75.13343 75.13343 0 0 0-9.23466-7.63344 11.319 11.319 0 0 0-2.85736 3.71319c-.16564.31748-.3865.67638-.62117 1.03528a50.0935 50.0935 0 0 1 7.35736 6.58435c.97116 1.01592 1.43261 2.4155 1.25614 3.80981h.19325c1.18711-.16564 2.96779.7592 5.52147 2.02914 3.85122 1.60122 6.10122 5.75613 9.66257 3.82362a115.35729 115.35729 0 0 0-11.2776-13.36196Z"/>
    <path fill="#CFCECE" d="M172.547 199.21726c-.27307-.03164-.48638-.25072-.51073-.52454-.67638-7.77147 21.53373-138.39561 22.47238-143.9585.05336-.31637.3531-.52958.66948-.47622.31637.05337.52959.3531.47622.66948-.23466 1.38037-23.13495 136.04899-22.47238 143.66862.02396.3155-.20948.59193-.52454.62116h-.11042Z"/>
    <path fill="#FFC8C1" d="M192.58994 71.75416s-36.4693-22.69324-14.71472-58.84506c16.1227-26.79292 54.26224-6.7776 45.27605 27.16563-8.9862 33.94323-30.56133 31.67943-30.56133 31.67943Z"/>
    <path fill="#FBC162" d="M191.01632 67.93054s-6.90184 5.88036-6.0184 8.2822c.88343 2.40184 2.22239.89724 4.05828 2.52607 1.83589 1.62884 3.47852 2.69173 4.83128 1.79448 1.06042-.91663 2.461-1.3383 3.85123-1.1595 1.46319.27607.33129-8.72393-1.65644-9.93865a13.8865 13.8865 0 0 0-5.06595-1.5046Z"/>
    <path fill="#FF9684" d="M213.77857 6.35236c-3.1464 2.48293-4.7644 6.43107-4.26533 10.40797 1.24233 8.13036 4.94171 11.94017.80061 16.09508-4.1411 4.1549-8.36502 5.273-11.47085 11.99539-2.76073 5.96319-21.023 4.26533-27.67636-5.34202 2.2776 20.3052 21.4233 32.23157 21.4233 32.23157s21.57514 2.25 30.56133-31.67942c3.92024-14.76993-1.1181-26.91716-9.3727-33.70857Z"/>
    <path fill="#FFF" d="M198.33226 3.42598s-9.4141-2.56748-18.69017 11.3052c-9.27606 13.8727-5.32822 24.48772-1.1457 24.55684 4.18251.06892 34.27452-35.3237 19.83587-35.86204Z" opacity=".5"/>
    <path fill="#FFCAC3" d="M216.27704 106.84309s-24.26686-35.43403 10.1733-59.7837c25.5368-18.0414 52.45396 15.61195 30.54753 43.06745-21.90643 27.4555-40.72083 16.71625-40.72083 16.71625Z"/>
    <path fill="#FBC162" d="M216.37366 102.7158s-8.75153 2.58128-8.83435 5.14876c-.08282 2.56748 1.67025 1.72546 2.76074 3.94785 1.09049 2.2224 2.08435 3.86503 3.68558 3.58896 1.34236-.41542 2.79808-.23973 4.00306.48313 1.22853.84202 3.80982-7.8543 2.48466-9.7592a13.80367 13.80367 0 0 0-4.09969-3.4095Z"/>
    <path fill="#FF8978" d="M261.9672 55.49343c-3.87556 1.01325-6.9418 3.97484-8.08896 7.81288-2.13957 7.95091-.27607 12.93404-5.74233 15.0598-5.46625 2.12577-9.773 1.4632-15.32207 6.3773-4.92791 4.34816-20.96778-4.5414-23.19017-16.01226-6.08742 19.5184 6.65337 38.11194 6.65337 38.11194s18.85581 10.73926 40.72083-16.71625c9.52453-11.99539 9.8006-25.09507 4.96932-34.6334Z"/>
    <path fill="#FFF" d="M249.00554 46.60387s-7.57821-6.14264-21.67176 2.76073c-14.09355 8.90337-14.71471 20.2914-10.9049 22.08588 3.80981 1.79447 45.57972-18.55214 32.57666-24.84661Z" opacity=".5"/>
    <path fill="#A6E5FF" d="M154.42278 89.36764s-41.23156-11.89876-30.18863-52.6472c8.2822-30.17483 50.3696-21.31287 50.97696 13.80367.60737 35.11654-20.78833 38.84353-20.78833 38.84353Z"/>
    <path fill="#FBC162" d="M151.8415 86.12378s-5.10736 7.5506-3.54755 9.59355c1.55982 2.04294 2.38804.26227 4.59663 1.31135 2.20858 1.04908 4.1411 1.65644 5.13496.42791.77273-1.17189 2.00738-1.95985 3.3957-2.16717 1.477-.13804-2.07055-8.48926-4.30674-9.12423a13.95551 13.95551 0 0 0-5.273-.04141Z"/>
    <path fill="#46BBFF" d="M157.00407 20.68057c-2.34807 3.24378-2.8297 7.47899-1.26994 11.16717 3.40951 7.4954 8.01994 10.1595 5.16258 15.28067-2.85736 5.12116-6.62577 7.34355-7.77147 14.6595-1.02147 6.50152-19.06287 9.84201-28.07667 2.41564 7.71625 18.91103 29.37421 25.1641 29.37421 25.1641s21.3957-3.7132 20.78833-38.81593c-.26227-15.21165-8.40643-25.59201-18.20704-29.87115Z"/>
    <path fill="#FFF" d="M141.3507 22.06094s-9.75919.08282-14.92176 15.97085c-5.16258 15.88802 1.55981 25.01225 5.60429 23.93556 4.04448-1.07668 23.35581-43.31592 9.31748-39.90641Z" opacity=".5"/>
    <path fill="#FECCC5" d="M164.92738 144.38908s-41.10734-12.4233-29.44323-53.0199c8.6411-30.0506 50.65947-20.59508 50.77033 14.50765.11 35.10274-21.3271 38.51225-21.3271 38.51225Z"/>
    <path fill="#F7644E" d="M162.41511 141.1176s-5.20398 7.4816-3.67178 9.53834c1.53221 2.05675 2.37424.30369 4.58282 1.38037 2.20859 1.07669 4.04448 1.71166 5.12116.48313.79001-1.15756 2.03436-1.92524 3.42332-2.11196 1.47699-.12423-1.94632-8.51687-4.1411-9.17944a13.8727 13.8727 0 0 0-5.31442-.11043Z"/>
    <path fill="#FF907E" d="M168.47492 75.75722c-2.38504 3.21813-2.9089 7.45088-1.38036 11.15337 3.29907 7.5368 7.86809 10.26993 4.94171 15.34968-2.92638 5.07975-6.72239 7.24693-7.97852 14.54907-1.1181 6.47392-19.20091 9.56594-28.10428 2.01534 7.45398 19.02146 28.98771 25.5782 28.98771 25.5782s21.4233-3.4095 21.327-38.51224c-.06934-15.33588-8.06167-25.71624-17.79326-30.13342Z"/>
    <path fill="#FFF" d="M152.79395 76.91673s-9.7592 0-15.18404 15.7638c-5.42484 15.76379 1.20092 25.02605 5.2592 24.01838 4.05828-1.00767 24.00459-42.99844 9.92484-39.78218Z" opacity=".5"/>
    <path fill="#B3E4FF" d="M179.73872 164.73569s-24.26686-35.44783 10.1733-59.7837c25.5506-18.0552 52.45396 15.61195 30.56133 43.06745-21.89262 27.4555-40.73463 16.71625-40.73463 16.71625Z"/>
    <path fill="#006EF7" d="M179.83534 160.6084s-8.73772 2.58128-8.83435 5.14876c-.09662 2.56748 1.67025 1.72546 2.76074 3.94785 1.09049 2.2224 2.09816 3.86503 3.69938 3.58896 1.338-.41307 2.78855-.2374 3.98926.48312 1.22853.82822 3.80982-7.85429 2.48467-9.773a13.91412 13.91412 0 0 0-4.0997-3.3957Z"/>
    <path fill="#66BAFB" d="M225.42887 113.38603c-3.87577 1.00763-6.94014 3.97248-8.07515 7.81288-2.15337 7.95091-.28987 12.93404-5.75613 15.0598-5.46625 2.12577-9.773 1.4632-15.32207 6.3773-4.91411 4.34816-20.96778-4.5414-23.19017-16.01226-6.07362 19.50459 6.65337 38.11194 6.65337 38.11194s18.85581 10.73926 40.73463-16.71625c9.52454-11.91257 9.80061-25.10888 4.95552-34.63341Z"/>
    <path fill="#FFF" fill-opacity=".5" d="M212.46722 104.48266s-7.57821-6.14263-21.65796 2.84356c-14.07974 8.98619-14.71471 20.2776-10.9187 22.08587 3.796 1.80828 45.57972-18.62115 32.57666-24.92943Z"/>
    <path fill="#CFCECE" d="M168.4059 223.31847c-.32248-.02216-.56794-.2983-.55214-.62116.08282-1.22853 2.04294-29.92636 3.53374-37.43556a100.03522 100.03522 0 0 1 5.96318-18.27606.59356.59356 0 1 1 1.07669.46932 99.7453 99.7453 0 0 0-5.88036 18.0414c-1.477 7.44018-3.49233 36.98004-3.51994 37.26991a.57975.57975 0 0 1-.62117.55215Z"/>
    <path fill="#CFCECE" d="M174.94884 217.3967c-.31197-.00693-.56531-.25424-.57975-.56595 0-.28988-.773-28.83587-.59356-40.33433.17945-11.49846-6.81901-29.94017-6.90183-30.13342a.57975.57975 0 0 1 .34509-.7454.56595.56595 0 0 1 .7454.3313c.30368.773 7.1641 18.98004 6.97085 30.57512-.19325 11.59509.57976 40.03065.59356 40.27912a.57976.57976 0 0 1-.56595.59356h-.0138Z"/>
    <path fill="#A22E19" d="M169.22032 183.03936a53.83425 53.83425 0 0 1 3.49233-6.52914c.63497-.46932 4.32055.7316 4.83129 1.38037 1.07668 1.31135-.67638 1.61503-.57976 1.67024.3865.26227.56595 1.38037-.773 1.5046 0 0 .45552.98006-.11043 1.38037a3.18863 3.18863 0 0 1-1.17332.44172s-.91104 2.76073-2.52607 3.18865c-1.61503.4279-4.08588-2.00154-3.16104-3.03681Z"/>
    <path fill="#A6E5FF" d="M31.1422 191.57003h95.1625c13.56901 0 17.48926-18.89723 4.8865-23.96318l-.64877-.24846c-14.21778-5.03834-16.85428 7.5644-16.85428 7.5644s1.98773-54.96621-45.842-48.9064c-47.82972 6.05981-27.74538 51.1564-27.74538 51.1564s-20.52605-1.73925-8.95858 14.39724Z"/>
    <path fill="#FFC8C1" d="M294.11594 152.57465h92.38798c7.43153-.01468 14.35744-3.76583 18.4302-9.98199 4.07274-6.21616 4.74623-14.06382 1.79218-20.88302-6.41871-14.74232-19.32514-27.40028-45.55212-18.38649-17.07514 5.88037-18.23465 41.13494-18.23465 41.13494s-11.89876-12.56134-19.65643-7.09508c-7.75766 5.46625-8.39263 8.72392-8.39263 8.72392s.7592-32.28679-21.21625-29.13955c-14.12115 2.02914-18.0552 13.25152-15.76379 22.88649 1.81977 7.47432 8.51285 12.73642 16.20551 12.74078Z"/>
  </g>
</svg>
