<svg width="479" height="471" viewBox="0 0 479 471" fill="none" xmlns="http://www.w3.org/2000/svg">
<path d="M202.038 377.105C202.038 377.105 186.233 382.999 199.346 404.795C208.747 420.352 244.829 434.763 266.777 443.929C275.722 447.67 280.719 450.831 284.101 448.387C287.483 445.944 282.721 439.926 274.783 430.705C254.906 407.584 212.708 371.018 202.038 377.105Z" fill="#A22E19"/>
<path d="M271.057 446.206C271.057 446.206 279.504 450.72 280.816 453.315C282.211 453.167 283.467 452.403 284.239 451.231C286.107 448.499 287.702 445.591 289.001 442.548C285.07 440.851 281.556 438.317 278.704 435.122L271.057 446.206V446.206Z" fill="white"/>
<path d="M289.084 455.593C285.973 460.494 282.499 465.154 278.689 469.535C278.979 469.863 279.303 470.159 279.656 470.418C281.533 471.798 295.571 452.68 296.123 448.139C296.177 446.821 295.525 445.575 294.412 444.867C292.919 448.576 291.137 452.162 289.084 455.593V455.593Z" fill="#004696"/>
<path d="M289.084 455.593C291.138 452.162 292.919 448.576 294.412 444.867C293.145 443.923 291.691 443.26 290.147 442.921C289.758 442.82 289.375 442.695 289.001 442.548C287.715 445.59 286.133 448.498 284.28 451.231C283.508 452.403 282.252 453.167 280.857 453.315L280.94 453.495C281.381 454.613 280.871 456.559 280.208 459.278C279.546 463.42 276.067 466.539 278.704 469.535C282.508 465.154 285.978 460.494 289.084 455.593V455.593Z" fill="#0070EE"/>
<path d="M279.076 325.314C277.592 333.665 273.762 341.421 268.033 347.676C258.247 358.636 244.208 370.686 239.046 377.326C235.07 382.392 237.831 386.05 227.533 394.456C221.57 399.329 199.415 399.191 192.375 392.593C187.793 388.3 209.948 352.783 218.092 342.21C226.236 331.636 237.582 310.834 243.918 312.449C250.254 314.064 272.658 313.746 279.076 325.314V325.314Z" fill="#004791"/>
<path d="M267.937 407.239C267.937 407.239 268.213 423.706 292.093 414.955C305.649 409.986 330.302 379.811 335.52 369.983C339.316 362.86 343.402 356.786 341.828 353.114C340.02 348.877 332.635 354.495 320.805 360.596C295.034 373.875 264.555 396.002 267.937 407.239V407.239Z" fill="#E66D57"/>
<path d="M335.52 369.983C338.17 364.999 341.041 360.541 341.869 357.048C334.898 364.682 326.989 373.102 323.566 375.78C316.816 381.053 298.719 402.766 287.414 407.032C281.188 409.364 273.431 407.708 267.702 405.734C267.716 406.243 267.795 406.749 267.937 407.239C267.937 407.239 268.213 423.706 292.093 414.955C305.648 409.986 330.302 379.811 335.52 369.983V369.983Z" fill="#A22E19"/>
<path d="M302.101 310.737C305.226 318.629 306.04 327.247 304.447 335.584C301.907 350.064 296.317 367.691 295.378 376.084C294.66 382.489 296.262 392.289 291.734 401.124C288.214 408.025 273.196 415.548 263.74 413.644C257.597 412.401 257.708 370.548 259.074 357.269C260.441 343.99 259.074 320.331 265.341 318.371C271.608 316.41 290.561 304.277 302.101 310.737Z" fill="#0072E6"/>
<path d="M245.519 242.588C242.759 243.223 211.272 236.529 205.282 228.619C199.291 220.71 240.936 194.703 239.349 185.331C237.762 175.958 211.742 190.521 198.601 201.895C185.46 213.269 177.191 228.674 188.234 243.154C198.407 256.406 223.171 265.475 232.406 269.533C243.159 274.226 250.999 241.305 245.519 242.588V242.588Z" fill="#A22E19"/>
<path d="M295.378 376.07C296.317 367.677 301.907 350.05 304.447 335.57C306.04 327.233 305.226 318.615 302.1 310.723C296.013 307.314 287.869 309.081 280.608 311.786C280.87 318.771 281.022 325.286 280.87 329.11C280.429 340.553 277.516 400.282 280.001 404.809C280.96 406.393 282.368 407.656 284.045 408.44C287.194 406.698 289.849 404.185 291.761 401.137C296.261 392.275 294.66 382.475 295.378 376.07H295.378Z" fill="#004791"/>
<path d="M245.52 242.588C243.67 243.03 228.431 240.049 217.015 235.604C214.089 239.483 207.352 252.099 206.952 261.417C217.291 266.938 228.472 269.437 233.842 271.549C247.079 276.766 251 241.305 245.52 242.588V242.588Z" fill="#C9E6FF"/>
<path d="M235.373 253.838C235.373 253.838 228.113 263.101 226.028 269.022C229.189 270.016 231.895 270.831 233.841 271.59C235.379 272.253 237.117 272.278 238.673 271.659L235.373 253.838H235.373Z" fill="#004696"/>
<path d="M306.228 312.407C291.679 286.843 300.072 267.062 291.044 250.042C285.813 240.214 273.583 240.145 264.61 238.889C257.239 237.868 239.764 239.772 236.382 247.268C231.136 259.001 238.632 300.384 237.182 313.788C244.484 317.708 261.284 330.739 306.228 312.407V312.407Z" fill="white"/>
<path d="M291.002 250.042C287.482 243.43 280.787 241.236 274.051 240.118C272.133 245.943 271.194 264.702 276.329 282.605C280.925 298.645 283.714 311.593 286.82 318.937C293.428 317.197 299.912 315.015 306.228 312.407C291.679 286.843 300.044 267.062 291.002 250.042H291.002Z" fill="#C9E6FF"/>
<path d="M296.745 280.19C296.083 272.998 295.903 266.386 294.55 260.064L285.178 254.542C285.178 254.542 289.623 275.427 296.745 280.19V280.19Z" fill="#004696"/>
<path d="M287.165 248.386C290.547 243.306 320.39 246.674 328.921 241.608C337.452 236.542 308.63 196.774 313.626 188.685C318.623 180.596 337.272 203.869 345.126 219.412C352.981 234.955 354.941 252.237 339.205 261.472C324.794 269.92 303.633 272.639 295.834 268.084C288.034 263.529 283.949 253.19 287.165 248.386V248.386Z" fill="#E66D57"/>
<path d="M314.29 192.136C314.29 192.136 310.397 191.253 309.583 188.575C308.768 185.897 306.049 184.282 306.353 183.177C306.656 182.073 309.21 184.723 309.955 184.861C310.701 184.999 311.101 181.411 310.301 178.25C309.5 175.088 312.15 177.96 312.15 177.96C312.15 177.96 312.081 175.792 313.696 176.759C314.798 177.538 315.686 178.582 316.277 179.796C316.277 179.796 316.788 178.691 317.451 180.817C318.113 182.943 319.066 191.556 314.29 192.136V192.136Z" fill="#E66D57"/>
<path d="M319.369 187.829C318.461 188.688 317.96 189.892 317.989 191.142C318.307 194.869 322.958 198.541 325.277 202.282C328.088 207.457 331.413 212.336 335.202 216.845C341.704 224.782 341.483 235.7 342.035 244.645C342.587 253.59 337.728 251.147 327.265 255.881C316.802 260.616 311.819 258.311 298.139 257.427C294.279 257.265 290.431 256.887 286.613 256.295C288.122 261.219 291.389 265.415 295.793 268.084C303.592 272.639 324.78 269.92 339.164 261.472C354.9 252.237 352.968 234.941 345.086 219.412C339.205 207.693 327.113 191.542 319.369 187.829V187.829Z" fill="#A22E19"/>
<path d="M243.261 220.279C243.261 220.279 239.418 216.281 241.417 212.305C243.416 208.329 249.791 203.798 254.277 206.686C256.765 207.9 258.299 210.472 258.186 213.238C260.178 214.12 261.613 215.92 262.029 218.058C262.673 221.656 260.94 229.918 260.94 229.918C260.94 229.918 245.038 226.32 243.261 220.279V220.279Z" fill="#0070EE"/>
<path d="M258.186 213.238C258.293 211.255 257.472 209.334 255.965 208.041C256.631 209.995 256.987 212.194 255.809 213.282C253.411 215.503 251.523 217.347 251.5 220.212C251.5 221.434 248.924 222.722 245.992 223.788C251.034 227.697 260.896 229.918 260.896 229.918C260.896 229.918 262.628 221.656 261.984 218.058C261.577 215.929 260.16 214.131 258.186 213.238V213.238Z" fill="#0070EE"/>
<path d="M258.364 224.388L266.16 241.379C266.426 243.867 253.788 252.129 249.546 249.397C248.302 248.597 248.391 246.176 249.19 243.489L254.166 228.808L258.364 224.388V224.388Z" fill="#E66D57"/>
<path d="M253.211 231.762L259.563 229.896C259.523 232.891 258.357 235.761 256.298 237.936C254.612 239.729 252.391 240.929 249.968 241.357L253.211 231.762Z" fill="#A22E19"/>
<path d="M254.255 218.924L259.074 228.119C260.428 231.273 259.031 234.932 255.92 236.382C253.542 237.483 250.945 238.03 248.324 237.981C245.481 238.114 243.616 235.76 242.994 232.028C242.421 228.125 242.511 224.152 243.26 220.279C244.326 214.726 250.657 213.171 254.255 218.924V218.924Z" fill="#E66D57"/>
<path d="M246.859 234.494C249.857 233.361 253.033 237.67 257.809 232.273C258.61 230.932 259.018 229.392 258.986 227.83V228.03C260.339 231.184 258.943 234.843 255.832 236.293C253.454 237.394 250.856 237.941 248.236 237.892C246.579 237.964 245.021 237.107 244.193 235.671C245.116 235.36 246.008 234.966 246.859 234.494V234.494Z" fill="#A22E19"/>
<path d="M254.655 222.9C254.669 222.259 254.617 221.619 254.5 220.989C254.3 219.79 254.278 217.947 256.232 218.524C259.031 219.368 260.075 225.187 257.165 226.209C255.01 226.942 254.588 224.521 254.655 222.9V222.9Z" fill="#E66D57"/>
<path d="M249.613 226.942C247.85 227.613 245.989 227.989 244.104 228.053C244.104 228.053 244.371 230.274 245.77 230.696C247.17 231.118 249.28 229.674 249.613 226.942V226.942Z" fill="white"/>
<path d="M322.13 248.841L320.046 268.733C322.282 268.249 324.546 267.642 326.782 266.938C327.445 266.717 327.735 260.961 327.238 258.794C326.251 255.155 324.511 251.765 322.13 248.841V248.841Z" fill="#B01F05"/>
<path d="M318.803 244.148C306.669 245.529 295.337 243.914 284.722 243.914C278.952 243.914 285.881 264.895 294.163 268.484C304.185 272.531 315.252 273.204 325.691 270.403C327.568 258.049 322.337 247.71 318.803 244.148V244.148Z" fill="white"/>
<path d="M284.377 255.384C286.461 260.906 290.147 266.745 294.164 268.484C304.186 272.53 315.253 273.204 325.691 270.403C326.353 265.987 326.171 261.485 325.153 257.137C319.922 259.093 314.393 260.13 308.809 260.202C299.009 260.409 289.167 257.206 284.377 255.384V255.384Z" fill="#C2E7FF"/>
<path d="M338.791 364.337C338.791 364.337 345.113 357.159 347.943 356.469C348.119 355.074 347.658 353.675 346.687 352.659C344.457 350.227 341.993 348.022 339.329 346.075C337.19 349.305 332.303 353.887 330.812 355.406L338.791 364.337V364.337Z" fill="white"/>
<path d="M352.043 348.96C356.104 353.112 359.846 357.564 363.237 362.28C363.62 362.068 363.981 361.818 364.314 361.535C366.108 360.016 350.69 341.989 346.369 340.401C345.094 340.054 343.729 340.405 342.78 341.326C346.066 343.619 349.164 346.172 352.043 348.96V348.96Z" fill="#004696"/>
<path d="M352.042 348.96C349.172 346.173 346.084 343.621 342.808 341.326C341.607 342.351 340.633 343.616 339.95 345.039C339.785 345.357 339.564 345.716 339.329 346.075C341.992 348.022 344.457 350.227 346.686 352.659C347.658 353.675 348.119 355.074 347.943 356.469H348.136C349.323 356.303 351.104 357.228 353.657 358.498C357.509 360.099 359.759 364.254 363.32 362.321C359.904 357.589 356.134 353.122 352.042 348.96V348.96Z" fill="#0070EE"/>
<path d="M236.547 199.217C236.274 199.186 236.061 198.967 236.037 198.693C235.36 190.921 257.57 60.2971 258.509 54.7342C258.562 54.4178 258.862 54.2046 259.178 54.258C259.495 54.3114 259.708 54.6111 259.655 54.9275C259.42 56.3078 236.52 190.976 237.182 198.596C237.206 198.912 236.973 199.188 236.658 199.217H236.547H236.547Z" fill="#CFCECE"/>
<path d="M256.59 71.7542C256.59 71.7542 220.12 49.0609 241.875 12.9091C257.998 -13.8838 296.137 6.13152 287.151 40.0747C278.165 74.018 256.59 71.7542 256.59 71.7542Z" fill="#FFC8C1"/>
<path d="M255.016 67.9305C255.016 67.9305 248.115 73.8109 248.998 76.2127C249.881 78.6146 251.22 77.11 253.056 78.7388C254.892 80.3676 256.535 81.4305 257.888 80.5333C258.948 79.6167 260.349 79.195 261.739 79.3738C263.202 79.6499 262.07 70.6499 260.082 69.4351C258.506 68.614 256.786 68.1032 255.016 67.9305V67.9305Z" fill="#FBC162"/>
<path d="M277.779 6.35236C274.633 8.83529 273.015 12.7834 273.514 16.7603C274.756 24.8907 278.455 28.7005 274.314 32.8554C270.173 37.0103 265.949 38.1284 262.843 44.8508C260.083 50.814 241.82 49.1161 235.167 39.5088C237.445 59.814 256.59 71.7403 256.59 71.7403C256.59 71.7403 278.165 73.9903 287.152 40.0609C291.072 25.291 286.034 13.1438 277.779 6.35236V6.35236Z" fill="#FF9684"/>
<path opacity="0.5" d="M262.333 3.42603C262.333 3.42603 252.919 0.858548 243.643 14.7312C234.366 28.6039 238.314 39.219 242.497 39.2881C246.679 39.357 276.771 3.96437 262.333 3.42603V3.42603Z" fill="white"/>
<path d="M280.277 106.843C280.277 106.843 256.01 71.4091 290.451 47.0594C315.987 29.018 342.905 62.6714 320.998 90.1269C299.092 117.582 280.277 106.843 280.277 106.843V106.843Z" fill="#FFCAC3"/>
<path d="M280.373 102.716C280.373 102.716 271.622 105.297 271.539 107.865C271.456 110.432 273.209 109.59 274.3 111.812C275.39 114.035 276.384 115.677 277.985 115.401C279.328 114.986 280.783 115.162 281.988 115.885C283.217 116.727 285.798 108.03 284.473 106.125C283.341 104.733 281.948 103.575 280.373 102.716V102.716Z" fill="#FBC162"/>
<path d="M325.968 55.4935C322.092 56.5067 319.026 59.4683 317.879 63.3063C315.739 71.2573 317.603 76.2404 312.136 78.3661C306.67 80.4919 302.363 79.8293 296.814 84.7434C291.886 89.0916 275.847 80.202 273.624 68.7312C267.537 88.2496 280.278 106.843 280.278 106.843C280.278 106.843 299.133 117.582 320.998 90.1269C330.523 78.1315 330.799 65.0318 325.968 55.4935V55.4935Z" fill="#FF8978"/>
<path opacity="0.5" d="M313.006 46.6039C313.006 46.6039 305.427 40.4612 291.334 49.3646C277.24 58.268 276.619 69.656 280.429 71.4505C284.239 73.2449 326.009 52.8983 313.006 46.6039Z" fill="white"/>
<path d="M218.423 89.3676C218.423 89.3676 177.192 77.4689 188.235 36.7204C196.517 6.54561 238.604 15.4076 239.212 50.5241C239.819 85.6406 218.423 89.3676 218.423 89.3676Z" fill="#A6E5FF"/>
<path d="M215.842 86.1238C215.842 86.1238 210.734 93.6744 212.294 95.7174C213.854 97.7603 214.682 95.9796 216.891 97.0287C219.1 98.0778 221.032 98.6851 222.026 97.4566C222.799 96.2847 224.033 95.4968 225.422 95.2894C226.899 95.1514 223.351 86.8002 221.115 86.1652C219.376 85.8164 217.586 85.8024 215.842 86.1238V86.1238Z" fill="#FBC162"/>
<path d="M221.004 20.6806C218.656 23.9244 218.175 28.1596 219.734 31.8478C223.144 39.3432 227.754 42.0073 224.897 47.1284C222.04 52.2496 218.271 54.472 217.126 61.7879C216.104 68.2895 198.063 71.63 189.049 64.2036C196.765 83.1146 218.423 89.3677 218.423 89.3677C218.423 89.3677 239.819 85.6545 239.211 50.5518C238.949 35.3401 230.805 24.9597 221.004 20.6806V20.6806Z" fill="#46BBFF"/>
<path opacity="0.5" d="M205.351 22.0609C205.351 22.0609 195.592 22.1438 190.429 38.0318C185.267 53.9198 191.989 63.044 196.034 61.9674C200.078 60.8907 219.389 18.6514 205.351 22.0609H205.351Z" fill="white"/>
<path d="M228.927 144.389C228.927 144.389 187.82 131.966 199.484 91.3692C208.125 61.3186 250.144 70.7742 250.255 105.877C250.365 140.98 228.927 144.389 228.927 144.389Z" fill="#FECCC5"/>
<path d="M226.415 141.118C226.415 141.118 221.211 148.599 222.743 150.656C224.275 152.713 225.117 150.96 227.326 152.036C229.535 153.113 231.371 153.748 232.447 152.519C233.237 151.362 234.482 150.594 235.871 150.408C237.348 150.283 233.924 141.891 231.729 141.228C229.982 140.849 228.177 140.812 226.415 141.118V141.118Z" fill="#F7644E"/>
<path d="M232.475 75.7573C230.09 78.9754 229.566 83.2081 231.094 86.9106C234.393 94.4474 238.962 97.1806 236.036 102.26C233.11 107.34 229.314 109.507 228.057 116.809C226.939 123.283 208.856 126.375 199.953 118.825C207.407 137.846 228.941 144.403 228.941 144.403C228.941 144.403 250.364 140.993 250.268 105.891C250.198 90.5548 242.206 80.1744 232.475 75.7573V75.7573Z" fill="#FF907E"/>
<path opacity="0.5" d="M216.794 76.9167C216.794 76.9167 207.035 76.9167 201.61 92.6805C196.185 108.444 202.811 117.707 206.869 116.699C210.927 115.691 230.874 73.7005 216.794 76.9167V76.9167Z" fill="white"/>
<path d="M243.739 164.736C243.739 164.736 219.472 129.288 253.912 104.952C279.463 86.8968 306.366 120.564 284.474 148.019C262.581 175.475 243.739 164.736 243.739 164.736Z" fill="#B3E4FF"/>
<path d="M243.835 160.608C243.835 160.608 235.098 163.19 235.001 165.757C234.904 168.325 236.671 167.483 237.762 169.705C238.852 171.927 239.86 173.57 241.461 173.294C242.799 172.881 244.25 173.057 245.45 173.777C246.679 174.605 249.26 165.923 247.935 164.004C246.8 162.619 245.408 161.466 243.835 160.608V160.608Z" fill="#006EF7"/>
<path d="M289.429 113.386C285.553 114.394 282.489 117.359 281.354 121.199C279.201 129.15 281.064 134.133 275.598 136.259C270.132 138.384 265.825 137.722 260.276 142.636C255.362 146.984 239.308 138.095 237.086 126.624C231.012 146.128 243.739 164.736 243.739 164.736C243.739 164.736 262.595 175.475 284.474 148.019C293.998 136.107 294.274 122.911 289.429 113.386Z" fill="#66BAFB"/>
<path d="M276.468 104.483C276.468 104.483 268.89 98.34 254.81 107.326C240.73 116.312 240.095 127.604 243.891 129.412C247.687 131.22 289.471 110.791 276.468 104.483V104.483Z" fill="white" fill-opacity="0.5"/>
<path d="M232.406 223.319C232.084 223.296 231.838 223.02 231.854 222.697C231.937 221.469 233.897 192.771 235.388 185.262C236.784 178.992 238.781 172.872 241.351 166.986C241.374 166.903 241.413 166.827 241.468 166.762C241.522 166.696 241.59 166.643 241.667 166.606C241.744 166.569 241.828 166.549 241.913 166.548C241.998 166.546 242.083 166.563 242.161 166.597C242.239 166.631 242.309 166.682 242.366 166.745C242.423 166.809 242.465 166.884 242.491 166.965C242.516 167.047 242.524 167.132 242.513 167.217C242.502 167.301 242.473 167.383 242.428 167.455C239.899 173.268 237.93 179.309 236.547 185.496C235.07 192.937 233.055 222.476 233.028 222.766C233.024 222.844 233.005 222.92 232.972 222.99C232.938 223.06 232.891 223.122 232.834 223.174C232.776 223.225 232.708 223.264 232.635 223.289C232.561 223.314 232.484 223.324 232.406 223.319V223.319Z" fill="#CFCECE"/>
<path d="M238.949 217.397C238.637 217.39 238.384 217.142 238.369 216.831C238.369 216.541 237.596 187.995 237.776 176.496C237.955 164.998 230.957 146.556 230.874 146.363C230.847 146.291 230.835 146.215 230.838 146.139C230.841 146.063 230.859 145.988 230.892 145.919C230.924 145.849 230.969 145.787 231.025 145.735C231.081 145.684 231.147 145.644 231.219 145.618C231.289 145.589 231.365 145.575 231.441 145.576C231.517 145.577 231.592 145.594 231.662 145.625C231.732 145.656 231.794 145.7 231.846 145.756C231.898 145.812 231.938 145.877 231.964 145.949C232.268 146.722 239.128 164.929 238.935 176.524C238.742 188.119 239.515 216.555 239.529 216.803C239.53 216.879 239.517 216.955 239.49 217.026C239.462 217.097 239.421 217.162 239.369 217.217C239.316 217.272 239.253 217.317 239.184 217.347C239.114 217.378 239.039 217.395 238.963 217.397H238.949H238.949Z" fill="#CFCECE"/>
<path d="M233.221 183.039C234.234 180.785 235.401 178.604 236.713 176.51C237.348 176.041 241.034 177.242 241.544 177.891C242.621 179.202 240.868 179.506 240.965 179.561C241.351 179.823 241.531 180.941 240.192 181.065C240.192 181.065 240.647 182.046 240.081 182.446C239.723 182.669 239.324 182.819 238.908 182.888C238.908 182.888 237.997 185.648 236.382 186.076C234.767 186.504 232.296 184.075 233.221 183.039V183.039Z" fill="#A22E19"/>
<path d="M95.1423 191.57H190.305C203.874 191.57 207.794 172.673 195.191 167.607L194.543 167.358C180.325 162.32 177.688 174.923 177.688 174.923C177.688 174.923 179.676 119.957 131.846 126.016C84.0165 132.076 104.101 177.173 104.101 177.173C104.101 177.173 83.5748 175.434 95.1423 191.57H95.1423Z" fill="#A6E5FF"/>
<path d="M358.116 152.575H450.504C457.936 152.56 464.862 148.809 468.934 142.593C473.007 136.377 473.68 128.529 470.726 121.71C464.308 106.967 451.401 94.3094 425.174 103.323C408.099 109.204 406.94 144.458 406.94 144.458C406.94 144.458 395.041 131.897 387.283 137.363C379.526 142.829 378.891 146.087 378.891 146.087C378.891 146.087 379.65 113.8 357.674 116.947C343.553 118.977 339.619 130.199 341.911 139.834C343.73 147.308 350.423 152.57 358.116 152.575Z" fill="#FFC8C1"/>
</svg>
