<svg width="479" height="471" viewBox="0 0 479 471" fill="none" xmlns="http://www.w3.org/2000/svg">
<path d="M53.8437 132.685H177.16C194.761 132.685 199.841 108.282 183.51 101.735L182.669 101.414C164.245 94.9027 160.811 111.189 160.811 111.189C160.811 111.189 163.404 40.1562 101.424 47.9695C39.4443 55.7828 65.4705 114.097 65.4705 114.097C65.4705 114.097 38.8719 111.831 53.8437 132.685V132.685Z" fill="#FFEBE9"/>
<path d="M317.898 243.159H437.619C447.249 243.14 456.224 238.292 461.502 230.259C466.78 222.226 467.652 212.084 463.824 203.272C455.507 184.22 438.692 167.845 404.796 179.511C382.651 187.11 381.149 232.67 381.149 232.67C381.149 232.67 365.73 216.437 355.695 223.501C345.66 230.565 344.819 234.775 344.819 234.775C344.819 234.775 345.803 193.033 317.326 197.118C299.027 199.74 293.929 214.243 296.899 226.676C299.244 236.346 307.922 243.158 317.898 243.159V243.159Z" fill="#A6E5FF"/>
<path d="M351.007 81.4881C351.226 81.3933 351.48 81.478 351.598 81.6843C351.723 81.9071 351.653 82.189 351.437 82.3265L349.845 83.3255C349.794 83.374 349.733 83.4108 349.667 83.4336C349.601 83.4563 349.53 83.4643 349.46 83.457C349.39 83.4498 349.323 83.4274 349.263 83.3916C349.203 83.3557 349.151 83.3071 349.111 83.2493C349.072 83.1915 349.045 83.1257 349.034 83.0567C349.022 82.9876 349.026 82.9169 349.045 82.8494C349.064 82.782 349.097 82.7194 349.142 82.666C349.188 82.6127 349.244 82.5699 349.308 82.5406C349.845 82.1838 350.399 81.8449 350.936 81.5238L351.007 81.4881Z" fill="#D5EBF6"/>
<path d="M346.321 29.4531C346.522 29.3654 346.757 29.424 346.893 29.5958C346.937 29.6389 346.972 29.6903 346.996 29.747C347.019 29.8036 347.032 29.8644 347.032 29.9258C347.032 29.9872 347.019 30.048 346.996 30.1046C346.972 30.1613 346.937 30.2127 346.893 30.2558C345.927 31.0407 344.961 31.8791 344.049 32.7354C344.008 32.7935 343.955 32.842 343.894 32.8773C343.832 32.9126 343.763 32.9339 343.692 32.9397C343.622 32.9454 343.55 32.9355 343.484 32.9106C343.417 32.8857 343.357 32.8464 343.307 32.7956C343.258 32.7448 343.22 32.6837 343.197 32.6166C343.173 32.5496 343.165 32.4782 343.173 32.4077C343.181 32.3372 343.204 32.2693 343.241 32.2087C343.278 32.1482 343.328 32.0966 343.387 32.0575C344.318 31.1656 345.301 30.2737 346.303 29.5244L346.321 29.4531ZM340.776 34.7155C340.851 34.6678 340.937 34.6425 341.026 34.6425C341.115 34.6425 341.202 34.6678 341.277 34.7155C341.463 34.9032 341.463 35.2056 341.277 35.3933C340.436 36.3209 339.631 37.302 338.862 38.3188C338.827 38.379 338.78 38.431 338.724 38.4714C338.668 38.5118 338.603 38.5396 338.535 38.5528C338.467 38.5661 338.397 38.5646 338.329 38.5484C338.262 38.5322 338.199 38.5017 338.144 38.4589C338.089 38.4161 338.045 38.3621 338.013 38.3005C337.981 38.239 337.963 38.1713 337.96 38.1021C337.957 38.033 337.969 37.964 337.995 37.8998C338.021 37.8356 338.06 37.7777 338.111 37.7302C338.88 36.7134 339.72 35.7144 340.561 34.769C340.626 34.7319 340.701 34.7134 340.776 34.7154V34.7155ZM336.125 40.7984C336.193 40.7592 336.27 40.7386 336.349 40.7386C336.427 40.7386 336.504 40.7592 336.572 40.7984C336.624 40.8311 336.669 40.8736 336.704 40.9236C336.739 40.9736 336.764 41.0301 336.778 41.0898C336.791 41.1495 336.792 41.2112 336.782 41.2714C336.771 41.3316 336.748 41.3891 336.715 41.4406C336.018 42.4931 335.356 43.599 334.748 44.705C334.616 44.9269 334.332 45.0056 334.104 44.8834C334.049 44.8537 334.001 44.8133 333.962 44.7647C333.923 44.716 333.895 44.66 333.878 44.6001C333.861 44.5402 333.857 44.4776 333.865 44.4159C333.873 44.3543 333.893 44.2949 333.925 44.2412C334.551 43.1174 335.213 41.9936 335.91 40.9233C335.97 40.8637 336.044 40.8206 336.125 40.7984V40.7984ZM332.422 47.4878C332.482 47.4618 332.545 47.4483 332.61 47.4483C332.675 47.4483 332.739 47.4618 332.798 47.4878C332.855 47.5128 332.906 47.549 332.949 47.5942C332.992 47.6394 333.025 47.6927 333.047 47.7509C333.068 47.8092 333.078 47.8711 333.075 47.9332C333.073 47.9953 333.057 48.0561 333.031 48.1122C332.494 49.2539 332.011 50.4312 331.546 51.6799C331.526 51.7393 331.494 51.7939 331.452 51.8402C331.41 51.8865 331.359 51.9235 331.302 51.9487C331.244 51.974 331.182 51.9869 331.119 51.9867C331.057 51.9865 330.995 51.9731 330.938 51.9475C330.88 51.9258 330.827 51.8927 330.782 51.8503C330.737 51.8079 330.701 51.757 330.676 51.7005C330.651 51.644 330.637 51.5831 330.636 51.5214C330.635 51.4596 330.646 51.3983 330.669 51.341C331.117 50.1458 331.635 48.9506 332.172 47.7733C332.19 47.7103 332.222 47.652 332.265 47.6027C332.308 47.5534 332.362 47.5141 332.422 47.4878H332.422ZM329.668 54.6233C329.719 54.6017 329.773 54.5905 329.829 54.5905C329.884 54.5905 329.939 54.6017 329.99 54.6233C330.239 54.7005 330.381 54.9612 330.312 55.2119C329.936 56.4071 329.596 57.638 329.292 58.8688C329.279 58.9306 329.254 58.9891 329.218 59.0409C329.182 59.0926 329.136 59.1365 329.083 59.1699C329.029 59.2033 328.969 59.2255 328.907 59.235C328.845 59.2446 328.781 59.2414 328.72 59.2256C328.659 59.2111 328.603 59.1846 328.553 59.1479C328.503 59.1111 328.461 59.0648 328.429 59.0116C328.397 58.9584 328.377 58.8994 328.368 58.8382C328.36 58.7769 328.364 58.7145 328.38 58.6548C328.684 57.3882 329.024 56.1395 329.399 54.9265C329.421 54.8606 329.456 54.7998 329.503 54.7477C329.549 54.6956 329.605 54.6532 329.668 54.6233ZM327.879 62.0441C327.972 62.0173 328.072 62.0173 328.165 62.0441C328.226 62.0525 328.284 62.0734 328.337 62.1054C328.389 62.1374 328.435 62.1798 328.47 62.2301C328.505 62.2803 328.53 62.3372 328.542 62.3973C328.554 62.4574 328.554 62.5193 328.541 62.5793C328.326 63.8101 328.129 65.0766 327.95 66.3432C327.946 66.4052 327.929 66.4657 327.9 66.5208C327.871 66.5758 327.831 66.6242 327.782 66.6628C327.733 66.7015 327.677 66.7295 327.617 66.7451C327.556 66.7607 327.493 66.7636 327.432 66.7535C327.369 66.747 327.308 66.7278 327.253 66.6969C327.197 66.6661 327.149 66.6244 327.11 66.5743C327.072 66.5242 327.044 66.4668 327.029 66.4056C327.013 66.3444 327.01 66.2806 327.02 66.2183C327.181 64.9339 327.378 63.6496 327.611 62.4187C327.618 62.3427 327.643 62.2694 327.683 62.2045C327.724 62.1395 327.778 62.0846 327.843 62.0441H327.879V62.0441ZM326.913 69.6255H327.146C327.405 69.6536 327.596 69.8829 327.575 70.1428C327.575 71.3737 327.414 72.658 327.378 73.9424C327.368 74.2014 327.155 74.4064 326.895 74.4062C326.633 74.3875 326.429 74.1692 326.43 73.9067C326.43 72.6223 326.537 71.3201 326.627 70.0714C326.624 69.9815 326.646 69.8926 326.69 69.8141C326.735 69.7356 326.799 69.6704 326.877 69.6255H326.913V69.6255ZM326.698 77.2782H326.877C326.94 77.2758 327.002 77.286 327.061 77.3083C327.119 77.3305 327.173 77.3643 327.218 77.4076C327.263 77.4509 327.299 77.5028 327.323 77.5603C327.348 77.6178 327.36 77.6796 327.36 77.742C327.36 78.9907 327.36 80.2751 327.521 81.5416C327.532 81.8011 327.334 82.0221 327.074 82.0411C327.011 82.046 326.949 82.0381 326.889 82.0181C326.83 81.9981 326.775 81.9663 326.728 81.9247C326.681 81.883 326.644 81.8323 326.617 81.7757C326.59 81.7191 326.575 81.6577 326.573 81.5951C326.573 80.3108 326.43 79.0264 326.412 77.7598C326.399 77.6612 326.416 77.5609 326.461 77.4719C326.505 77.383 326.576 77.3093 326.663 77.2604L326.698 77.2782V77.2782ZM328.988 82.0768L330.222 81.5773C330.469 81.4931 330.738 81.6194 330.83 81.8627C330.915 82.1088 330.788 82.3773 330.544 82.4692L329.328 82.9509C328.594 83.272 327.843 83.6287 327.11 84.0212C326.872 84.1279 326.592 84.0348 326.466 83.8071C326.435 83.7538 326.416 83.6947 326.409 83.6336C326.403 83.5725 326.409 83.5107 326.427 83.4521C326.446 83.3935 326.476 83.3393 326.517 83.2929C326.557 83.2466 326.607 83.2091 326.663 83.1828C327.396 82.7725 328.165 82.4157 328.952 82.0768H328.988V82.0768ZM333.871 80.4891C334.733 80.2958 335.605 80.1469 336.483 80.0432L337.735 79.954C337.797 79.9491 337.86 79.9569 337.92 79.977C337.979 79.997 338.034 80.0288 338.081 80.0704C338.128 80.1121 338.165 80.1627 338.192 80.2194C338.219 80.276 338.234 80.3374 338.236 80.3999C338.246 80.6594 338.048 80.8804 337.789 80.8994L336.59 80.9886C335.743 81.0879 334.901 81.2308 334.068 81.4168C333.831 81.4552 333.602 81.3141 333.53 81.0855C333.458 80.857 333.565 80.6105 333.782 80.507L333.871 80.4891ZM323.425 85.1272C323.634 85.0396 323.876 85.115 323.997 85.3056C324.142 85.5231 324.086 85.8157 323.872 85.9656C322.853 86.6613 321.833 87.4283 320.849 88.2489C320.663 88.4234 320.373 88.4234 320.187 88.2489C320.144 88.2058 320.109 88.1544 320.085 88.0977C320.061 88.0411 320.049 87.9803 320.049 87.9189C320.049 87.8575 320.061 87.7967 320.085 87.7401C320.109 87.6834 320.144 87.632 320.187 87.5889C321.207 86.7505 322.244 85.9656 323.282 85.252L323.425 85.1272V85.1272ZM327.163 84.9131H327.307C327.567 84.8923 327.797 85.082 327.825 85.3412V86.2688C327.932 87.2166 328.057 88.1622 328.201 89.1052C328.211 89.1685 328.208 89.2332 328.193 89.2955C328.178 89.3578 328.15 89.4164 328.112 89.4679C328.074 89.5195 328.025 89.5628 327.97 89.5955C327.915 89.6281 327.853 89.6495 327.789 89.6582C327.528 89.6899 327.29 89.5075 327.253 89.2479C327.11 88.2846 326.985 87.3392 326.877 86.3759V85.4304C326.831 85.221 326.934 85.007 327.128 84.9131H327.163V84.9131ZM317.54 90.0149C317.628 89.9804 317.723 89.9722 317.815 89.9912C317.908 90.0102 317.992 90.0557 318.059 90.122C318.236 90.3133 318.236 90.6085 318.059 90.7998C317.451 91.3885 316.86 92.0307 316.27 92.6729L315.465 93.5826C315.279 93.7571 314.989 93.7571 314.803 93.5826C314.757 93.5392 314.719 93.4868 314.694 93.4285C314.669 93.3702 314.656 93.3073 314.656 93.2437C314.656 93.1801 314.669 93.1172 314.694 93.0589C314.719 93.0006 314.757 92.9482 314.803 92.9048L315.608 91.9772C316.198 91.3171 316.807 90.675 317.397 90.0684L317.54 90.0149V90.0149ZM341.491 80.0967C341.573 80.0695 341.66 80.0695 341.742 80.0967C343.038 80.2577 344.318 80.5263 345.57 80.8994C345.819 80.9767 345.961 81.2374 345.892 81.4881C345.814 81.7366 345.553 81.8788 345.301 81.8092C344.098 81.4464 342.865 81.1897 341.616 81.0421C341.409 81.0065 341.249 80.841 341.22 80.633C341.191 80.425 341.301 80.2224 341.491 80.1324V80.0967ZM312.549 95.8303C312.619 95.7878 312.7 95.7653 312.782 95.7653C312.864 95.7653 312.944 95.7878 313.014 95.8303C313.058 95.8734 313.093 95.9248 313.117 95.9815C313.141 96.0381 313.153 96.0989 313.153 96.1603C313.153 96.2217 313.141 96.2825 313.117 96.3391C313.093 96.3958 313.058 96.4472 313.014 96.4903C312.281 97.4714 311.548 98.5239 310.85 99.6121C310.702 99.8337 310.402 99.8936 310.179 99.7459C309.957 99.5981 309.897 99.2986 310.045 99.0769C310.779 97.9888 311.512 96.9184 312.263 95.9195C312.338 95.8699 312.424 95.8393 312.514 95.8303H312.549V95.8303ZM348.807 82.3087C348.868 82.2774 348.936 82.2611 349.004 82.2611C349.072 82.2611 349.14 82.2774 349.201 82.3087C350.371 82.8986 351.48 83.6037 352.51 84.4136C352.685 84.5991 352.685 84.8882 352.51 85.0737C352.473 85.1236 352.426 85.1657 352.373 85.1974C352.319 85.229 352.26 85.2496 352.198 85.258C352.136 85.2663 352.073 85.2621 352.013 85.2458C351.953 85.2295 351.897 85.2013 351.848 85.1628C350.87 84.3866 349.815 83.7113 348.7 83.1471C348.615 83.1119 348.543 83.0524 348.492 82.9762C348.441 82.9 348.414 82.8105 348.414 82.719C348.414 82.6274 348.441 82.5379 348.492 82.4617C348.543 82.3855 348.615 82.3261 348.7 82.2908L348.807 82.3087V82.3087ZM328.326 92.4766C328.582 92.4208 328.837 92.5792 328.898 92.8334C329.17 94.0392 329.505 95.23 329.9 96.4011C329.985 96.6472 329.858 96.9157 329.614 97.0076C329.362 97.0901 329.091 96.9548 329.006 96.7044C328.612 95.5449 328.272 94.2962 327.968 92.9761C327.941 92.754 328.076 92.5438 328.29 92.4766H328.326V92.4766ZM308.292 102.234C308.36 102.204 308.433 102.188 308.507 102.188C308.581 102.188 308.654 102.204 308.721 102.234C308.777 102.265 308.826 102.308 308.865 102.359C308.903 102.409 308.931 102.467 308.946 102.529C308.961 102.591 308.963 102.656 308.952 102.718C308.941 102.781 308.918 102.841 308.882 102.894C308.274 103.929 307.648 105.053 307.094 106.212C307.021 106.278 306.93 106.32 306.833 106.333C306.735 106.346 306.636 106.33 306.549 106.285C306.461 106.24 306.39 106.17 306.343 106.084C306.297 105.998 306.278 105.899 306.289 105.802C306.897 104.625 307.541 103.501 308.167 102.448C308.188 102.367 308.231 102.292 308.292 102.234V102.234ZM354.71 87.0537C354.907 86.9808 355.128 87.0378 355.265 87.1964C356.1 88.2196 356.809 89.3396 357.375 90.5323C357.478 90.7689 357.375 91.0441 357.143 91.1566C356.905 91.2588 356.63 91.1566 356.517 90.9247C355.988 89.8042 355.327 88.7503 354.549 87.7851C354.374 87.5997 354.374 87.3105 354.549 87.1251L354.71 87.0537V87.0537ZM304.625 108.977C304.686 108.946 304.754 108.93 304.822 108.93C304.89 108.93 304.958 108.946 305.019 108.977C305.076 109.002 305.127 109.038 305.17 109.084C305.213 109.129 305.246 109.182 305.268 109.24C305.289 109.299 305.299 109.361 305.296 109.423C305.293 109.485 305.278 109.546 305.251 109.602C304.679 110.743 304.142 111.903 303.606 113.062C303.493 113.294 303.217 113.396 302.98 113.294C302.745 113.175 302.643 112.894 302.747 112.652C303.284 111.493 303.82 110.333 304.393 109.191C304.461 109.086 304.561 109.004 304.679 108.959L304.625 108.977ZM330.705 99.7191C330.933 99.6159 331.201 99.7105 331.313 99.9332C331.821 101.033 332.42 102.089 333.102 103.091C333.201 103.304 333.13 103.558 332.936 103.69C332.741 103.823 332.478 103.795 332.315 103.626C331.563 102.567 330.893 101.451 330.312 100.29C330.205 100.053 330.298 99.7734 330.526 99.6477L330.705 99.7191V99.7191ZM301.423 115.934C301.483 115.908 301.547 115.895 301.611 115.895C301.676 115.895 301.74 115.908 301.799 115.934C301.858 115.958 301.911 115.993 301.955 116.037C302 116.081 302.035 116.135 302.059 116.193C302.082 116.251 302.093 116.314 302.092 116.377C302.09 116.44 302.076 116.502 302.049 116.559C301.531 117.718 301.03 118.896 300.529 120.126C300.416 120.358 300.145 120.466 299.903 120.376C299.664 120.27 299.552 119.993 299.653 119.752C300.153 118.574 300.672 117.397 301.173 116.184C301.198 116.118 301.238 116.059 301.291 116.012C301.344 115.966 301.408 115.933 301.477 115.917L301.423 115.934V115.934ZM357.787 93.9394H357.912C358.173 93.9076 358.412 94.09 358.449 94.3497C358.619 95.6523 358.619 96.9715 358.449 98.2742C358.444 98.3368 358.427 98.3979 358.398 98.4537C358.37 98.5096 358.33 98.559 358.281 98.599C358.233 98.6391 358.177 98.6689 358.116 98.6866C358.056 98.7044 357.992 98.7097 357.93 98.7023C357.675 98.6658 357.489 98.4419 357.501 98.185C357.661 96.9593 357.661 95.7181 357.501 94.4924C357.452 94.2437 357.598 93.9984 357.84 93.9216L357.787 93.9394V93.9394ZM335.266 105.802C335.35 105.767 335.441 105.756 335.53 105.772C335.619 105.788 335.702 105.829 335.767 105.891C336.691 106.732 337.704 107.468 338.79 108.085C339.017 108.224 339.089 108.519 338.951 108.745C338.92 108.799 338.878 108.845 338.829 108.882C338.779 108.919 338.723 108.945 338.663 108.96C338.603 108.975 338.541 108.978 338.48 108.969C338.419 108.96 338.36 108.938 338.307 108.906C337.17 108.25 336.109 107.473 335.141 106.587C335.097 106.544 335.063 106.492 335.039 106.436C335.015 106.379 335.003 106.318 335.003 106.257C335.003 106.196 335.015 106.135 335.039 106.078C335.063 106.021 335.097 105.97 335.141 105.927L335.266 105.802V105.802ZM298.454 122.927C298.513 122.901 298.577 122.888 298.642 122.888C298.707 122.888 298.771 122.901 298.83 122.927C298.888 122.95 298.941 122.985 298.986 123.03C299.031 123.074 299.066 123.127 299.089 123.186C299.113 123.244 299.124 123.307 299.122 123.369C299.121 123.432 299.106 123.494 299.08 123.551L297.578 127.119C297.554 127.178 297.519 127.231 297.475 127.275C297.43 127.32 297.377 127.355 297.318 127.378C297.26 127.401 297.197 127.413 297.134 127.411C297.071 127.409 297.009 127.395 296.952 127.369C296.893 127.346 296.84 127.311 296.795 127.266C296.75 127.222 296.715 127.169 296.692 127.11C296.668 127.052 296.657 126.989 296.659 126.926C296.66 126.864 296.675 126.802 296.701 126.744C297.22 125.585 297.721 124.408 298.204 123.177C298.261 123.076 298.349 122.995 298.454 122.945V122.927V122.927ZM357.071 101.521C357.18 101.476 357.302 101.476 357.411 101.521C357.471 101.541 357.526 101.572 357.572 101.614C357.619 101.656 357.657 101.706 357.684 101.763C357.711 101.82 357.726 101.881 357.728 101.944C357.73 102.006 357.72 102.069 357.697 102.127C357.261 103.39 356.66 104.59 355.909 105.695C355.879 105.759 355.836 105.815 355.783 105.86C355.729 105.906 355.667 105.939 355.599 105.958C355.531 105.976 355.46 105.98 355.391 105.969C355.322 105.957 355.256 105.931 355.198 105.891C355.14 105.852 355.091 105.8 355.055 105.74C355.019 105.68 354.997 105.613 354.99 105.543C354.982 105.474 354.99 105.403 355.013 105.337C355.036 105.271 355.073 105.21 355.122 105.16C355.819 104.135 356.384 103.026 356.803 101.86C356.806 101.776 356.833 101.694 356.88 101.625C356.928 101.555 356.994 101.501 357.071 101.467V101.521V101.521ZM341.867 109.655C341.971 109.62 342.084 109.62 342.189 109.655C343.35 109.999 344.555 110.179 345.766 110.19C345.836 110.177 345.908 110.179 345.977 110.196C346.047 110.214 346.111 110.246 346.166 110.291C346.221 110.336 346.265 110.393 346.296 110.458C346.326 110.522 346.342 110.592 346.342 110.663C346.342 110.734 346.326 110.804 346.296 110.869C346.265 110.933 346.221 110.99 346.166 111.035C346.111 111.08 346.047 111.112 345.977 111.13C345.908 111.147 345.836 111.149 345.766 111.136C344.44 111.127 343.122 110.935 341.849 110.565C341.6 110.488 341.457 110.227 341.527 109.976C341.541 109.888 341.581 109.805 341.641 109.739C341.702 109.672 341.78 109.625 341.867 109.602V109.655V109.655ZM295.36 130.009C295.422 129.982 295.489 129.969 295.556 129.969C295.624 129.969 295.691 129.982 295.753 130.009C295.81 130.034 295.861 130.07 295.904 130.115C295.947 130.16 295.98 130.214 296.002 130.272C296.024 130.33 296.033 130.392 296.03 130.454C296.028 130.516 296.012 130.577 295.986 130.633C295.467 131.793 294.912 132.952 294.358 134.201C294.331 134.256 294.294 134.306 294.248 134.347C294.202 134.387 294.148 134.419 294.09 134.438C294.031 134.458 293.97 134.467 293.908 134.463C293.847 134.459 293.787 134.442 293.732 134.415C293.499 134.303 293.397 134.027 293.499 133.791C294.054 132.649 294.59 131.49 295.127 130.33C295.133 130.249 295.162 130.172 295.209 130.106C295.256 130.04 295.321 129.988 295.395 129.955L295.36 130.009ZM352.796 107.675C353.018 107.542 353.307 107.614 353.44 107.836C353.573 108.057 353.501 108.345 353.279 108.478C352.447 109.148 351.526 109.7 350.542 110.119L349.809 110.404C349.75 110.427 349.688 110.437 349.625 110.435C349.562 110.433 349.501 110.418 349.444 110.391C349.387 110.365 349.336 110.327 349.294 110.28C349.253 110.233 349.221 110.178 349.201 110.119C349.128 109.869 349.26 109.605 349.505 109.512L350.167 109.263C351.074 108.869 351.922 108.352 352.689 107.729L352.796 107.675V107.675ZM292.122 136.859C292.212 136.824 292.311 136.817 292.406 136.839C292.5 136.861 292.586 136.911 292.651 136.982C292.717 137.054 292.76 137.143 292.774 137.239C292.788 137.334 292.772 137.432 292.73 137.519C292.122 138.678 291.514 139.82 290.941 140.89C290.802 141.115 290.513 141.193 290.279 141.069C290.057 140.937 289.978 140.654 290.101 140.427C290.709 139.356 291.335 138.233 291.889 137.073C291.925 136.984 291.987 136.909 292.068 136.859H292.122V136.859ZM288.33 143.495C288.396 143.46 288.47 143.443 288.544 143.443C288.619 143.443 288.693 143.46 288.759 143.495C288.986 143.633 289.058 143.928 288.92 144.155C288.205 145.261 287.489 146.331 286.756 147.348C286.587 147.506 286.33 147.523 286.142 147.388C285.955 147.253 285.89 147.004 285.987 146.795C286.723 145.767 287.433 144.72 288.115 143.655C288.154 143.589 288.209 143.534 288.276 143.495H288.33V143.495ZM283.858 149.721C283.931 149.676 284.014 149.653 284.099 149.653C284.185 149.653 284.268 149.676 284.341 149.721C284.527 149.908 284.527 150.211 284.341 150.398C283.518 151.397 282.659 152.378 281.783 153.288C281.74 153.332 281.688 153.367 281.631 153.39C281.575 153.414 281.514 153.426 281.452 153.426C281.39 153.426 281.329 153.414 281.273 153.39C281.216 153.367 281.164 153.332 281.121 153.288C281.075 153.246 281.038 153.195 281.013 153.139C280.988 153.082 280.975 153.02 280.975 152.958C280.975 152.896 280.988 152.835 281.013 152.778C281.038 152.721 281.075 152.67 281.121 152.628C281.962 151.718 282.803 150.844 283.625 149.774C283.68 149.743 283.741 149.724 283.804 149.721H283.858V149.721ZM254.075 164.669C254.144 164.641 254.221 164.641 254.29 164.669C255.54 164.758 256.796 164.758 258.046 164.669C258.31 164.658 258.537 164.853 258.565 165.115C258.576 165.368 258.388 165.587 258.136 165.615C256.838 165.712 255.534 165.712 254.236 165.615C253.977 165.596 253.779 165.375 253.789 165.115C253.776 164.92 253.892 164.739 254.075 164.669ZM278.51 155.286C278.698 155.199 278.922 155.242 279.064 155.393C279.241 155.585 279.241 155.88 279.064 156.071C278.098 156.927 277.079 157.73 276.041 158.497C275.991 158.535 275.934 158.562 275.873 158.577C275.812 158.592 275.749 158.594 275.687 158.584C275.626 158.574 275.566 158.552 275.513 158.518C275.46 158.485 275.415 158.441 275.379 158.39C275.231 158.177 275.279 157.885 275.487 157.73C276.506 156.981 277.49 156.196 278.438 155.358L278.51 155.286H278.51ZM261.695 164.027H261.785C262.994 163.75 264.188 163.411 265.362 163.01C265.609 162.926 265.878 163.052 265.97 163.296C266.043 163.546 265.911 163.81 265.666 163.902C264.442 164.327 263.194 164.678 261.928 164.955C261.691 164.993 261.461 164.852 261.389 164.623C261.318 164.395 261.425 164.148 261.642 164.045L261.695 164.027ZM272.32 159.781C272.544 159.685 272.805 159.769 272.929 159.978C272.96 160.031 272.981 160.091 272.989 160.152C272.997 160.214 272.992 160.277 272.976 160.337C272.959 160.396 272.93 160.452 272.892 160.501C272.853 160.55 272.805 160.59 272.75 160.62C271.641 161.28 270.478 161.904 269.333 162.404C269.276 162.433 269.214 162.451 269.149 162.455C269.085 162.46 269.021 162.451 268.96 162.429C268.9 162.407 268.844 162.373 268.798 162.329C268.751 162.284 268.714 162.231 268.689 162.172C268.587 161.935 268.689 161.66 268.922 161.547C270.049 161.012 271.176 160.424 272.267 159.764L272.32 159.781Z" fill="#F7644E"/>
<path d="M248.352 163.635C248.456 163.598 248.57 163.598 248.674 163.635C249.262 163.82 249.859 163.975 250.463 164.098C250.684 164.187 250.808 164.422 250.754 164.654C250.701 164.885 250.486 165.043 250.248 165.026L248.37 164.544C248.281 164.508 248.205 164.446 248.151 164.367C248.098 164.288 248.069 164.194 248.069 164.098C248.069 164.003 248.098 163.909 248.151 163.83C248.205 163.75 248.281 163.689 248.37 163.652L248.352 163.635V163.635Z" fill="#D5EBF6"/>
<path d="M365.765 0.964963L357.644 6.31652L348.575 2.74881C348.486 2.70772 348.386 2.69402 348.288 2.70942C348.191 2.72482 348.1 2.76864 348.027 2.83537C347.954 2.9021 347.903 2.98875 347.88 3.08444C347.856 3.18013 347.862 3.28058 347.896 3.37316L350.525 12.7384L344.282 20.1771C344.218 20.251 344.176 20.3415 344.161 20.4383C344.146 20.535 344.159 20.6339 344.199 20.7236C344.238 20.8132 344.302 20.8899 344.383 20.9448C344.465 20.9996 344.56 21.0303 344.658 21.0333L354.407 21.4258L359.612 29.6493C359.662 29.7325 359.736 29.7998 359.823 29.8434C359.91 29.8871 360.008 29.9053 360.105 29.8959C360.202 29.8866 360.295 29.8502 360.372 29.7908C360.449 29.7314 360.508 29.6514 360.542 29.5601L363.923 20.4268L373.385 18.0364C373.48 18.0172 373.568 17.9708 373.637 17.903C373.706 17.8351 373.754 17.7487 373.774 17.6543C373.795 17.5599 373.788 17.4614 373.754 17.3709C373.72 17.2804 373.66 17.2018 373.582 17.1445L365.926 11.0972L366.57 1.39307C366.569 1.29988 366.544 1.20858 366.495 1.12882C366.447 1.04906 366.378 0.983807 366.295 0.93995C366.213 0.896094 366.12 0.875266 366.027 0.879667C365.933 0.884067 365.843 0.913534 365.765 0.964953V0.964963Z" fill="#E66D57"/>
<path d="M60.927 181.99C60.8454 181.961 60.7729 181.911 60.7164 181.846C60.66 181.78 60.6216 181.701 60.6051 181.616C60.4977 180.992 60.4262 180.331 60.3725 179.689C60.3616 179.436 60.5492 179.218 60.8018 179.19C61.0624 179.169 61.2923 179.359 61.3206 179.618C61.3206 180.242 61.4458 180.867 61.5352 181.402C61.5481 181.463 61.5478 181.526 61.5346 181.588C61.5213 181.649 61.4952 181.706 61.4581 181.757C61.421 181.807 61.3736 181.85 61.3191 181.881C61.2646 181.912 61.2041 181.931 61.1417 181.937C61.0758 181.972 61.002 181.991 60.927 181.99Z" fill="#D5EBF6"/>
<path d="M176.945 261.372C176.724 261.304 176.586 261.083 176.623 260.855C176.767 259.606 176.91 258.357 177.035 257.091C177.039 257.028 177.056 256.967 177.085 256.911C177.114 256.855 177.154 256.806 177.202 256.766C177.251 256.726 177.307 256.696 177.367 256.678C177.428 256.661 177.491 256.655 177.554 256.663C177.809 256.699 177.995 256.923 177.983 257.18C177.858 258.446 177.715 259.713 177.572 260.98C177.534 261.239 177.296 261.422 177.035 261.39L176.945 261.372ZM177.679 253.791C177.467 253.731 177.331 253.527 177.357 253.309C177.446 252.06 177.518 250.794 177.572 249.527C177.591 249.268 177.812 249.071 178.072 249.081C178.135 249.083 178.197 249.098 178.253 249.125C178.31 249.151 178.361 249.189 178.403 249.236C178.445 249.282 178.476 249.337 178.497 249.396C178.517 249.456 178.524 249.518 178.52 249.581C178.52 250.841 178.448 252.108 178.305 253.38C178.3 253.444 178.283 253.505 178.255 253.562C178.226 253.619 178.187 253.669 178.139 253.711C178.09 253.752 178.034 253.784 177.974 253.804C177.913 253.823 177.85 253.831 177.786 253.826L177.679 253.791V253.791ZM178.037 246.209C177.837 246.145 177.705 245.955 177.715 245.745V241.964C177.715 241.698 177.931 241.482 178.198 241.482C178.454 241.49 178.662 241.691 178.681 241.946V245.763C178.671 246.022 178.457 246.227 178.198 246.227L178.037 246.209ZM178.037 238.61C177.942 238.578 177.859 238.518 177.798 238.439C177.738 238.359 177.702 238.264 177.697 238.164C177.697 236.897 177.607 235.649 177.536 234.382C177.522 234.312 177.524 234.241 177.542 234.172C177.559 234.103 177.592 234.039 177.637 233.984C177.682 233.929 177.739 233.885 177.804 233.854C177.868 233.824 177.938 233.808 178.01 233.808C178.081 233.808 178.151 233.824 178.216 233.854C178.28 233.885 178.337 233.929 178.383 233.984C178.428 234.039 178.46 234.103 178.478 234.172C178.495 234.241 178.497 234.312 178.484 234.382C178.484 235.649 178.609 236.915 178.663 238.2C178.663 238.459 178.457 238.672 178.198 238.681L178.037 238.61ZM177.572 231.011C177.485 230.984 177.409 230.932 177.352 230.862C177.295 230.793 177.259 230.708 177.25 230.618C177.142 229.352 176.999 228.103 176.856 226.837C176.849 226.776 176.853 226.714 176.87 226.655C176.887 226.595 176.915 226.54 176.953 226.492C176.992 226.444 177.039 226.404 177.093 226.374C177.147 226.345 177.206 226.326 177.267 226.319C177.528 226.287 177.767 226.47 177.804 226.73C177.947 227.996 178.072 229.263 178.198 230.529C178.209 230.786 178.024 231.01 177.768 231.046C177.678 231.07 177.581 231.057 177.5 231.011H177.572V231.011ZM176.659 223.465C176.578 223.436 176.505 223.386 176.449 223.32C176.392 223.254 176.354 223.175 176.337 223.09C176.158 221.842 175.944 220.593 175.711 219.362C175.667 219.107 175.833 218.863 176.087 218.809C176.148 218.796 176.211 218.796 176.273 218.808C176.334 218.82 176.392 218.844 176.444 218.879C176.496 218.914 176.54 218.959 176.574 219.011C176.608 219.064 176.631 219.122 176.641 219.184C176.874 220.433 177.089 221.699 177.285 222.948C177.295 223.009 177.293 223.071 177.279 223.131C177.265 223.191 177.238 223.248 177.202 223.298C177.165 223.348 177.119 223.39 177.065 223.422C177.012 223.453 176.953 223.474 176.892 223.483C176.853 223.51 176.809 223.529 176.763 223.538C176.717 223.547 176.669 223.547 176.623 223.536L176.659 223.465V223.465ZM42.7896 176.318C42.5867 176.247 42.4554 176.05 42.4676 175.836C42.5605 174.545 42.7519 173.263 43.04 172.001C43.0527 171.941 43.0772 171.884 43.112 171.834C43.1468 171.784 43.1913 171.741 43.2428 171.707C43.2943 171.674 43.3519 171.652 43.4123 171.641C43.4727 171.63 43.5346 171.631 43.5945 171.644C43.6568 171.657 43.716 171.682 43.7686 171.717C43.8213 171.753 43.8664 171.799 43.9013 171.852C43.9362 171.905 43.9602 171.964 43.972 172.026C43.9839 172.089 43.9832 172.153 43.9701 172.215C43.6639 173.427 43.4546 174.662 43.3441 175.908C43.3395 175.968 43.323 176.028 43.2953 176.083C43.2677 176.137 43.2295 176.186 43.1829 176.225C43.1364 176.265 43.0824 176.295 43.0241 176.314C42.9658 176.333 42.9043 176.341 42.8432 176.336L42.7896 176.318V176.318ZM175.246 216.009C175.165 215.984 175.092 215.938 175.035 215.875C174.979 215.812 174.94 215.735 174.924 215.652C174.656 214.421 174.352 213.172 174.048 211.977C173.979 211.721 174.131 211.458 174.388 211.388C174.45 211.372 174.515 211.369 174.578 211.378C174.642 211.388 174.703 211.41 174.758 211.443C174.813 211.476 174.861 211.52 174.898 211.572C174.936 211.624 174.963 211.683 174.978 211.745C175.282 212.958 175.586 214.207 175.854 215.456C175.867 215.515 175.869 215.577 175.858 215.637C175.847 215.697 175.824 215.755 175.791 215.806C175.758 215.858 175.714 215.902 175.664 215.937C175.613 215.971 175.557 215.996 175.497 216.009C175.414 216.026 175.329 216.026 175.246 216.009H175.246ZM78.3319 181.741C77.1632 181.352 76.0642 180.78 75.0764 180.046C75.0326 180.003 74.9978 179.952 74.9741 179.895C74.9503 179.838 74.9381 179.777 74.9381 179.716C74.9381 179.655 74.9503 179.594 74.9741 179.537C74.9978 179.481 75.0326 179.429 75.0764 179.386C75.2322 179.179 75.5247 179.131 75.7382 179.279C76.6362 179.955 77.6393 180.479 78.7076 180.831L78.9759 180.92C79.2135 181.011 79.3498 181.26 79.2978 181.509C79.2204 181.757 78.959 181.899 78.7076 181.83L78.3319 181.741ZM82.3924 182.133C82.3088 182.107 82.2343 182.058 82.1773 181.992C82.1203 181.926 82.0833 181.845 82.0704 181.759C82.0575 181.699 82.0572 181.637 82.0694 181.577C82.0816 181.517 82.1061 181.46 82.1413 181.409C82.1766 181.359 82.2218 181.317 82.2742 181.285C82.3267 181.253 82.3852 181.232 82.446 181.223C83.6485 181.059 84.8048 180.652 85.8447 180.028C85.8975 179.996 85.9561 179.975 86.0172 179.966C86.0782 179.957 86.1404 179.96 86.2003 179.975C86.2602 179.99 86.3165 180.016 86.3661 180.053C86.4157 180.09 86.4576 180.136 86.4893 180.188C86.5211 180.241 86.5421 180.3 86.5511 180.36C86.5602 180.421 86.5571 180.483 86.5421 180.543C86.5271 180.603 86.5004 180.659 86.4636 180.708C86.4268 180.758 86.3806 180.799 86.3276 180.831C85.199 181.523 83.9378 181.973 82.6249 182.151C82.5471 182.163 82.4674 182.157 82.3924 182.133V182.133ZM44.4352 168.915C44.1912 168.823 44.0645 168.554 44.149 168.308C44.6052 167.082 45.1492 165.889 45.7768 164.741C45.9028 164.512 46.1882 164.425 46.4207 164.544C46.6432 164.676 46.7221 164.959 46.5996 165.187C46.0087 166.282 45.4889 167.414 45.0434 168.576C45.0322 168.642 45.0064 168.704 44.9678 168.758C44.9293 168.813 44.879 168.858 44.8206 168.891C44.7623 168.923 44.6974 168.942 44.6307 168.946C44.564 168.951 44.4972 168.94 44.4352 168.915V168.915ZM72.5543 177.424C72.4554 177.399 72.3674 177.343 72.3039 177.263C71.5198 176.177 70.9158 174.973 70.5151 173.696C70.4957 173.637 70.4882 173.575 70.493 173.514C70.4979 173.452 70.5149 173.392 70.5432 173.338C70.5716 173.283 70.6105 173.234 70.6579 173.194C70.7053 173.155 70.7601 173.125 70.8192 173.107C71.071 173.024 71.3424 173.16 71.4274 173.41C71.794 174.569 72.35 175.66 73.073 176.639C73.1106 176.689 73.1377 176.746 73.1527 176.806C73.1677 176.867 73.1703 176.93 73.1602 176.992C73.1502 177.053 73.1278 177.112 73.0944 177.165C73.061 177.218 73.0172 177.263 72.9657 177.299C72.9167 177.357 72.8517 177.4 72.7786 177.422C72.7056 177.445 72.6276 177.445 72.5543 177.424V177.424ZM173.35 208.641C173.277 208.617 173.21 208.575 173.157 208.519C173.104 208.463 173.066 208.395 173.046 208.32C172.688 207.107 172.295 205.894 171.901 204.752C171.819 204.501 171.954 204.231 172.205 204.146C172.264 204.127 172.326 204.119 172.388 204.124C172.449 204.129 172.509 204.146 172.564 204.174C172.619 204.202 172.668 204.241 172.708 204.288C172.747 204.336 172.777 204.39 172.796 204.449C173.207 205.644 173.601 206.875 173.958 208.017C174.028 208.268 173.885 208.528 173.636 208.606C173.549 208.653 173.447 208.666 173.35 208.641V208.641ZM88.7961 178.316L88.6351 178.227C88.4602 178.041 88.4602 177.752 88.6351 177.566C89.3895 176.618 89.9928 175.559 90.4239 174.427C90.5302 174.188 90.8032 174.072 91.0499 174.159C91.1079 174.181 91.1609 174.214 91.2059 174.256C91.2509 174.299 91.287 174.35 91.3119 174.406C91.3369 174.463 91.3504 174.524 91.3514 174.585C91.3525 174.647 91.3412 174.709 91.3182 174.766C90.8287 175.991 90.153 177.135 89.3148 178.155C89.2149 178.341 89.0018 178.436 88.7961 178.387V178.316L88.7961 178.316ZM70.2647 170.235C70.0674 170.178 69.9345 169.994 69.9427 169.789C69.9392 168.481 70.1137 167.179 70.4615 165.918C70.476 165.858 70.5025 165.801 70.5394 165.751C70.5763 165.702 70.6227 165.66 70.676 165.628C70.7294 165.597 70.7885 165.576 70.85 165.568C70.9114 165.559 70.9739 165.563 71.0339 165.579C71.0955 165.591 71.1538 165.616 71.2051 165.652C71.2564 165.688 71.2994 165.735 71.3315 165.789C71.3636 165.843 71.3839 165.903 71.3912 165.965C71.3984 166.027 71.3925 166.09 71.3737 166.15C71.0635 167.314 70.9012 168.513 70.8908 169.718C70.8908 169.984 70.6745 170.199 70.4078 170.199L70.2647 170.235ZM48.0664 162.19H47.9412C47.8897 162.154 47.8459 162.109 47.8124 162.056C47.779 162.003 47.7566 161.944 47.7466 161.882C47.7366 161.821 47.7391 161.758 47.7541 161.697C47.7691 161.637 47.7962 161.58 47.8338 161.53C48.6128 160.498 49.4614 159.521 50.3738 158.604C50.5659 158.447 50.8461 158.461 51.0218 158.636C51.1974 158.811 51.2112 159.091 51.0536 159.282C50.1667 160.159 49.3475 161.101 48.603 162.1C48.4767 162.263 48.2613 162.327 48.0664 162.261V162.19V162.19ZM170.917 201.434C170.851 201.413 170.79 201.375 170.74 201.326C170.69 201.276 170.653 201.216 170.631 201.149C170.184 199.972 169.701 198.794 169.218 197.581C169.192 197.524 169.177 197.462 169.176 197.399C169.174 197.337 169.186 197.274 169.209 197.216C169.232 197.157 169.267 197.104 169.312 197.06C169.357 197.015 169.41 196.98 169.469 196.957C169.526 196.931 169.588 196.916 169.651 196.915C169.714 196.913 169.777 196.925 169.835 196.948C169.894 196.971 169.947 197.006 169.992 197.051C170.036 197.095 170.071 197.148 170.095 197.207C170.578 198.366 171.061 199.561 171.526 200.774C171.61 201.021 171.483 201.289 171.239 201.381C171.141 201.434 171.028 201.453 170.917 201.434V201.434ZM91.6402 171.43C91.434 171.36 91.2966 171.166 91.3003 170.948C91.345 170.432 91.345 169.913 91.3003 169.396C91.2578 168.695 91.1621 167.997 91.0141 167.309C90.9581 167.054 91.117 166.8 91.3719 166.739C91.6265 166.692 91.8746 166.847 91.9443 167.095C92.107 167.835 92.2087 168.587 92.2484 169.343C92.293 169.901 92.293 170.462 92.2484 171.02C92.2463 171.082 92.2314 171.142 92.2046 171.198C92.1778 171.254 92.1396 171.304 92.0925 171.344C92.0454 171.384 91.9904 171.414 91.931 171.432C91.8716 171.45 91.8091 171.455 91.7475 171.448L91.6402 171.43V171.43ZM168.002 194.442C167.939 194.424 167.88 194.392 167.831 194.349C167.781 194.306 167.742 194.252 167.716 194.192C167.179 193.05 166.607 191.909 166.016 190.821C165.973 190.765 165.943 190.701 165.928 190.633C165.912 190.564 165.912 190.493 165.926 190.425C165.941 190.356 165.971 190.292 166.013 190.236C166.056 190.18 166.11 190.134 166.172 190.101C166.234 190.068 166.302 190.049 166.372 190.045C166.443 190.042 166.513 190.053 166.578 190.079C166.643 190.105 166.702 190.145 166.75 190.196C166.798 190.247 166.835 190.308 166.857 190.375C167.447 191.481 168.02 192.64 168.646 193.8C168.673 193.856 168.688 193.916 168.691 193.979C168.693 194.041 168.684 194.103 168.662 194.161C168.64 194.219 168.607 194.272 168.564 194.318C168.522 194.363 168.47 194.399 168.413 194.424C168.345 194.469 168.265 194.495 168.183 194.498C168.101 194.501 168.02 194.482 167.948 194.442H168.002V194.442ZM72.1608 163.028C71.9317 162.902 71.8445 162.618 71.964 162.386C72.5786 161.242 73.3035 160.161 74.1284 159.157C74.1637 159.097 74.2117 159.045 74.2692 159.005C74.3268 158.964 74.3923 158.937 74.4614 158.925C74.5305 158.913 74.6014 158.916 74.6692 158.934C74.737 158.952 74.8001 158.984 74.8541 159.029C74.9081 159.073 74.9517 159.129 74.9819 159.192C75.012 159.255 75.028 159.324 75.0288 159.394C75.0295 159.464 75.0149 159.534 74.9861 159.597C74.9572 159.661 74.9148 159.718 74.8618 159.764C74.051 160.732 73.338 161.778 72.7332 162.885C72.6009 163.063 72.3613 163.123 72.1608 163.028V163.028ZM53.4505 156.927C53.3583 156.89 53.278 156.828 53.2179 156.749C53.1803 156.699 53.1532 156.642 53.1382 156.581C53.1233 156.521 53.1207 156.458 53.1307 156.396C53.1407 156.334 53.1631 156.276 53.1966 156.223C53.23 156.17 53.2738 156.124 53.3253 156.089L54.3449 155.393C55.0813 154.909 55.8458 154.468 56.6345 154.073C56.867 153.954 57.1524 154.041 57.2784 154.269C57.3854 154.507 57.292 154.786 57.0637 154.912C56.3125 155.304 55.5612 155.732 54.8636 156.178C54.5237 156.392 54.2018 156.624 53.8798 156.856C53.8177 156.898 53.7471 156.926 53.673 156.939C53.5989 156.951 53.523 156.947 53.4505 156.927H53.4505ZM90.0124 164.063C89.9514 164.046 89.8945 164.016 89.8453 163.976C89.7961 163.936 89.7556 163.887 89.7262 163.831C89.1692 162.729 88.4978 161.689 87.7229 160.727C87.5364 160.539 87.5364 160.237 87.7229 160.049C87.7718 160.011 87.828 159.982 87.8881 159.966C87.9482 159.95 88.011 159.946 88.0727 159.954C88.1344 159.962 88.1938 159.983 88.2474 160.015C88.301 160.046 88.3477 160.088 88.3847 160.138C89.1954 161.154 89.9024 162.247 90.4954 163.403C90.6024 163.64 90.509 163.919 90.2808 164.045C90.1975 164.085 90.1034 164.098 90.0124 164.081V164.063V164.063ZM164.388 187.699C164.335 187.681 164.285 187.653 164.242 187.617C164.199 187.58 164.164 187.535 164.138 187.485C163.673 186.718 163.208 185.933 162.725 185.166C162.546 184.862 162.349 184.559 162.153 184.256C162.12 184.204 162.097 184.147 162.086 184.087C162.076 184.026 162.077 183.965 162.09 183.905C162.103 183.845 162.128 183.789 162.163 183.739C162.199 183.689 162.243 183.646 162.295 183.613C162.347 183.58 162.405 183.558 162.465 183.547C162.525 183.537 162.587 183.538 162.647 183.551C162.707 183.565 162.764 183.59 162.814 183.625C162.864 183.66 162.907 183.705 162.94 183.756C163.154 184.06 163.333 184.363 163.53 184.666C164.013 185.451 164.496 186.218 164.943 187.003C164.978 187.056 165.002 187.116 165.013 187.179C165.024 187.242 165.022 187.306 165.007 187.368C164.992 187.43 164.964 187.488 164.925 187.539C164.886 187.59 164.838 187.632 164.782 187.663C164.724 187.698 164.658 187.721 164.591 187.73C164.523 187.74 164.454 187.735 164.388 187.717V187.699ZM60.2119 153.484C60.1436 153.457 60.0814 153.416 60.0292 153.363C59.977 153.311 59.9357 153.249 59.9079 153.181C59.835 152.931 59.9674 152.667 60.2119 152.575C61.4455 152.174 62.707 151.864 63.9862 151.647C64.0463 151.634 64.1084 151.634 64.1687 151.646C64.2289 151.658 64.286 151.683 64.3364 151.718C64.3867 151.753 64.4293 151.798 64.4613 151.85C64.4934 151.903 64.5144 151.961 64.5228 152.022C64.5358 152.083 64.5362 152.146 64.5242 152.207C64.5122 152.268 64.4879 152.326 64.4529 152.378C64.4178 152.429 64.3727 152.473 64.3201 152.507C64.2676 152.541 64.2088 152.564 64.1472 152.575C62.9339 152.79 61.7381 153.094 60.5697 153.484C60.5133 153.509 60.4524 153.522 60.3908 153.522C60.3293 153.522 60.2684 153.509 60.2119 153.484V153.484ZM76.9725 157.195C76.8884 157.169 76.8138 157.12 76.7578 157.052C76.5714 156.864 76.5714 156.562 76.7578 156.374C77.7682 155.558 78.8385 154.819 79.9597 154.162C80.0135 154.131 80.073 154.11 80.1349 154.102C80.1967 154.094 80.2595 154.099 80.3196 154.115C80.3796 154.132 80.4357 154.161 80.4846 154.199C80.5334 154.238 80.5739 154.286 80.6036 154.341C80.7293 154.563 80.6587 154.845 80.4427 154.983C79.3606 155.605 78.3316 156.315 77.366 157.106C77.3113 157.149 77.2476 157.18 77.1795 157.195C77.1113 157.211 77.0406 157.21 76.9725 157.195V157.195ZM85.3259 158.158C85.2574 158.14 85.1953 158.103 85.147 158.051C84.3408 157.35 83.486 156.706 82.5892 156.125L82.1599 155.857C82.1041 155.826 82.0554 155.784 82.0167 155.733C81.9781 155.682 81.9503 155.624 81.9352 155.562C81.9201 155.5 81.9179 155.436 81.9289 155.373C81.9399 155.31 81.9637 155.25 81.9989 155.197C82.1434 154.979 82.4319 154.909 82.6607 155.036L83.1079 155.322C84.0475 155.932 84.944 156.605 85.791 157.338C85.9624 157.488 86.0046 157.738 85.8922 157.936C85.7799 158.134 85.5436 158.227 85.3259 158.158H85.3259ZM67.7068 152.182C67.6133 152.154 67.5308 152.097 67.4701 152.021C67.4095 151.944 67.3735 151.851 67.3669 151.754C67.3663 151.492 67.5694 151.273 67.832 151.255C69.1217 151.213 70.4127 151.26 71.6957 151.397C71.7585 151.402 71.8198 151.419 71.8758 151.448C71.9317 151.476 71.9813 151.516 72.0214 151.564C72.0616 151.613 72.0915 151.669 72.1093 151.729C72.1271 151.789 72.1324 151.852 72.125 151.915C72.1206 151.977 72.1035 152.038 72.0747 152.094C72.0459 152.15 72.0061 152.2 71.9576 152.24C71.9091 152.28 71.8529 152.309 71.7925 152.327C71.7321 152.345 71.6688 152.35 71.6063 152.343C70.3651 152.206 69.1158 152.159 67.8678 152.2L67.7068 152.182ZM160.256 181.348C160.162 181.315 160.08 181.253 160.024 181.17C159.291 180.171 158.521 179.154 157.734 178.173C157.557 177.982 157.557 177.687 157.734 177.495C157.783 177.457 157.84 177.429 157.9 177.412C157.96 177.396 158.022 177.392 158.084 177.4C158.146 177.408 158.205 177.429 158.259 177.461C158.313 177.492 158.359 177.534 158.396 177.584C159.201 178.583 159.988 179.6 160.722 180.617C160.872 180.835 160.825 181.133 160.614 181.295C160.56 181.324 160.5 181.342 160.439 181.348C160.378 181.355 160.316 181.348 160.256 181.33V181.348V181.348ZM78.8686 154.18C77.7016 153.714 76.5068 153.321 75.2911 153.003C75.0392 152.939 74.887 152.683 74.9512 152.432C75.0154 152.181 75.2717 152.029 75.5236 152.093C76.7772 152.417 78.0081 152.822 79.2084 153.306C79.4409 153.419 79.5494 153.689 79.4588 153.93C79.3477 154.144 79.0958 154.243 78.8686 154.162V154.18V154.18ZM83.5193 153.36C83.4527 153.339 83.3913 153.304 83.3389 153.258C83.2865 153.212 83.2444 153.155 83.2152 153.092C83.1247 152.851 83.2332 152.58 83.4656 152.468C84.6354 151.974 85.8295 151.539 87.0431 151.165C87.2946 151.096 87.5559 151.238 87.6334 151.487C87.7032 151.737 87.5606 151.998 87.3114 152.075C86.0972 152.434 84.903 152.856 83.7339 153.342C83.6629 153.353 83.5904 153.353 83.5193 153.342V153.36V153.36ZM155.498 175.372C155.419 175.348 155.35 175.298 155.302 175.23C154.479 174.302 153.513 173.357 152.726 172.465C152.539 172.277 152.539 171.975 152.726 171.787C152.769 171.743 152.821 171.708 152.877 171.685C152.934 171.661 152.995 171.649 153.057 171.649C153.118 171.649 153.179 171.661 153.236 171.685C153.293 171.708 153.344 171.743 153.388 171.787C154.282 172.697 155.176 173.571 155.999 174.587C156.177 174.779 156.177 175.074 155.999 175.265C155.934 175.328 155.853 175.372 155.764 175.391C155.676 175.409 155.584 175.403 155.498 175.372V175.372ZM90.7816 151.112C90.7047 151.083 90.6364 151.035 90.5831 150.973C90.5299 150.91 90.4936 150.836 90.4775 150.755C90.4644 150.695 90.4632 150.634 90.4741 150.573C90.485 150.513 90.5077 150.456 90.541 150.404C90.5742 150.353 90.6174 150.309 90.6679 150.274C90.7184 150.239 90.7753 150.215 90.8353 150.202L91.2288 150.113C92.3557 149.881 93.4826 149.685 94.6274 149.524C94.8825 149.492 95.1185 149.664 95.164 149.917C95.1966 150.181 95.0156 150.424 94.7526 150.47C93.6436 150.612 92.5167 150.809 91.4255 151.041L91.032 151.13C90.9482 151.142 90.8628 151.136 90.7816 151.112H90.7816ZM150.204 170.021C150.135 170.003 150.073 169.966 150.025 169.914C149.113 169.058 148.236 168.13 147.199 167.399C147.014 167.222 147 166.932 147.166 166.738C147.332 166.544 147.621 166.513 147.825 166.667C148.791 167.488 149.739 168.344 150.687 169.218C150.864 169.409 150.864 169.705 150.687 169.896C150.625 169.959 150.548 170.003 150.463 170.025C150.378 170.047 150.288 170.046 150.204 170.021ZM98.3301 150.131C98.2412 150.097 98.1638 150.039 98.1068 149.963C98.0497 149.888 98.0155 149.797 98.0081 149.703C97.9972 149.449 98.1848 149.231 98.4374 149.203C99.7074 149.203 100.995 149.061 102.283 149.043C102.353 149.029 102.425 149.031 102.494 149.049C102.563 149.066 102.628 149.098 102.683 149.144C102.738 149.189 102.782 149.246 102.813 149.31C102.843 149.374 102.859 149.444 102.859 149.515C102.859 149.586 102.843 149.657 102.813 149.721C102.782 149.785 102.738 149.842 102.683 149.887C102.628 149.932 102.563 149.965 102.494 149.982C102.425 150 102.353 150.002 102.283 149.988C101.031 149.988 99.7611 149.988 98.509 150.149L98.3301 150.131V150.131ZM144.408 165.097L144.265 165.008C143.263 164.241 142.244 163.492 141.206 162.778C141.155 162.743 141.111 162.697 141.078 162.645C141.044 162.592 141.022 162.533 141.012 162.471C141.002 162.409 141.004 162.346 141.019 162.286C141.034 162.225 141.061 162.168 141.099 162.118C141.249 161.905 141.543 161.849 141.761 161.993C142.798 162.725 143.836 163.492 144.837 164.259C145.013 164.402 145.065 164.649 144.962 164.851C144.858 165.053 144.628 165.155 144.408 165.097V165.097ZM138.148 160.656H138.04C136.967 159.996 135.876 159.336 134.785 158.729C134.713 158.688 134.652 158.629 134.61 158.558C134.568 158.487 134.545 158.406 134.545 158.323C134.544 158.24 134.565 158.159 134.606 158.087C134.647 158.015 134.706 157.955 134.777 157.913C134.849 157.871 134.93 157.848 135.013 157.847C135.096 157.847 135.178 157.868 135.25 157.908C136.359 158.515 137.468 159.175 138.541 159.853C138.761 159.997 138.825 160.291 138.684 160.513C138.557 160.673 138.338 160.731 138.148 160.656V160.656ZM105.95 149.952C105.746 149.894 105.611 149.7 105.628 149.489C105.63 149.426 105.645 149.365 105.672 149.308C105.699 149.251 105.736 149.201 105.783 149.159C105.83 149.117 105.885 149.086 105.944 149.066C106.004 149.046 106.066 149.038 106.129 149.043C107.381 149.043 108.669 149.221 109.939 149.382C110.009 149.379 110.078 149.391 110.143 149.417C110.208 149.443 110.266 149.483 110.313 149.534C110.361 149.585 110.397 149.646 110.419 149.712C110.441 149.778 110.448 149.848 110.44 149.917C110.432 149.986 110.41 150.053 110.373 150.112C110.337 150.172 110.289 150.223 110.231 150.262C110.173 150.301 110.107 150.327 110.038 150.338C109.97 150.349 109.899 150.346 109.832 150.327C108.58 150.166 107.31 150.059 106.075 149.988L105.95 149.952H105.95ZM131.511 156.927C130.384 156.374 129.222 155.839 128.077 155.34C127.844 155.227 127.736 154.957 127.827 154.715C127.939 154.483 128.211 154.375 128.453 154.466C129.615 154.983 130.796 155.518 131.941 156.089C131.996 156.116 132.046 156.153 132.087 156.199C132.127 156.245 132.159 156.298 132.179 156.356C132.199 156.414 132.207 156.476 132.203 156.537C132.199 156.598 132.183 156.658 132.155 156.713C132.128 156.771 132.09 156.822 132.043 156.865C131.996 156.908 131.941 156.941 131.882 156.963C131.822 156.984 131.758 156.994 131.695 156.991C131.631 156.988 131.569 156.972 131.511 156.945V156.927ZM113.517 150.88C113.287 150.811 113.148 150.579 113.195 150.345C113.24 150.084 113.488 149.909 113.749 149.952C114.983 150.184 116.253 150.452 117.488 150.773C117.547 150.787 117.604 150.813 117.654 150.849C117.704 150.884 117.746 150.93 117.779 150.982C117.811 151.034 117.833 151.092 117.843 151.153C117.853 151.213 117.85 151.275 117.836 151.335C117.822 151.395 117.797 151.451 117.761 151.501C117.725 151.551 117.679 151.593 117.627 151.625C117.575 151.658 117.516 151.679 117.456 151.689C117.395 151.699 117.333 151.697 117.273 151.683C116.039 151.38 114.804 151.112 113.57 150.898L113.517 150.88ZM124.517 153.913C123.337 153.467 122.138 153.056 120.94 152.7C120.695 152.608 120.563 152.343 120.636 152.093C120.654 152.034 120.684 151.979 120.724 151.932C120.763 151.885 120.812 151.846 120.867 151.818C120.922 151.79 120.982 151.773 121.044 151.768C121.105 151.763 121.167 151.77 121.226 151.79C122.442 152.164 123.659 152.575 124.804 153.021C124.863 153.041 124.918 153.072 124.965 153.114C125.012 153.156 125.05 153.206 125.077 153.263C125.103 153.32 125.118 153.381 125.121 153.444C125.123 153.506 125.112 153.569 125.09 153.627C125.02 153.874 124.768 154.023 124.517 153.966V153.913Z" fill="#F7644E"/>
<path d="M194.027 267.098C193.806 267.03 193.668 266.809 193.705 266.581C193.813 265.956 193.902 265.332 193.991 264.797C193.991 264.728 194.005 264.66 194.033 264.597C194.061 264.534 194.102 264.477 194.154 264.431C194.206 264.386 194.267 264.352 194.333 264.331C194.399 264.311 194.469 264.306 194.538 264.315C194.606 264.324 194.672 264.347 194.731 264.384C194.789 264.42 194.839 264.469 194.877 264.527C194.916 264.584 194.941 264.649 194.952 264.718C194.962 264.786 194.958 264.855 194.939 264.922C194.85 265.546 194.743 266.188 194.653 266.813C194.608 267.065 194.372 267.238 194.117 267.205L194.027 267.098V267.098Z" fill="#D5EBF6"/>
<path d="M48.7098 185.683C43.6119 177.674 32.3428 176.764 24.8837 181.901C21.2357 184.706 18.1114 188.13 15.6538 192.016C10.699 199.775 11.5397 212.066 19.4996 217.685C27.7278 223.483 39.1758 218.809 45.2397 212.013C51.3035 205.216 54.0761 193.96 48.7098 185.683Z" fill="#E66D57"/>
<path d="M241.465 342.912C246.062 360.429 249.962 376.805 255.113 392.057C261.123 377.465 280.388 351.189 298.973 362.178C321.493 375.503 321.941 405.347 314.625 419.261C320.742 414.926 322.924 411.679 329.668 414.962C336.498 418.393 340.981 425.188 341.438 432.8C353.625 424.849 369.343 424.72 381.66 432.47C393.977 440.22 400.627 454.424 398.678 468.816L94.1082 469.708C83.5188 465.944 79.0649 451.727 84.0912 441.702C89.1176 431.677 95.9864 429.91 107.148 431.32C118.31 432.729 128.613 441.88 135.553 450.657C123.712 447.856 112.657 429.054 114.84 417.102C118.775 395.696 132.244 386.973 145.588 383.905C163.941 379.695 176.73 387.062 185.477 405.115C182.113 399.398 182.303 392.271 185.967 386.741C189.631 381.21 196.132 378.241 202.724 379.087C209.317 379.932 214.853 384.444 216.995 390.719L227.084 343.055L241.465 342.912V342.912Z" fill="#66BAFB"/>
<path d="M353.387 469.084C356.178 458.274 350.704 450.692 341.886 444.003C332.774 437.312 320.525 436.728 310.815 442.522C315.695 432.364 313.153 420.205 304.608 412.839C295.752 406.038 283.351 406.267 274.754 413.392C274.766 407.359 270.493 402.163 264.558 400.994C258.576 400.28 252.932 403.915 251.125 409.646L239.587 343.643H230.966L218.444 411.965C213.507 407.041 199.931 405.275 193.849 408.611C187.607 412.233 184.305 419.362 185.585 426.45C183.8 422.29 179.261 420.027 174.853 421.098C170.49 422.474 167.73 426.755 168.288 431.284C163.709 422.953 152.404 419.85 143.657 423.382C134.91 426.914 129.043 435.869 127.558 445.341C126.003 453.708 127.434 462.354 131.601 469.78L353.387 469.084V469.084Z" fill="#A6E5FF"/>
<path d="M289.671 106.016C273.233 74.9949 232.682 40.4952 232.682 40.4952C232.682 40.4952 192.686 75.6193 176.748 106.908C166.463 127.066 156.785 147.937 160.81 191.944C164.745 234.971 188.786 280.299 203.74 307.36L234.811 307.128L265.881 306.878C280.388 279.585 303.695 233.865 307.022 190.803C310.278 146.831 300.261 126.013 289.671 106.016V106.016Z" fill="#FFC8C1"/>
<path d="M257.278 313.46L212.72 313.817L210.145 307.324L259.46 306.932L257.278 313.46Z" fill="#0072E6"/>
<path d="M217.236 313.192L253.083 312.835L253.131 317.633L217.284 317.991L217.236 313.192Z" fill="#E66D57"/>
<path d="M242.002 315.976L238.693 316.101H227.567C226.028 314.317 203.49 335.723 203.651 355.096L234.74 354.828H235.491L266.633 354.578C266.544 335.259 243.522 314.21 242.002 315.976V315.976Z" fill="#E66D57"/>
<path d="M182.24 244.247L134.677 283.064C131.249 285.706 129.22 289.767 129.168 294.088L132.227 351.546C132.49 354.02 134.697 355.824 137.182 355.595C139.265 355.681 141.172 354.432 141.922 352.491L156.035 316.618C157.495 312.269 160.75 308.75 164.979 306.949L201.398 289.931C202.704 289.438 203.395 288.012 202.972 286.685L187.821 245.424C187.318 244.44 186.396 243.735 185.312 243.506C184.229 243.278 183.099 243.55 182.24 244.247H182.24ZM284.449 243.444L332.62 281.512C336.099 284.084 338.197 288.111 338.308 292.429L336.162 349.94C335.934 352.415 333.764 354.254 331.278 354.079C329.189 354.196 327.258 352.968 326.485 351.028L311.745 315.351C310.231 311.039 306.945 307.574 302.712 305.826L266.025 289.396C264.707 288.924 263.991 287.504 264.397 286.168L278.904 244.675C279.373 243.668 280.285 242.936 281.372 242.694C282.459 242.453 283.596 242.73 284.449 243.444V243.444Z" fill="#0072E6"/>
<path d="M275.128 157.08C276.288 135.289 259.515 116.685 237.664 115.528C215.813 114.371 197.158 131.098 195.998 152.89C194.837 174.681 211.61 193.284 233.461 194.442C255.313 195.599 273.967 178.872 275.128 157.08Z" fill="#A22E19"/>
<path d="M264.066 169.932C272.348 154.239 266.306 134.822 250.571 126.562C234.835 118.303 215.365 124.328 207.083 140.021C198.8 155.713 204.842 175.13 220.578 183.39C236.313 191.65 255.784 185.624 264.066 169.932Z" fill="#E66D57"/>
<path d="M258.923 65.701C245.776 51.9832 232.682 40.4952 232.682 40.4952C223.71 48.405 215.2 56.8207 207.193 65.701C206.96 65.9686 214.455 70.2855 230.16 70.125C247.046 69.9644 259.084 65.8616 258.923 65.701V65.701Z" fill="#E66D57"/>
<path opacity="0.3" d="M231.609 49.0577C227.549 55.0514 223.363 60.8311 219.088 66.5751L206.567 83.8072C202.453 89.569 198.464 95.4022 194.457 101.235C190.45 107.069 186.819 113.152 182.955 119.288C184.672 112.239 187.224 105.418 190.557 98.9699C193.871 92.5388 197.65 86.3563 201.862 80.4713C206.082 74.6087 210.664 69.0144 215.582 63.721C220.484 58.3749 225.847 53.4683 231.609 49.0577V49.0577ZM176.605 255.128C170.076 261.764 163.225 268.151 156.267 274.412C152.815 277.587 149.237 280.655 145.731 283.759L143.066 286.061C142.309 286.716 141.625 287.452 141.027 288.255C139.9 289.79 139.191 291.591 138.97 293.481C138.942 293.945 138.942 294.409 138.97 294.873V306.04C138.881 310.303 138.881 314.567 138.684 318.83C138.416 327.339 137.986 335.866 137.092 344.375C136.054 335.866 135.482 327.357 135.071 318.848C134.82 314.602 134.749 310.339 134.588 306.075L134.462 299.689V294.891C134.428 294.296 134.428 293.701 134.462 293.107C134.787 290.636 135.756 288.292 137.271 286.31C138.046 285.265 138.941 284.314 139.936 283.474L142.673 281.226C146.358 278.247 150.007 275.233 153.763 272.307C161.15 266.438 168.717 260.658 176.605 255.128V255.128ZM227.692 321.185C226.332 323.753 224.866 326.126 223.381 328.498L218.963 335.509C217.496 337.828 216.083 340.147 214.67 342.502C213.257 344.856 212.005 347.282 210.466 349.798C210.143 347.007 210.417 344.18 211.271 341.503C212.101 338.759 213.305 336.142 214.849 333.725C216.426 331.235 218.274 328.926 220.358 326.839C222.52 324.616 224.99 322.712 227.692 321.185Z" fill="white"/>
</svg>
