<svg xmlns="http://www.w3.org/2000/svg" viewBox="0 0 419 434">
  <g fill="none" transform="translate(.52782 .81178)">
    <path fill="#FFEBE9" d="M38.00494 121.7099h113.55924c16.20863 0 20.88673-22.53395 5.84762-28.57924l-.77419-.2965c-16.96635-6.01235-20.129 9.02676-20.129 9.02676s2.38846-65.59224-54.68766-58.37742c-57.07612 7.21481-33.10909 61.06238-33.10909 61.06238s-24.49414-2.09196-10.70692 17.16402Z"/>
    <path fill="#A6E5FF" d="M281.16732 223.72214h110.24833c8.8682-.01753 17.13302-4.49385 21.9931-11.9117 4.8601-7.41787 5.66378-16.78263 2.13865-24.9201-7.65956-17.5923-23.14342-32.71376-54.3582-21.94096-20.39257 7.01715-21.77623 49.08711-21.77623 49.08711s-14.19902-14.98968-23.43992-8.4667c-9.2409 6.52298-10.01509 10.41042-10.01509 10.41042s.90597-38.54491-25.31775-34.77278c-16.85104 2.42141-21.54561 15.8133-18.81123 27.2944 2.15979 8.92923 10.15164 15.21923 19.33834 15.2203Z"/>
    <path fill="#D5EBF6" d="M311.65734 74.43473c.20086-.08755.43542-.00937.54358.1812.11576.20568.05069.46598-.14825.593l-1.46603.92244a.44475.44475 0 1 1-.49416-.72478c.49416-.32944 1.0048-.64242 1.49897-.93891l.06589-.03295Z"/>
    <path fill="#F7644E" d="M307.34163 26.38537c.18523-.08098.40177-.02684.5271.13178a.42828.42828 0 0 1 0 .60947c-.8895.72477-1.779 1.49897-2.61907 2.28963a.44475.44475 0 1 1-.60947-.62594c.85655-.82361 1.76252-1.64722 2.68496-2.33905l.01648-.06589Zm-5.10638 4.8593a.42828.42828 0 0 1 .46122 0c.17168.17333.17168.4526 0 .62594-.7742.85655-1.51544 1.76252-2.22375 2.70144a.44475.44475 0 1 1-.69183-.54359c.7083-.93891 1.4825-1.86135 2.2567-2.73438a.37886.37886 0 0 1 .19766-.04942Zm-4.28277 5.617a.4118.4118 0 0 1 .4118 0 .42828.42828 0 0 1 .13178.593c-.64241.97187-1.25188 1.99314-1.81194 3.01442-.12163.20489-.38312.27752-.593.16472a.42828.42828 0 0 1-.16472-.593c.57653-1.03775 1.186-2.0755 1.82841-3.06383a.44475.44475 0 0 1 .19767-.1153Zm-3.40974 6.17708a.42828.42828 0 0 1 .34591 0 .42827.42827 0 0 1 .21414.57652c-.49416 1.05422-.93891 2.14139-1.36719 3.29444a.4118.4118 0 0 1-.56005.24708.42828.42828 0 0 1-.24709-.56005c.4118-1.10364.8895-2.20727 1.38367-3.29444a.4118.4118 0 0 1 .2306-.26355Zm-2.53672 6.58887a.37886.37886 0 0 1 .2965 0c.22945.07135.36073.31204.2965.54358-.34592 1.10364-.65889 2.24022-.93891 3.3768a.42828.42828 0 0 1-.52711.32945.42827.42827 0 0 1-.31298-.52711c.28003-1.16953.593-2.32258.93892-3.4427a.4777.4777 0 0 1 .24708-.28002Zm-1.64722 6.85243a.4777.4777 0 0 1 .26356 0 .4118.4118 0 0 1 .34591.49417c-.19766 1.13658-.37886 2.3061-.54358 3.47563a.4118.4118 0 0 1-.4777.37886.42828.42828 0 0 1-.37885-.49417c.14825-1.186.32944-2.372.54358-3.50857a.46122.46122 0 0 1 .21414-.34592h.03294Zm-.8895 7.00068h.21414c.23935.02598.41458.2377.39534.4777 0 1.13657-.14825 2.32257-.1812 3.50857-.00886.23917-.20541.42844-.44475.42827-.24177-.0173-.4289-.21882-.42827-.46122 0-1.186.09883-2.38846.18119-3.54152a.46122.46122 0 0 1 .23061-.4118h.03295Zm-.19766 7.06657h.16472a.42828.42828 0 0 1 .44475.42827c0 1.15306 0 2.33905.14825 3.50858.00953.23962-.17264.44364-.4118.46122a.42828.42828 0 0 1-.46123-.4118c0-1.186-.13177-2.372-.14825-3.54153a.46122.46122 0 0 1 .23062-.46122l.03294.01648Zm2.10844 4.43101 1.13658-.46122c.22722-.07777.47515.0389.56005.26356.07778.22722-.0389.47515-.26355.56005l-1.12011.44475c-.67536.2965-1.3672.62594-2.04255.98833-.21898.09853-.47693.01255-.593-.19767a.4118.4118 0 0 1 .1812-.57652c.67535-.37886 1.38366-.7083 2.10843-1.02128h.03295Zm4.4969-1.46602a23.65406 23.65406 0 0 1 2.40494-.4118l1.15306-.08237a.42827.42827 0 0 1 .46122.4118c.00952.23963-.17264.44365-.4118.46123l-1.10364.08236a22.7975 22.7975 0 0 0-2.32258.39533c-.21832.03552-.42956-.0948-.49577-.30584-.06621-.21105.03273-.43868.23221-.53424l.08236-.01647Zm-9.61975 4.28277c.19237-.08084.415-.01126.5271.16472.13296.20086.08184.47106-.1153.60947-.93891.64241-1.87783 1.35072-2.7838 2.10844-.17122.16108-.43824.16108-.60947 0a.42828.42828 0 0 1 0-.60947c.93892-.7742 1.8943-1.49897 2.8497-2.15786l.13177-.1153Zm3.44269-.19767h.13177c.24-.01924.45172.15598.4777.39533v.85656a68.23074 68.23074 0 0 0 .34591 2.61907.44475.44475 0 0 1-.37886.51064c-.2404.02932-.46007-.1391-.49416-.37886-.13178-.8895-.24709-1.76252-.34592-2.65202v-.87303c-.04285-.1934.05252-.39095.23061-.47769h.03295Zm-8.86204 4.71105a.44475.44475 0 0 1 .4777.09883c.16324.17671.16324.44923 0 .62594-.56006.54358-1.10364 1.13658-1.64722 1.72958l-.74125.84008c-.17123.16108-.43825.16108-.60947 0a.42827.42827 0 0 1 0-.62594l.74124-.85655c.54359-.60948 1.10364-1.20247 1.64722-1.76253l.13178-.04941Zm22.05626-9.15854a.36239.36239 0 0 1 .2306 0 21.64442 21.64442 0 0 1 3.52505.74125c.22945.07135.36074.31204.2965.54358-.07135.22945-.31204.36073-.54358.2965a19.76664 19.76664 0 0 0-3.39327-.7083c-.19107-.03288-.33883-.18575-.3652-.37783-.02636-.19208.07475-.3791.2499-.46225v-.03295Zm-26.652 14.52847a.4118.4118 0 0 1 .42828 0 .42828.42828 0 0 1 0 .60947c-.67536.90597-1.35072 1.87783-1.99314 2.88263-.13646.20469-.41301.26-.6177.12354-.2047-.13646-.26-.41302-.12354-.6177.67536-1.0048 1.35072-1.99314 2.04255-2.91558a.51064.51064 0 0 1 .2306-.08236h.03295Zm33.38912-12.48592a.39533.39533 0 0 1 .36239 0 18.11944 18.11944 0 0 1 3.04735 1.94372c.16108.17123.16108.43824 0 .60947a.42828.42828 0 0 1-.60947.08236 17.04874 17.04874 0 0 0-2.8991-1.86136.42828.42828 0 0 1 0-.79066l.09883.01647ZM290.7706 84.5816c.23602-.05158.47004.09469.5271.32944a32.94411 32.94411 0 0 0 .92245 3.29444c.07777.22722-.0389.47515-.26355.56005-.2319.07615-.48184-.04882-.56006-.28003-.36239-1.07069-.67536-2.22374-.95539-3.44268-.02543-.20515.09931-.39919.2965-.46122h.03295Zm-18.44885 9.01028a.4777.4777 0 0 1 .39533 0 .42828.42828 0 0 1 .14825.60947c-.56005.95539-1.13658 1.99314-1.64722 3.06383a.44475.44475 0 0 1-.74124-.37886c.56005-1.08717 1.15305-2.12491 1.72958-3.09677a.41181.41181 0 0 1 .1153-.19767Zm42.74532-14.01783c.18101-.06731.3848-.01472.51064.13178a15.13795 15.13795 0 0 1 1.94371 3.0803c.0944.21851.00003.47262-.21413.57652-.21852.0944-.47262.00003-.57653-.21413a14.44607 14.44607 0 0 0-1.81194-2.8991c-.16108-.17124-.16108-.43825 0-.60948l.14825-.06589Zm-46.12212 20.24432a.39533.39533 0 0 1 .3624 0 .42827.42827 0 0 1 .21413.57652c-.52711 1.05422-1.02127 2.12492-1.51544 3.1956-.1039.21417-.35801.30855-.57653.21415-.21643-.11041-.31009-.36979-.21414-.593.49417-1.0707.98834-2.14139 1.51544-3.1956a.54359.54359 0 0 1 .26356-.21415l-.04942.01648Zm24.01645-8.54907c.20947-.09527.4568-.00798.56005.19767a20.3101 20.3101 0 0 0 1.64722 2.91558c.09094.19724.02611.43132-.15334.55368-.17946.12235-.42104.0972-.57144-.05952a23.43993 23.43993 0 0 1-1.84488-3.0803c-.09852-.21898-.01254-.47692.19767-.593l.16472.0659Zm-26.96497 14.97322a.42828.42828 0 0 1 .34592 0 .42827.42827 0 0 1 .2306.57653c-.47768 1.07069-.9389 2.15785-1.40013 3.29443-.1039.2141-.35363.31399-.57652.23061-.2205-.09783-.32282-.3536-.23061-.57652.46122-1.08717.93891-2.17433 1.40013-3.29444a.39533.39533 0 0 1 .28003-.24708l-.04942.01647Zm51.90386-20.3102h.1153c.2404-.02933.46007.13909.49417.37886a14.01785 14.01785 0 0 1 0 3.62388.42828.42828 0 0 1-.4777.39533c-.23512-.03368-.40621-.24042-.39533-.4777a13.17772 13.17772 0 0 0 0-3.40974c-.04443-.22964.09008-.45618.31297-.5271l-.04941.01647Zm-20.73849 10.954a.42828.42828 0 0 1 .46123.08236 15.5827 15.5827 0 0 0 2.7838 2.02608c.20865.12779.27489.40012.14825.60947a.42828.42828 0 0 1-.593.14825 16.58745 16.58745 0 0 1-2.91558-2.14139.42828.42828 0 0 1 0-.60947l.1153-.1153Zm-33.89975 15.8133a.42828.42828 0 0 1 .34592 0 .42828.42828 0 0 1 .2306.57652l-1.38366 3.29444a.42828.42828 0 0 1-.57652.2306.42828.42828 0 0 1-.23061-.57652c.47769-1.07069.93891-2.15785 1.38366-3.29443a.5271.5271 0 0 1 .23061-.21414v-.01647Zm53.97935-19.76663a.4118.4118 0 0 1 .31297 0 .42828.42828 0 0 1 .26355.56006 13.98488 13.98488 0 0 1-1.64721 3.29444.44475.44475 0 1 1-.72478-.49417 13.60605 13.60605 0 0 0 1.54838-3.04735.4118.4118 0 0 1 .24709-.3624v.04942Zm-14.00136 7.51132a.46122.46122 0 0 1 .2965 0 11.9423 11.9423 0 0 0 3.29444.49416.44475.44475 0 1 1 0 .87303 13.17772 13.17772 0 0 1-3.60741-.5271c-.22945-.07136-.36073-.31205-.2965-.5436a.42828.42828 0 0 1 .31297-.3459v.04941Zm-42.82768 18.79476a.46145.46145 0 0 1 .36239 0 .42828.42828 0 0 1 .21414.57653c-.4777 1.0707-.98833 2.14138-1.49897 3.29443a.42828.42828 0 0 1-.57653.19767c-.21416-.1039-.30854-.35801-.21413-.57653.51063-1.05421 1.0048-2.1249 1.49896-3.1956a.4118.4118 0 0 1 .24709-.34591l-.03295.04941Zm52.89219-20.62317c.20469-.12282.47018-.05644.593.14825.1228.20469.05644.47018-.14826.593a10.67398 10.67398 0 0 1-2.52024 1.51544l-.67536.26355a.42827.42827 0 0 1-.56005-.26355c-.0671-.23116.05485-.47504.28002-.56006l.60948-.2306a9.98215 9.98215 0 0 0 2.32257-1.41662l.09884-.04941Zm-55.87365 26.9485a.44475.44475 0 0 1 .56005.60946c-.56005 1.0707-1.1201 2.12491-1.64722 3.11324-.12786.20714-.39467.27925-.60947.16473-.20489-.12163-.27752-.38313-.16472-.593.56005-.98833 1.13658-2.02608 1.64722-3.09677a.4118.4118 0 0 1 .16472-.19767h.04942Zm-3.4921 6.12764a.42828.42828 0 0 1 .39533 0c.20865.1278.2749.40012.14825.60947-.6589 1.02128-1.31778 2.00961-1.99314 2.94852-.15517.14582-.39192.1612-.56465.03667-.17273-.12452-.23296-.354-.14365-.5473a68.29315 68.29315 0 0 0 1.96019-2.8991.4118.4118 0 0 1 .14825-.14826h.04941Zm-4.11805 5.7488a.42828.42828 0 0 1 .44475 0c.17167.17333.17167.4526 0 .62594-.75772.92244-1.54839 1.82841-2.35553 2.6685a.42828.42828 0 0 1-.60947 0 .4118.4118 0 0 1 0-.60948c.7742-.84008 1.54839-1.64722 2.30611-2.63555a.37885.37885 0 0 1 .16472-.04941h.04942Zm-27.42619 13.80369a.26355.26355 0 0 1 .19767 0 24.39536 24.39536 0 0 0 3.45916 0c.24287-.01006.45185.1701.47769.4118.0101.2338-.16273.43544-.39533.46122a23.88473 23.88473 0 0 1-3.59094 0c-.23916-.01757-.42133-.2216-.4118-.46122-.01196-.18021.0949-.34718.26355-.4118Zm22.501-8.66437c.17375-.0804.37944-.04058.51064.09883.16325.17672.16325.44923 0 .62594-.8895.79067-1.82841 1.53192-2.7838 2.24022a.42828.42828 0 0 1-.60947-.09883c-.1364-.19666-.09273-.466.09884-.60947.93891-.69183 1.84488-1.41661 2.7179-2.1908l.0659-.0659Zm-15.48385 8.07137h.08236a32.9442 32.9442 0 0 0 3.29444-.93892c.22722-.07777.47515.0389.56005.26356.0671.23115-.05485.47503-.28002.56005a29.93004 29.93004 0 0 1-3.44269.97186c-.21832.03552-.42956-.0948-.49577-.30585-.06621-.21104.03273-.43867.23221-.53423l.04942-.01647Zm9.78448-3.92038c.20567-.08946.44576-.01178.56005.1812a.42827.42827 0 0 1-.16472.59299c-1.02127.60947-2.09197 1.186-3.14619 1.64722a.42828.42828 0 0 1-.593-.21414c-.0944-.21851-.00002-.47262.21414-.57653 1.03775-.49416 2.0755-1.03774 3.0803-1.64721l.04942.01647Z"/>
    <path fill="#D5EBF6" d="M217.12347 150.28914a.44475.44475 0 0 1 .2965 0 16.3567 16.3567 0 0 0 1.64722.42828c.20374.0814.31768.29922.26835.513-.04934.2138-.2472.35966-.46602.34355l-1.72958-.44475a.44475.44475 0 0 1 0-.8236l-.01647-.01648Z"/>
    <path fill="#E66D57" d="m325.24689.0793-7.47837 4.94165-8.3514-3.29444a.46122.46122 0 0 0-.62594.57653l2.4214 8.6479-5.74878 6.8689a.4777.4777 0 0 0 .34591.79066l8.97734.36239 4.7934 7.59367a.4777.4777 0 0 0 .85656-.08236l3.11324-8.43376 8.71379-2.20727a.46122.46122 0 0 0 .1812-.8236l-7.0501-5.58408.593-8.96087a.4777.4777 0 0 0-.74125-.39533Z"/>
    <path fill="#D5EBF6" d="M44.52793 167.23902a.46124.46124 0 0 1-.2965-.34592c-.09884-.57653-.16472-1.186-.21414-1.779-.0101-.2338.16273-.43543.39533-.46122.23999-.01924.45171.15598.4777.39534 0 .57652.1153 1.15305.19766 1.64722a.4118.4118 0 0 1-.36239.49416.41186.41186 0 0 1-.19766.04942Z"/>
    <path fill="#F7644E" d="M151.36651 240.54024c-.20414-.063-.33064-.2668-.2965-.4777.13178-1.15305.26356-2.3061.37886-3.47563a.42828.42828 0 0 1 .4777-.39533c.23512.03368.40621.24042.39533.4777-.1153 1.16952-.24708 2.33904-.37886 3.50857-.0341.23977-.25377.40818-.49417.37886l-.08236-.01647Zm.67536-7.00068c-.19469-.05525-.32038-.24379-.2965-.44475.08236-1.15305.14825-2.32258.19767-3.4921.01757-.23917.2216-.42133.46122-.4118a.42827.42827 0 0 1 .4118.46121c0 1.16404-.06588 2.33356-.19766 3.50858a.44475.44475 0 0 1-.4777.4118l-.09883-.03294Zm.32945-7.00068c-.18427-.05934-.30582-.23491-.2965-.42828v-3.4921c0-.24563.19912-.44475.44475-.44475.23603.00784.428.1927.44475.42828v3.52504c-.00887.23918-.20542.42845-.44475.42828l-.14825-.01647Zm0-7.01715a.46122.46122 0 0 1-.31297-.4118c0-1.16953-.08237-2.32258-.14825-3.4921a.44475.44475 0 1 1 .87302 0c0 1.16952.1153 2.33904.16472 3.52504.00017.23934-.1891.43588-.42827.44475l-.14825-.06589Zm-.42828-7.01715a.42828.42828 0 0 1-.2965-.36239c-.09883-1.16952-.23061-2.32258-.36239-3.4921a.42828.42828 0 0 1 .37886-.4777c.2404-.02932.46007.1391.49417.37886.13177 1.16953.24708 2.33906.36239 3.50858.01088.23727-.16021.44401-.39534.4777a.32944.32944 0 0 1-.24708-.03295h.06589Zm-.84008-6.96774a.46122.46122 0 0 1-.2965-.34591c-.16472-1.15305-.36239-2.3061-.57653-3.44269-.04061-.2355.11215-.461.34592-.51064a.42828.42828 0 0 1 .51064.34592c.21413 1.15305.4118 2.32258.593 3.47563a.42828.42828 0 0 1-.3624.49417.31297.31297 0 0 1-.24708.04941l.03295-.06589ZM27.82513 162.00087c-.18683-.0657-.30771-.24702-.2965-.44475a23.55522 23.55522 0 0 1 .52711-3.54152.42828.42828 0 0 1 .51064-.32944.44475.44475 0 0 1 .34592.52711 21.8421 21.8421 0 0 0-.57653 3.40974.42827.42827 0 0 1-.46122.39533l-.04942-.01647Zm121.97653 36.65061a.42828.42828 0 0 1-.2965-.32944c-.24709-1.13658-.52711-2.28964-.80714-3.39327-.06296-.23644.07688-.47933.31297-.54358a.44475.44475 0 0 1 .54358.32944c.28003 1.1201.56006 2.27316.80714 3.42621a.42828.42828 0 0 1-.32944.51064.54357.54357 0 0 1-.23062 0Zm-89.2463-31.64306a10.6575 10.6575 0 0 1-2.99794-1.56486.42828.42828 0 0 1 0-.60947c.14347-.19157.41282-.23525.60947-.09884a9.4715 9.4715 0 0 0 2.73439 1.43309l.24708.08236c.21878.08394.34437.31419.2965.54358-.07135.22944-.31204.36073-.54358.2965l-.34592-.08236Zm3.73919.36238a.42828.42828 0 0 1-.2965-.34591.4118.4118 0 0 1 .34591-.49417 8.2361 8.2361 0 0 0 3.12972-1.10363.43222.43222 0 1 1 .44475.74125 8.7632 8.7632 0 0 1-3.40974 1.21894.46123.46123 0 0 1-.21414-.01648Zm-34.95398-12.20588c-.22465-.0849-.34133-.33283-.26355-.56006a25.21888 25.21888 0 0 1 1.49897-3.29443c.11604-.21095.37887-.29126.593-.1812.20489.12163.27752.38312.16472.593a26.84965 26.84965 0 0 0-1.43308 3.12971.4118.4118 0 0 1-.56006.31298Zm25.89428 7.85723a.42828.42828 0 0 1-.23061-.14825 11.53051 11.53051 0 0 1-1.64722-3.29444.42828.42828 0 0 1 .28002-.54358c.2319-.07615.48184.04882.56006.28003a10.19628 10.19628 0 0 0 1.51544 2.98146.42828.42828 0 0 1-.09883.60947.36239.36239 0 0 1-.37886.1153Zm92.82075 28.82632a.42828.42828 0 0 1-.28002-.2965c-.32945-1.1201-.69183-2.24022-1.05422-3.29444-.07615-.2319.04881-.48183.28002-.56005a.42827.42827 0 0 1 .54359.28003c.37886 1.10363.74124 2.24021 1.07069 3.29443.06423.23154-.06705.47224-.2965.54359a.3624.3624 0 0 1-.26356.03294Zm-77.864-28.00272-.14825-.08236c-.16108-.17123-.16108-.43825 0-.60947a10.88811 10.88811 0 0 0 1.64722-2.8991c.09797-.22048.3493-.3282.57652-.2471a.42828.42828 0 0 1 .24709.56006 11.87643 11.87643 0 0 1-1.84489 3.12972c-.092.17171-.28829.2597-.4777.21414v-.0659Zm-17.06518-7.4619c-.18172-.05284-.30403-.22272-.2965-.4118a13.34247 13.34247 0 0 1 .47769-3.57447.42827.42827 0 0 1 .52711-.31297.4118.4118 0 0 1 .31297.5271 13.27658 13.27658 0 0 0-.44475 3.29444c0 .24563-.19912.44475-.44475.44475l-.13177.03295Zm-20.44198-7.42896h-.11531a.42827.42827 0 0 1-.09883-.60947 26.20724 26.20724 0 0 1 2.33905-2.70144c.17682-.14512.43489-.13244.59664.0293.16175.16176.17442.41983.0293.59665a22.83053 22.83053 0 0 0-2.25669 2.6026c-.1163.14967-.31468.20919-.49416.14825v-.06589Zm113.13096 36.2388a.4118.4118 0 0 1-.26356-.26355c-.4118-1.08716-.85655-2.17433-1.3013-3.29443a.42828.42828 0 0 1 .23061-.57653.42828.42828 0 0 1 .57653.23061c.44475 1.0707.8895 2.17433 1.31777 3.29444.07778.22722-.0389.47515-.26355.56005a.46122.46122 0 0 1-.2965.04942Zm-73.00472-27.7062c-.18993-.06444-.31644-.24423-.31298-.44476a8.33492 8.33492 0 0 0 0-1.43308 12.8977 12.8977 0 0 0-.26355-1.92724c-.05157-.23602.0947-.47005.32944-.52711.23443-.04286.4629.09994.52711.32944a12.81536 12.81536 0 0 1 .28003 2.0755 9.73508 9.73508 0 0 1 0 1.54838.4118.4118 0 0 1-.46122.39534l-.09883-.01648Zm70.31975 21.24911a.4118.4118 0 0 1-.26355-.2306c-.49417-1.05423-1.02128-2.10845-1.56486-3.11325a.44475.44475 0 1 1 .7742-.4118c.54357 1.02127 1.07068 2.09196 1.6472 3.16265a.42828.42828 0 0 1-.21413.57653.4118.4118 0 0 1-.42828.01647h.04942Zm-88.25796-29.00752c-.21095-.11604-.29126-.37887-.1812-.593a18.44887 18.44887 0 0 1 1.99314-2.98146.44475.44475 0 1 1 .67536.56006 17.70762 17.70762 0 0 0-1.9602 2.88263c-.12178.16402-.34246.21919-.5271.13178Zm-17.2299-5.63348a.51064.51064 0 0 1-.21415-.16472.42828.42828 0 0 1 .09884-.60948l.93891-.64241a20.60664 20.60664 0 0 1 2.10844-1.21894c.21413-.11006.47696-.02975.593.1812.09853.21898.01254.47692-.19767.593-.69183.36238-1.38366.75771-2.02607 1.16952-.31298.19766-.60948.4118-.90597.62594a.4777.4777 0 0 1-.39534.06589Zm33.66914 6.58887a.42828.42828 0 0 1-.26356-.21414 16.27455 16.27455 0 0 0-1.84488-2.86616c-.17168-.17333-.17168-.4526 0-.62594a.42828.42828 0 0 1 .60947.08236 18.02055 18.02055 0 0 1 1.94372 3.01441c.09852.21899.01254.47693-.19767.593a.39533.39533 0 0 1-.24708.03294v-.01647Zm68.49134 21.82565a.39534.39534 0 0 1-.23061-.19767c-.42828-.7083-.85655-1.43308-1.3013-2.14138-.16473-.28003-.34592-.56006-.52711-.84009a.42954.42954 0 1 1 .72477-.46122c.19767.28003.3624.56006.54358.84008.44475.72478.8895 1.43308 1.3013 2.15786a.42828.42828 0 0 1-.14824.60947.46122.46122 0 0 1-.36239.04942v-.01647Zm-95.934-31.59365a.51064.51064 0 0 1-.28003-.28003c-.0671-.23116.05485-.47504.28003-.56006a24.34584 24.34584 0 0 1 3.47563-.85655.4118.4118 0 0 1 .49417.34592.42828.42828 0 0 1-.34592.51063 23.06088 23.06088 0 0 0-3.29444.84009.4118.4118 0 0 1-.32944 0Zm15.43444 3.42621a.4118.4118 0 0 1-.19767-.13178c-.17168-.17333-.17168-.4526 0-.62594a23.967 23.967 0 0 1 2.94852-2.04255.42827.42827 0 0 1 .593.16472c.11576.2057.05069.46599-.14825.593a21.01852 21.01852 0 0 0-2.83322 1.96019.42828.42828 0 0 1-.36238.08236Zm7.6925.8895a.34592.34592 0 0 1-.16472-.09883 21.002 21.002 0 0 0-2.35552-1.779l-.39533-.24708a.42827.42827 0 0 1-.14825-.60947c.13311-.20122.3988-.26585.60947-.14825l.4118.26355a22.55048 22.55048 0 0 1 2.47083 1.86136c.1578.139.19667.3695.0932.55257s-.321.26864-.52147.20515Zm-16.2251-5.51818a.44475.44475 0 0 1-.31297-.39533c-.00062-.2424.1865-.44391.42828-.46123a25.61433 25.61433 0 0 1 3.558.13178.42828.42828 0 0 1 .39532.4777.42828.42828 0 0 1-.47769.39533 24.06587 24.06587 0 0 0-3.44269-.13178l-.14825-.01647Zm85.22709 26.93202a.42827.42827 0 0 1-.21414-.16472c-.67536-.92245-1.38367-1.86136-2.10844-2.76733-.16325-.17672-.16325-.44923 0-.62594a.42828.42828 0 0 1 .60947.08236c.74125.92244 1.46602 1.86135 2.14138 2.80027.1383.20183.09492.47654-.09883.62594a.42828.42828 0 0 1-.32944.03295v.01647Zm-74.94844-25.08714a28.00256 28.00256 0 0 0-3.29444-1.08716c-.23198-.05913-.3721-.29513-.31297-.52711.05913-.23198.29513-.3721.5271-.31297a27.26146 27.26146 0 0 1 3.39328 1.1201c.2141.1039.31398.35364.2306.57653-.10232.19707-.33433.28847-.54357.21414v.01647Zm4.28276-.75772a.46122.46122 0 0 1-.28002-.24708c-.08338-.2229.01652-.47262.2306-.57653a34.82222 34.82222 0 0 1 3.29445-1.20247c.23153-.06423.47223.06706.54358.2965.06423.23154-.06706.47223-.2965.54358a32.81261 32.81261 0 0 0-3.29444 1.16953.60946.60946 0 0 1-.19767 0v.01647Zm66.28407 20.32668a.34592.34592 0 0 1-.18119-.13178c-.75772-.85655-1.64722-1.72958-2.372-2.55319-.17167-.17333-.17167-.4526 0-.62594a.42828.42828 0 0 1 .60948 0c.8236.84008 1.64721 1.64722 2.40493 2.58613.16326.17672.16326.44923 0 .62594a.44475.44475 0 0 1-.46122.09884ZM72.02 138.72567a.44475.44475 0 0 1-.28003-.32945.42828.42828 0 0 1 .32945-.51064l.36239-.08236c1.03774-.21413 2.0755-.39533 3.12971-.54358.23494-.03006.45222.12928.49417.36239.02996.24397-.13668.46858-.37886.51064-1.02128.13178-2.05903.31297-3.06383.5271l-.36239.08237a.54358.54358 0 0 1-.2306-.01647Zm54.7206 17.46051a.34592.34592 0 0 1-.16472-.09883c-.84009-.79067-1.64722-1.64722-2.6026-2.32258-.16987-.16314-.1831-.4304-.0302-.60953.15291-.17912.41895-.20799.60672-.06583.8895.75772 1.76252 1.54839 2.63555 2.35552.16325.17672.16325.44923 0 .62595a.44475.44475 0 0 1-.44475.1153ZM78.97126 137.8197a.46122.46122 0 0 1-.2965-.39534c-.01009-.2338.16274-.43543.39534-.46122 1.16952 0 2.35552-.13178 3.54152-.14825a.44475.44475 0 1 1 0 .87303c-1.15306 0-2.32258 0-3.47563.14825l-.16473-.01647Zm42.43235 13.82016-.13178-.08236c-.92244-.7083-1.86135-1.40014-2.81674-2.05903a.42828.42828 0 0 1-.09883-.60947c.1384-.19713.4086-.24825.60947-.1153.95538.67536 1.91077 1.38366 2.83321 2.09197.162.13253.20966.36008.11448.54648-.09519.1864-.30747.28122-.50981.2277Zm-5.76526-4.10157h-.09884c-.98833-.60948-1.99313-1.21895-2.99794-1.779a.43525.43525 0 0 1-.22105-.37488.43519.43519 0 0 1 .64933-.38284c1.02128.56005 2.04255 1.16952 3.03088 1.79547.20284.13319.26147.40438.13178.60947-.11753.14825-.31842.20182-.49416.13178Zm-29.64994-9.88332c-.18803-.05417-.31197-.2332-.2965-.42827a.42828.42828 0 0 1 .46123-.4118c1.15305 0 2.33905.16471 3.50857.31296a.44475.44475 0 1 1-.09883.87303c-1.15306-.14825-2.32258-.24708-3.45916-.31297l-.1153-.03295Zm23.53875 6.44063c-1.03774-.51064-2.10843-1.0048-3.16265-1.46603-.2141-.1039-.31399-.35363-.23062-.57652.1039-.2141.35364-.31399.57653-.23061 1.0707.47769 2.15786.97186 3.21208 1.49896a.42828.42828 0 0 1 .19766.57653.44475.44475 0 0 1-.593.21414v-.01647Zm-16.57101-5.58407c-.21145-.06365-.33985-.27764-.2965-.49417.04193-.24045.26982-.40217.51064-.36239 1.13658.21414 2.3061.46123 3.44268.75773a.4315.4315 0 1 1-.19766.84008c-1.13658-.28003-2.27317-.52711-3.40975-.72478l-.04941-.01647Zm10.1304 2.80027c-1.08717-.4118-2.1908-.79067-3.29445-1.12011-.22517-.08502-.34712-.3289-.28002-.56005a.42828.42828 0 0 1 .54358-.28003c1.1201.34592 2.24022.72477 3.29444 1.13658a.42828.42828 0 0 1 .26355.56005c-.06426.2281-.29609.36574-.5271.31297v-.04941Z"/>
    <path fill="#D5EBF6" d="M167.09745 245.8278c-.20415-.06298-.33065-.26679-.2965-.47769.09883-.57652.1812-1.15305.26355-1.64721a.44475.44475 0 1 1 .87303.1153c-.08236.57653-.1812 1.16953-.26355 1.74605-.04195.23311-.25923.39245-.49417.3624l-.08236-.09884Z"/>
    <path fill="#E66D57" d="M33.27742 170.64876c-4.69457-7.39601-15.07204-8.2361-21.94094-3.4921a36.13997 36.13997 0 0 0-8.49965 9.33972c-4.5628 7.1654-3.7886 18.51474 3.54152 23.70348 7.5772 5.35346 18.1194 1.03775 23.70347-5.23816 5.58407-6.2759 8.13726-16.66985 3.1956-24.31294Z"/>
    <path fill="#66BAFB" d="M210.78168 315.8346c4.23335 16.17567 7.82429 31.29714 12.56828 45.38086 5.53465-13.47425 23.2752-37.73778 40.3898-27.59091 20.73847 12.30472 21.15028 39.86268 14.41316 52.71099 5.63348-4.00274 7.64309-7.00068 13.8531-3.9698 6.28914 3.16805 10.4179 9.44277 10.8387 16.47219 11.22278-7.34198 25.6974-7.46116 37.03956-.30497 11.34216 7.1562 17.46636 20.27194 15.67143 33.5623l-280.47188.82362c-9.75154-3.47564-13.8531-16.60397-9.22443-25.86133 4.62869-9.25737 10.954-10.88812 21.23265-9.58682 10.27864 1.3013 19.76662 9.75154 26.15783 17.85585-10.90459-2.58613-21.0844-19.94781-19.0748-30.98417 3.62389-19.76663 16.02745-27.82152 28.3157-30.65474 16.90045-3.88744 28.67807 2.91558 36.73297 19.58543-3.09849-5.27866-2.92355-11.86037.45097-16.96698 3.37452-5.1066 9.3606-7.84824 15.43146-7.06764 6.07087.78059 11.16866 4.94739 13.14155 10.74156l9.29032-44.01367 13.24363-.13178Z"/>
    <path fill="#A6E5FF" d="M313.84814 432.34235c2.56966-9.98214-2.47083-16.98282-10.59162-23.1599-8.39098-6.17843-19.67032-6.7174-28.61218-1.36718 4.49392-9.38011 2.15262-20.60758-5.71585-27.40972-8.15566-6.28037-19.57526-6.06826-27.49207.51064.01103-5.57047-3.92425-10.36875-9.38915-11.44817-5.50851-.65982-10.706 2.69674-12.3706 7.98901l-10.62457-60.94708h-7.9396l-11.53052 63.08847c-4.54632-4.54633-17.04871-6.17707-22.64925-3.09677-5.74795 3.34434-8.78937 9.92749-7.61015 16.47218-1.64425-3.84103-5.82394-5.93088-9.88331-4.94166-4.01748 1.26993-6.55862 5.2236-6.0453 9.40562-4.21687-7.6925-14.6273-10.55867-22.6822-7.29718-8.05489 3.2615-13.45777 11.53053-14.82496 20.27726-1.4318 7.72623-.11477 15.7099 3.72272 22.5669l204.2386-.64242Z"/>
    <path fill="#FFC8C1" d="M255.17422 97.08398c-15.13794-28.64512-52.48038-60.50233-52.48038-60.50233s-36.8318 32.43373-51.50852 61.32594c-9.4715 18.61357-18.38296 37.88603-14.67672 78.5229 3.62388 39.73091 25.7625 81.58673 39.53324 106.57504l28.61219-.21414 28.61218-.23061c13.35894-25.20244 34.8222-67.42065 37.88603-107.1845 2.99793-40.60394-6.22649-59.82698-15.97802-78.2923Z"/>
    <path fill="#0072E6" d="m225.34309 288.63901-41.03221.32945-2.37199-5.99588 45.41381-.36239z"/>
    <path fill="#E66D57" d="m188.47027 288.39111 33.01026-.3301.04431 4.43102-33.01026.3301z"/>
    <path fill="#E66D57" d="m211.27585 290.9616-3.04736.1153h-10.2457c-1.4166-1.64722-22.17156 18.1194-22.0233 36.0082l28.62865-.24709h.69183l28.67808-.23061c-.08237-17.83938-21.28207-37.27655-22.6822-35.6458Z"/>
    <path fill="#0072E6" d="m156.24228 224.72694-43.79954 35.84347c-3.15725 2.44023-5.02594 6.18974-5.07343 10.17981l2.81674 53.0569c.24254 2.28442 2.27526 3.95023 4.5628 3.7392 1.91895.07893 3.67478-1.07395 4.36513-2.86617l12.99655-33.12556c1.34424-4.0157 4.34161-7.26485 8.2361-8.92792l33.53736-15.71447c1.2027-.45575 1.83924-1.77224 1.44955-2.99793L161.3816 225.8141c-.463-.9089-1.31206-1.55981-2.31003-1.77092-.99796-.21111-2.03788.0402-2.8293.68376Zm94.12206-.74124 44.3596 35.15163c3.20388 2.37559 5.13588 6.09377 5.23815 10.08098l-1.97666 53.10632c-.20942 2.28525-2.2078 3.98351-4.49691 3.82155-1.92417.10823-3.70197-1.02611-4.41455-2.81675l-13.57308-32.94436c-1.39471-3.98223-4.42022-7.18148-8.31845-8.79615l-33.78445-15.17088c-1.21403-.43592-1.8732-1.74703-1.49897-2.98147l13.35894-38.3143c.43162-.9301 1.2717-1.6062 2.27259-1.82898 1.00088-.22278 2.04842.03318 2.83379.6924Z"/>
    <circle cx="205.34636" cy="142.30202" r="36.48589" fill="#A22E19" transform="rotate(-86.96 205.34636 142.30202)"/>
    <circle cx="205.35649" cy="142.29391" r="29.64993" fill="#E66D57" transform="rotate(-62.24 205.35649 142.29391)"/>
    <path fill="#E66D57" d="M226.85853 59.85685c-12.10705-12.66711-24.1647-23.2752-24.1647-23.2752a288.85631 288.85631 0 0 0-23.47285 23.2752c-.21414.24708 6.6877 4.23335 21.15028 4.0851 15.54974-.14825 26.63552-3.93685 26.48727-4.0851Z"/>
    <path fill="#FFF" d="M201.7055 44.4883c-3.73918 5.53465-7.59367 10.87164-11.53052 16.17569l-11.53053 15.91213c-3.7886 5.32051-7.4619 10.70691-11.15167 16.09332-3.68977 5.3864-7.03362 11.00342-10.59161 16.66985a84.4364 84.4364 0 0 1 7.00068-18.76182 137.82264 137.82264 0 0 1 10.41042-17.08165 160.15886 160.15886 0 0 1 12.63416-15.46738 114.28403 114.28403 0 0 1 14.75908-13.54014Zm-50.65196 190.28667c-6.01235 6.12766-12.3212 12.0247-18.72887 17.80643-3.17913 2.93205-6.47357 5.76527-9.70212 8.63143l-2.45435 2.1249a12.74946 12.74946 0 0 0-1.87783 2.02609 10.16334 10.16334 0 0 0-1.8943 4.82635 10.82233 10.82233 0 0 0 0 1.28483v10.31159c-.08236 3.93685-.08236 7.8737-.26356 11.81055-.24708 7.85723-.64241 15.73094-1.46602 23.58817-.95539-7.85723-1.4825-15.71446-1.86136-23.5717-.23061-3.92038-.2965-7.85723-.44475-11.79408l-.1153-5.89704v-4.43102a14.24884 14.24884 0 0 1 0-1.64722 13.17776 13.17776 0 0 1 2.58613-6.2759 15.54974 15.54974 0 0 1 2.45435-2.61908l2.52025-2.0755c3.39327-2.75085 6.7536-5.53465 10.21275-8.23608 6.80301-5.41935 13.77075-10.75634 21.03498-15.86272Zm47.04456 60.9965c-1.25189 2.372-2.6026 4.5628-3.9698 6.7536l-4.06863 6.47356c-1.35072 2.14139-2.65202 4.28277-3.95332 6.4571-1.3013 2.17433-2.45436 4.41455-3.87096 6.73712a18.31707 18.31707 0 0 1 .74124-7.65956 28.89223 28.89223 0 0 1 3.29444-7.18187 37.06238 37.06238 0 0 1 5.07343-6.35827 30.02878 30.02878 0 0 1 6.7536-5.22168Z" opacity=".3"/>
  </g>
</svg>
