<svg width="479" height="471" viewBox="0 0 479 471" fill="none" xmlns="http://www.w3.org/2000/svg">
<path d="M316.555 172.207C339.528 172.386 340.809 205.43 354.178 202.881C367.545 200.332 382.194 126.886 405.732 123.579C429.27 120.272 411.465 153.233 418.672 155.561C425.88 157.89 461.532 109.868 476.443 133.266C491.354 156.664 395.368 196.307 407.345 215.834C419.321 235.359 459.92 195.619 463.847 233.595C467.775 271.571 460.506 296.692 389.884 370.454C342.803 419.629 306.944 428.181 282.309 396.111C282.309 396.111 245.459 171.67 316.555 172.207V172.207Z" fill="#79B9F5"/>
<path d="M437.015 159.985C436.761 159.478 436.163 159.251 435.637 159.461C435.209 159.654 425.026 164.449 411.3 175.528C403.17 182.096 395.631 189.363 388.768 197.245L393.453 165.386C393.501 164.814 393.096 164.302 392.527 164.219C391.959 164.135 391.422 164.507 391.303 165.069L386.122 200.345C378.533 209.449 371.851 219.269 366.166 229.668C360.144 240.692 353.116 257.392 346.28 276.725L316.692 213.339C316.439 212.833 315.841 212.605 315.315 212.815C314.797 213.059 314.565 213.668 314.791 214.193L345.316 279.646C342.753 287.005 340.23 294.708 337.792 302.603C332.789 318.876 328.585 334.654 325.389 348.848L292.672 290.532C292.382 290.015 291.729 289.831 291.211 290.119C290.688 290.409 290.497 291.068 290.784 291.594L324.645 352.072C322.374 362.197 320.644 372.436 319.463 382.746C319.432 383.031 319.516 383.316 319.697 383.539C319.879 383.762 320.142 383.903 320.427 383.93H320.606C321.135 383.905 321.565 383.493 321.612 382.966C322.788 372.776 324.508 362.657 326.766 352.651L403.361 320.957C403.914 320.729 404.176 320.097 403.948 319.545C403.719 318.994 403.087 318.732 402.535 318.959L327.331 350.033C332.711 326.483 339.368 303.244 347.273 280.418L429.325 252.749C429.833 252.518 430.084 251.94 429.907 251.411C429.73 250.883 429.18 250.573 428.637 250.696L348.251 277.841C354.839 259.088 361.812 242.249 368.124 230.701C373.756 220.389 380.39 210.655 387.927 201.641L413.491 190.851C414.019 190.618 414.268 190.01 414.056 189.473C413.833 188.935 413.218 188.676 412.677 188.894L390.972 197.961C397.559 190.479 404.765 183.565 412.512 177.292C419.889 171.143 427.916 165.82 436.451 161.418C436.716 161.303 436.924 161.087 437.03 160.818C437.136 160.549 437.131 160.25 437.015 159.985V159.985Z" fill="white"/>
<path d="M318.857 317.843C318.857 317.843 249.647 205.374 183.03 184.182C183.03 184.182 190.692 319.332 214.107 365.108C237.52 410.883 265.097 432.38 308.686 405.068C352.276 377.757 328.076 331.871 318.857 317.843Z" fill="#C3E2FF"/>
<path d="M190.747 193.455C187.992 190.961 185.524 188.77 183.181 186.841C183.072 185.132 183.03 184.209 183.03 184.209C183.913 184.485 184.794 184.788 185.676 185.104C187.867 186.923 190.21 188.964 192.705 191.279C204.865 202.725 215.882 215.328 225.6 228.91C226.096 224.776 226.978 217.597 227.833 210.28L230.589 212.595C229.458 221.91 228.438 230.509 228.19 232.589C230.212 235.437 232.261 238.427 234.338 241.559C234.401 241.636 234.457 241.719 234.503 241.807C239.105 248.766 243.805 256.4 248.532 264.765C250.797 268.789 252.854 272.929 254.692 277.167L271.188 253.328L273.227 255.726L256.194 280.529C263.443 298.139 268.666 318.904 272.497 338.788L308.493 302.121C309.1 302.989 309.665 303.83 310.215 304.642L273.173 342.385C277.514 365.81 281.441 401.527 282.957 415.003C282.957 415.389 283.039 415.747 283.081 416.12C282.075 416.326 281.069 416.505 280.077 416.657L279.912 415.279C278.905 406.129 275.915 379.273 273.751 364.543L201.855 328.633L200.987 324.968L273.213 361.002C272.29 354.966 271.243 348.696 270.058 342.302C270.052 342.211 270.052 342.118 270.058 342.027C267.38 327.147 263.799 312.445 259.336 298.001L192.842 279.936C192.691 278.889 192.539 277.855 192.402 276.822L258.275 294.735C256.676 289.967 254.968 285.351 253.135 280.956C251.051 275.889 248.667 270.952 245.996 266.17C241.379 258.013 236.79 250.557 232.298 243.751L186.903 231.101C186.806 230.068 186.696 229.034 186.599 228.029L229.734 239.975C214.658 217.639 200.794 202.729 190.747 193.455V193.455Z" fill="white"/>
<path opacity="0.2" d="M314.733 441.316C378.666 441.316 430.495 436.072 430.495 429.603C430.495 423.134 378.666 417.89 314.733 417.89C250.801 417.89 198.972 423.134 198.972 429.603C198.972 436.072 250.801 441.316 314.733 441.316Z" fill="#F7644E"/>
<path d="M342.587 185.808C336.193 161.804 278.891 194.254 252.887 188.964C230.465 184.402 219.963 137.317 204.487 138.681C189.011 140.046 205.576 202.867 239.464 214.538C275.101 226.815 349.795 212.815 342.587 185.808Z" fill="#A22E19"/>
<path d="M281.414 186.332C307.86 180.172 337.695 166.681 342.587 185.808C347.177 203.721 316.404 218.313 284.501 220.959C278.809 211.369 280.724 191.402 281.414 186.332V186.332Z" fill="#CEE6FF"/>
<path d="M219.495 223.013C230.812 201.18 222.315 174.308 200.504 162.947L143.01 133.059L162.482 95.5927L219.977 125.481C230.277 130.814 239.39 138.178 246.768 147.128C261.111 164.56 268.158 186.863 266.433 209.371C264.577 232.72 253.323 254.317 235.246 269.215C217.815 283.573 195.501 290.625 172.984 288.892C161.432 287.993 150.182 284.768 139.909 279.412L82.4141 249.524L101.886 212.057L159.45 241.946C181.265 253.234 208.103 244.772 219.495 223.013Z" fill="#89210E"/>
<path d="M57.3789 236.567L76.8567 199.106L101.886 212.117L82.4081 249.577L57.3789 236.567V236.567ZM117.965 120.026L137.443 82.5659L162.472 95.5773L142.994 133.038L117.965 120.026V120.026Z" fill="#F4C5A2"/>
<path d="M155.619 78.4785L137.442 82.5297L117.969 119.996L143.01 133.004L161.186 128.953L155.619 78.4785V78.4785Z" fill="#FF5743"/>
<path d="M95.0515 194.998L76.8603 199.05L57.3877 236.517L82.4279 249.524L100.605 245.473L95.0515 194.998V194.998Z" fill="#F7644E"/>
<path d="M237.672 218.879C248.975 197.056 240.496 170.203 218.709 158.827L161.214 128.953L180.687 91.4864L238.196 121.374C258.602 131.989 273.945 150.29 280.834 172.235C284.221 182.91 285.512 194.139 284.637 205.305C282.811 228.666 271.576 250.284 253.507 265.206C236.074 279.563 213.76 286.615 191.243 284.883C179.656 283.991 168.371 280.756 158.072 275.375L100.604 245.473L120.077 208.007L177.586 237.894C199.433 249.198 226.309 240.693 237.672 218.879V218.879Z" fill="#FB7057"/>
<path d="M75.5645 232.516L95.0423 195.056L120.072 208.067L100.593 245.527L75.5645 232.516V232.516Z" fill="#FFDDD8"/>
<path d="M136.149 115.976L155.628 78.5161L180.657 91.5274L161.179 128.988L136.149 115.976V115.976Z" fill="#FFDCD7"/>
<path opacity="0.3" d="M249.758 131.433C249.758 131.433 276.741 147.831 281.868 189.528C286.994 231.225 254.305 263.248 251.315 262.008C248.325 260.768 267.715 222.241 255.064 182.955C241.654 141.299 226.123 132.99 206.389 119.982C177.806 101.132 214.726 105.211 249.758 131.433Z" fill="white"/>
<path d="M217.8 242.773C217.8 242.773 204.156 251.122 184.175 243.558C164.192 235.993 135.775 218.41 135.775 218.41C135.775 218.41 143.313 242.249 173.714 254.072C204.115 265.894 217.8 242.773 217.8 242.773V242.773Z" fill="white" fill-opacity="0.3"/>
<path d="M269.699 408.83C269.699 408.83 273.199 416.919 271.903 419.179C272.705 420.15 273.897 420.716 275.156 420.722C278.112 420.758 281.066 420.513 283.976 419.992C283.191 416.616 283.728 409.216 283.659 407.315L269.699 408.83ZM274.219 426.468C269.022 426.568 263.825 426.269 258.675 425.572C258.573 425.955 258.514 426.348 258.495 426.744C258.371 428.825 279.594 429.926 283.3 428.121C284.317 427.509 284.927 426.4 284.899 425.215C281.38 425.925 277.808 426.345 274.219 426.468Z" fill="white"/>
<path d="M274.219 426.468C277.796 426.329 281.354 425.896 284.858 425.173C284.941 423.765 284.726 422.357 284.225 421.039C284.107 420.696 284.01 420.346 283.935 419.992C281.025 420.513 278.071 420.758 275.115 420.722C273.856 420.716 272.665 420.15 271.863 419.179C271.839 419.234 271.807 419.285 271.767 419.33C271.146 420.212 269.438 420.791 267.081 421.631C263.677 423.148 259.584 422.059 258.661 425.531C263.815 426.243 269.017 426.556 274.219 426.468V426.468Z" fill="#004791"/>
<path d="M358.877 412.179C358.877 412.179 364.941 416.918 363.645 419.179C364.447 420.149 365.638 420.716 366.897 420.722C369.854 420.758 372.807 420.513 375.717 419.992C374.932 416.616 373.595 410.814 372.037 407.852L358.877 412.179V412.179ZM366.002 426.468C360.799 426.556 355.597 426.243 350.443 425.531C350.343 425.914 350.282 426.307 350.264 426.702C350.14 428.783 371.363 429.885 375.07 428.08C376.086 427.468 376.695 426.359 376.669 425.173C373.155 425.898 369.587 426.331 366.002 426.468V426.468Z" fill="white"/>
<path d="M366.001 426.468C369.577 426.329 373.135 425.896 376.641 425.173C376.724 423.765 376.507 422.357 376.006 421.039C375.888 420.696 375.791 420.346 375.717 419.992C372.806 420.513 369.854 420.758 366.897 420.722C365.637 420.716 364.446 420.15 363.645 419.179C363.621 419.234 363.588 419.285 363.548 419.33C362.928 420.212 361.219 420.791 358.862 421.631C355.459 423.148 351.365 422.059 350.442 425.531C355.596 426.243 360.798 426.556 366.001 426.468V426.468Z" fill="#004791"/>
<path d="M266.778 325.836C275.047 287.253 286.953 253.121 294.809 241.464C298.378 234.807 350.884 261.044 351.504 263.924C357.581 292.254 347.122 345.224 348.749 350.735C350.278 355.916 378.502 398.22 374.45 410.483C372.134 417.497 362.281 417.167 358.45 415.21C343.883 407.811 324.314 377.771 319.243 364.336C311.291 343.239 309.43 300.192 309.43 300.192C309.43 300.192 297.717 328.687 294.837 342.647C292.452 354.249 287.243 388.836 283.523 410.925C282.888 414.631 271.96 415.582 270.816 412.853C260.246 387.624 263.705 340.208 266.778 325.836V325.836Z" fill="#0073DE"/>
<path d="M316.9 183.809L303.188 218.01C298.125 219.2 292.993 220.074 287.822 220.628C295.884 207.151 305.658 194.775 316.9 183.809ZM273.834 350.556C272.925 364.653 275.777 397.82 277.018 406.432C277.406 409.069 277.406 411.748 277.018 414.383C274.193 414.658 271.408 414.204 270.857 412.895C260.259 387.623 263.719 340.208 266.792 325.836C268.928 315.831 271.312 306.145 273.806 297.05C273.834 297.05 274.717 336.459 273.834 350.556V350.556Z" fill="#00488C"/>
<path d="M383.971 206.271C382.828 197.396 374.821 191.112 367.021 186.538C355.997 179.51 335.627 175.225 328.999 175.693C316.913 176.575 306.66 199.697 297.234 221.042C294.092 228.138 285.409 255.712 285.272 258.771C284.871 268.665 299.494 277.111 309.002 281.452C328.999 290.56 349.671 299.048 357.237 287.9C357.58 287.404 361.77 267.658 368.358 249.648C375.538 230.136 385.322 216.77 383.971 206.271Z" fill="white"/>
<path d="M312.986 257.351C313.427 255.242 325.679 223.495 330.75 212.485C335.821 201.475 345.771 193.386 345.771 193.386L347.521 194.502C340.258 203.762 332.858 258.605 332.293 261.347C331.728 264.089 320.289 272.15 318.705 271.641C317.12 271.131 312.104 261.499 312.986 257.351V257.351Z" fill="#00488C"/>
<path d="M285.245 258.839C285.382 255.78 294.065 228.207 297.207 221.111C306.633 199.767 316.886 176.644 328.972 175.762C331.301 175.696 333.632 175.853 335.931 176.231C328.958 185.808 303.738 221.497 300.804 240.719C298.199 257.861 295.608 268.899 294.533 273.115C289.172 269.036 285.024 264.131 285.245 258.839V258.839Z" fill="#CEE6FF"/>
<path d="M319.311 242.551C309.415 243.507 299.466 243.792 289.53 243.406C290.73 239.562 292.039 235.511 293.279 231.845L365.465 227.146C365.465 227.146 351.38 239.837 319.311 242.551Z" fill="#00488C"/>
<path d="M379.562 204.506C373.168 180.502 315.867 212.954 289.847 207.662C267.426 203.101 264.145 168.845 248.669 170.209C233.193 171.573 242.551 221.634 276.439 233.236C312.062 245.515 386.756 231.514 379.562 204.506V204.506Z" fill="#E66D57"/>
<path d="M244.894 171.146C244.816 175.03 244.987 178.914 245.404 182.776C246.12 187.929 250.227 194.957 255.257 204.135C260.287 213.311 270.416 215.847 286.113 220.835C301.81 225.823 305.407 222.433 321.531 222.007C337.654 221.579 366.236 223.384 366.236 223.384C367.132 223.507 368.013 223.715 368.869 224.004C347.783 237.356 302.072 242.097 276.536 233.278C244.273 222.158 233.207 178.105 244.894 171.146V171.146Z" fill="#A22E19"/>
<path d="M323.831 236.957C321.254 237.205 318.663 237.398 316.086 237.536L315.452 231.776C314.377 222.062 318.029 207.993 318.029 207.993L323.831 236.957Z" fill="#00488C"/>
<path d="M318.388 205.099C344.835 198.94 375.029 187.544 379.562 204.575C384.331 222.489 353.379 237.082 321.462 239.727C315.784 230.068 317.658 210.101 318.388 205.099Z" fill="white"/>
<path d="M321.461 239.659C318.857 235.263 317.851 228.634 317.575 222.378C326.671 221.593 339.391 219.857 347.811 216.123C357.458 211.837 371.059 206.091 378.97 202.784C379.209 203.343 379.407 203.918 379.562 204.506C384.331 222.378 353.365 237.013 321.461 239.659Z" fill="#CEE6FF"/>
<path d="M248.587 166.916C247.777 165.338 247.05 163.719 246.409 162.065C245.996 160.687 245.555 157.449 244.425 159.75C243.295 162.052 245.086 164.008 243.198 164.339C241.311 164.67 239.216 162.782 235.33 161.101C233.552 160.329 232.27 164.559 235.77 167.495C239.905 170.981 244.039 172.579 246.396 172.097C251.577 171.063 248.587 166.916 248.587 166.916V166.916Z" fill="#A22E19"/>
<path d="M370.301 415.237C366.532 416.86 362.261 416.86 358.491 415.237C343.925 407.838 324.356 377.799 319.284 364.364C311.332 343.267 309.472 300.22 309.472 300.22C309.472 300.22 322.799 344.314 332.266 366.113C340.383 384.881 362.598 404.752 370.301 415.237V415.237ZM351.574 193.676C349.962 194.709 348.029 195.118 346.138 194.824C344.083 193.767 344.174 189.237 344.718 188.784C345.261 188.331 349.701 187.334 350.275 188.784C350.849 190.233 353.689 192.076 351.574 193.676Z" fill="#00488C"/>
<path d="M363.113 164.972L365.897 185.221C365.396 187.88 349.561 192.523 345.999 188.332C344.944 187.103 345.798 184.593 347.504 182.059L357.34 168.259L363.113 164.972V164.972Z" fill="#E66D57"/>
<path d="M355.358 171.044H362.585C361.605 174.173 359.469 176.811 356.613 178.421C354.291 179.761 351.595 180.308 348.935 179.977L355.358 171.044Z" fill="#A22E19"/>
<path d="M365.27 180.679C360.283 182.901 355.089 184.624 349.762 185.823L349.361 179.45C347.625 180.317 345.948 181.297 344.342 182.386C343.213 183.314 343.263 191.218 343.714 191.795C344.167 192.372 347.378 189.286 347.729 189.813C348.081 190.34 349.336 195.634 351.419 195.609C353.501 195.584 366.35 189.587 367.202 187.529C368.056 185.472 365.27 180.679 365.27 180.679Z" fill="#CEE6FF"/>
<path d="M348.382 142.516C351.67 140.358 351.193 142.842 351.193 142.842C351.193 142.842 355.61 139.229 356.011 140.96C356.412 142.691 355.835 143.018 355.835 143.018C355.835 143.018 360.252 142.164 360.679 143.795C360.892 144.509 361.043 145.239 361.13 145.978C361.13 145.978 364.167 144.874 364.594 146.58C364.869 147.559 365.245 149.466 365.522 150.871C366.845 152.742 367.76 154.871 368.206 157.119C368.683 163.065 364.016 171.571 364.016 171.571C364.016 171.571 348.508 162.764 348.608 155.889C347.776 154.559 347.221 153.074 346.977 151.523C346.977 151.523 345.07 144.674 348.382 142.516V142.516Z" fill="#0073DE"/>
<path d="M360.502 157.972L362.66 169.112C363.033 172.806 360.416 176.132 356.738 176.64C353.901 177.049 351.008 176.8 348.281 175.912C345.27 175.159 344.091 172.023 344.592 168.008C345.233 163.746 346.591 159.623 348.607 155.814C351.468 150.42 358.57 150.796 360.502 157.972Z" fill="#E66D57"/>
<path d="M353.1 164.947C351.04 165.089 348.971 164.885 346.977 164.345C346.977 164.345 346.6 166.653 347.905 167.657C349.21 168.661 351.921 167.607 353.1 164.947V164.947Z" fill="white"/>
<path d="M347.855 171.897C351.343 171.647 353.301 177.167 360 173.027C361.203 171.894 362.072 170.454 362.51 168.861V169.112C362.883 172.806 360.265 176.132 356.588 176.64C353.751 177.049 350.857 176.8 348.131 175.912C346.356 175.455 345 174.021 344.644 172.224C345.722 172.218 346.797 172.109 347.855 171.897V171.897Z" fill="#A22E19"/>
<path d="M359.751 162.237C359.962 161.575 360.114 160.895 360.202 160.205C360.378 158.875 360.93 156.943 362.711 158.173C365.396 159.929 364.618 166.377 361.281 166.503C358.771 166.578 359.072 163.918 359.751 162.237V162.237Z" fill="#E66D57"/>
<path d="M0.342773 84.7734L69.0517 106.598L57.9979 129.968L114.734 188.906L32.2871 149.677L43.5122 123.88L0.342773 84.7734Z" fill="#F7644E"/>
</svg>
