<svg xmlns="http://www.w3.org/2000/svg" fill="none" viewBox="0 0 468 342">
  <path fill="#79B9F5" d="M315.39 88.5133c21.582.1683 22.786 31.2147 35.345 28.8197 12.558-2.395 26.32-71.4016 48.433-74.5088 22.113-3.1072 5.386 27.8614 12.157 30.0494 6.771 2.188 40.265-42.9314 54.273-20.9478 14.008 21.9835-76.166 59.2312-64.915 77.5772 11.251 18.345 49.392-18.993 53.082 16.688 3.69 35.681-3.139 59.283-69.485 128.587-44.231 46.203-77.919 54.238-101.063 24.107 0 0-34.619-210.8766 32.173-210.3717Z"/>
  <path fill="#fff" d="M428.557 77.0295c-.238-.4757-.8-.6895-1.294-.4919-.402.1812-9.969 4.6867-22.864 15.0959a168.42092 168.42092 0 0 0-21.168 20.4045l4.402-29.9333c.045-.538-.336-1.0183-.87-1.0971-.534-.0787-1.038.2712-1.15.7993l-4.868 33.1441c-7.129 8.553-13.407 17.78-18.747 27.55-5.658 10.358-12.26 26.049-18.682 44.213l-27.797-59.555c-.238-.475-.8-.689-1.294-.492-.486.229-.704.801-.492 1.295l28.677 61.497c-2.408 6.914-4.778 14.151-7.069 21.569-4.7 15.29-8.649 30.114-11.652 43.45l-30.736-54.791c-.272-.486-.886-.659-1.372-.388-.492.272-.671.891-.402 1.385l31.811 56.823a274.7026 274.7026 0 0 0-4.868 28.82c-.029.268.05.536.22.745.171.21.418.342.686.368h.168c.497-.024.901-.411.945-.906 1.105-9.574 2.721-19.082 4.842-28.483l71.958-29.778c.519-.214.765-.808.551-1.327-.215-.518-.809-.764-1.327-.55l-70.651 29.195a625.78546 625.78546 0 0 1 18.734-65.407l77.085-25.997c.477-.217.713-.76.547-1.257-.167-.496-.683-.787-1.194-.672l-75.519 25.505c6.189-17.62 12.74-33.441 18.67-44.291 5.291-9.689 11.523-18.835 18.604-27.304l24.016-10.138c.496-.219.73-.79.531-1.294-.209-.506-.787-.749-1.295-.544l-20.391 8.519c6.188-7.03 12.958-13.5265 20.236-19.4204a123.7093 123.7093 0 0 1 22.489-14.9146c.249-.108.445-.3106.544-.5632.1-.2526.095-.5343-.014-.7833Z"/>
  <path fill="#C3E2FF" d="M317.552 225.347S252.533 119.676 189.949 99.764c0 0 7.198 126.982 29.195 169.991 21.996 43.009 47.903 63.206 88.853 37.545 40.951-25.66 18.216-68.773 9.555-81.953Z"/>
  <path fill="#fff" d="M197.199 108.477c-2.589-2.343-4.907-4.402-7.108-6.214-.103-1.606-.142-2.4731-.142-2.4731.829.2591 1.657.5441 2.486.8411 2.058 1.709 4.259 3.626 6.603 5.801 11.424 10.755 21.774 22.596 30.903 35.357.466-3.884 1.295-10.629 2.098-17.504l2.589 2.175c-1.062 8.752-2.02 16.831-2.253 18.786 1.899 2.676 3.824 5.485 5.775 8.428.06.072.112.15.155.233 4.324 6.538 8.739 13.711 13.18 21.57 2.128 3.781 4.06 7.671 5.787 11.652l15.497-22.398 1.916 2.253-16.002 23.304c6.81 16.546 11.717 36.056 15.316 54.738l33.817-34.451c.57.816 1.101 1.606 1.618 2.369l-34.8 35.462c4.078 22.009 7.768 55.567 9.192 68.229 0 .362.077.699.116 1.049-.945.194-1.89.362-2.822.505l-.155-1.295c-.946-8.597-3.755-33.83-5.788-47.67l-67.543-33.739-.815-3.444 67.853 33.856c-.867-5.671-1.851-11.562-2.964-17.569-.006-.086-.006-.173 0-.259-2.516-13.98-5.88-27.794-10.073-41.365l-62.468-16.973c-.142-.984-.285-1.955-.414-2.926l61.885 16.831c-1.502-4.48-3.107-8.817-4.829-12.947-1.957-4.76-4.197-9.399-6.706-13.892-4.338-7.664-8.649-14.669-12.869-21.064l-42.647-11.885c-.091-.971-.194-1.942-.285-2.887l40.523 11.224c-14.163-20.986-27.188-34.995-36.626-43.708Z"/>
  <path fill="#F7644E" d="M313.678 341.357c60.062 0 108.753-4.927 108.753-11.005 0-6.078-48.691-11.005-108.753-11.005s-108.753 4.927-108.753 11.005c0 6.078 48.691 11.005 108.753 11.005Z" opacity=".2"/>
  <path fill="#A22E19" d="M339.846 101.292c-6.007-22.5535-59.84 7.936-84.27 2.965-21.064-4.2858-30.93-48.5248-45.469-47.2431-14.539 1.2817 1.023 60.3061 32.859 71.2721 33.48 11.535 103.651-1.619 96.88-26.994Z"/>
  <path fill="#CEE6FF" d="M282.376 101.784c24.845-5.7875 52.874-18.4624 57.47-.492 4.312 16.83-24.598 30.541-54.57 33.027-5.347-9.011-3.548-27.771-2.9-32.535Z"/>
  <path fill="#89210E" d="M224.206 136.248c10.632-20.513 2.65-45.7607-17.841-56.435l-54.013-28.0814 18.293-35.2022 54.014 28.0814c9.677 5.0109 18.238 11.9298 25.169 20.3394 13.475 16.3781 20.095 37.3328 18.475 58.4808-1.744 21.938-12.317 42.229-29.299 56.227-16.376 13.49-37.339 20.116-58.493 18.488-10.852-.845-21.421-3.875-31.072-8.907l-54.0143-28.082 18.2933-35.202 54.079 28.082c20.494 10.606 45.707 2.655 56.409-17.789Z"/>
  <path fill="#F4C5A2" d="m71.9051 148.983 18.2986-35.197 23.5143 12.225-18.299 35.196-23.5139-12.224ZM128.823 39.4862l18.299-35.19626 23.514 12.22496-18.299 35.1962-23.514-12.2249Z"/>
  <path fill="#FF5743" d="m164.198.44952-17.077 3.80635-18.294 35.20223 23.525 12.2217 17.076-3.8063-5.23-47.42398Z"/>
  <path fill="#F7644E" d="m107.297 109.927-17.0898 3.807-18.2937 35.202 23.5242 12.221 17.0763-3.806-5.217-47.424Z"/>
  <path fill="#FB7057" d="M241.283 132.364c10.619-20.504 2.653-45.7338-17.815-56.422l-54.014-28.0685 18.294-35.2022 54.027 28.0815c19.171 9.9733 33.585 27.1677 40.057 47.7864 3.182 10.0304 4.395 20.5808 3.573 31.0718-1.716 21.949-12.271 42.26-29.246 56.28-16.377 13.49-37.34 20.115-58.494 18.488a80.65922 80.65922 0 0 1-31.163-8.933l-53.988-28.095 18.294-35.202 54.027 28.081c20.524 10.621 45.773 2.63 56.448-17.866Z"/>
  <path fill="#FFDDD8" d="m88.9894 145.177 18.2986-35.196 23.514 12.225-18.299 35.196-23.5136-12.225Z"/>
  <path fill="#FFDCD7" d="M145.907 35.6812 164.206.48489 187.72 12.7098l-18.299 35.1963-23.514-12.2249Z"/>
  <path fill="#fff" d="M252.637 50.2039s25.35 15.4066 30.166 54.5831c4.816 39.177-25.894 69.265-28.703 68.1-2.809-1.165 15.407-37.364 3.522-74.2753-12.598-39.138-27.189-46.9449-45.728-59.1666-26.852-17.7112 7.832-13.8789 40.743 10.7588Z" opacity=".3"/>
  <path fill="#fff" fill-opacity=".3" d="M222.614 154.814s-12.818 7.845-31.59.738c-18.773-7.108-45.469-23.628-45.469-23.628s7.081 22.398 35.642 33.506c28.56 11.108 41.417-10.616 41.417-10.616Z"/>
  <path fill="#fff" d="M271.371 310.835s3.288 7.6 2.071 9.723c.753.913 1.873 1.444 3.056 1.45 2.777.034 5.552-.196 8.286-.686-.738-3.172-.233-10.125-.298-11.911l-13.115 1.424Zm4.246 16.572c-4.882.094-9.764-.187-14.603-.842-.095.36-.151.729-.169 1.101-.116 1.955 19.822 2.99 23.304 1.294.955-.575 1.528-1.617 1.502-2.731-3.306.668-6.662 1.062-10.034 1.178Z"/>
  <path fill="#004791" d="M275.617 327.407c3.36-.131 6.703-.538 9.995-1.217.078-1.323-.124-2.646-.595-3.884-.111-.322-.202-.651-.272-.984-2.734.49-5.509.72-8.286.686-1.183-.006-2.302-.537-3.055-1.45-.023.052-.053.1-.091.142-.583.829-2.188 1.373-4.402 2.162-3.198 1.425-7.043.402-7.91 3.664 4.842.669 9.729.963 14.616.881Z"/>
  <path fill="#fff" d="M355.149 313.981s5.697 4.453 4.48 6.577c.753.912 1.872 1.444 3.055 1.45 2.778.034 5.552-.196 8.286-.686-.738-3.172-1.994-8.623-3.457-11.406l-12.364 4.065Zm6.694 13.426c-4.888.082-9.775-.212-14.617-.881-.094.36-.151.729-.168 1.101-.117 1.955 19.821 2.99 23.304 1.294.954-.575 1.527-1.617 1.502-2.731-3.301.681-6.653 1.088-10.021 1.217Z"/>
  <path fill="#004791" d="M361.843 327.407c3.359-.131 6.702-.538 9.995-1.217.078-1.323-.125-2.646-.596-3.884-.111-.322-.202-.651-.272-.984-2.734.49-5.508.72-8.286.686-1.183-.006-2.302-.537-3.055-1.45-.022.052-.053.1-.091.142-.582.829-2.188 1.373-4.402 2.162-3.197 1.425-7.043.402-7.91 3.664 4.842.669 9.729.963 14.617.881Z"/>
  <path fill="#0073DE" d="M268.626 232.857c7.768-36.251 18.954-68.32 26.334-79.273 3.353-6.254 52.68 18.397 53.263 21.103 5.709 26.618-4.117 76.386-2.589 81.564 1.437 4.868 27.952 44.615 24.145 56.137-2.175 6.59-11.432 6.28-15.031 4.441-13.685-6.952-32.069-35.176-36.833-47.799-7.471-19.822-9.219-60.267-9.219-60.267s-11.004 26.773-13.71 39.889c-2.24 10.901-7.134 43.397-10.629 64.151-.596 3.482-10.863 4.376-11.937 1.812-9.93-23.705-6.681-68.255-3.794-81.758Z"/>
  <path fill="#00488C" d="m315.714 99.4144-12.882 32.1336c-4.757 1.118-9.578 1.939-14.436 2.46 7.574-12.663 16.756-24.291 27.318-34.5936ZM275.255 256.083c-.854 13.245 1.825 44.407 2.991 52.499.365 2.477.365 4.994 0 7.47-2.654.259-5.27-.168-5.788-1.398-9.956-23.744-6.706-68.294-3.819-81.797 2.007-9.4 4.247-18.501 6.59-27.046.026 0 .855 37.027.026 50.272Z"/>
  <path fill="#fff" d="M378.725 120.518c-1.074-8.338-8.596-14.242-15.924-18.54-10.357-6.6029-29.493-10.6294-35.72-10.1892-11.354.8286-20.987 22.5532-29.842 42.6082-2.952 6.667-11.109 32.574-11.238 35.448-.376 9.296 13.361 17.232 22.294 21.31 18.786 8.558 38.206 16.533 45.314 6.059.323-.466 4.259-19.019 10.448-35.94 6.745-18.333 15.937-30.891 14.668-40.756Z"/>
  <path fill="#00488C" d="M312.037 168.511c.414-1.981 11.924-31.81 16.688-42.154 4.764-10.345 14.112-17.945 14.112-17.945l1.644 1.049c-6.823 8.7-13.775 60.228-14.306 62.805-.531 2.576-11.277 10.15-12.765 9.671-1.489-.479-6.202-9.529-5.373-13.426Z"/>
  <path fill="#CEE6FF" d="M285.975 169.909c.129-2.874 8.286-28.78 11.238-35.448 8.855-20.054 18.488-41.7789 29.842-42.6075 2.188-.0619 4.378.0855 6.538.4402-6.551 8.9983-30.244 42.5303-33.001 60.5903-2.447 16.106-4.881 26.477-5.891 30.438-5.036-3.832-8.933-8.441-8.726-13.413Z"/>
  <path fill="#00488C" d="M317.979 154.606c-9.297.898-18.644 1.166-27.978.803 1.127-3.612 2.357-7.418 3.522-10.862l67.815-4.415s-13.232 11.924-43.359 14.474Z"/>
  <path fill="#E66D57" d="M374.582 118.86c-6.007-22.5528-59.839 7.937-84.283 2.965-21.064-4.285-24.146-36.4707-38.685-35.189-14.539 1.2817-5.748 48.317 26.088 59.218 33.467 11.536 103.639-1.618 96.88-26.994Z"/>
  <path fill="#A22E19" d="M248.067 87.5164c-.073 3.6488.087 7.2986.479 10.927.673 4.8416 4.531 11.4446 9.257 20.0676 4.725 8.622 14.241 11.005 28.988 15.691 14.746 4.687 18.125 1.502 33.273 1.101 15.147-.402 41.999 1.294 41.999 1.294.841.116 1.669.311 2.473.583-19.809 12.545-62.753 16.999-86.743 8.713-30.309-10.448-40.705-51.8385-29.726-58.3766Z"/>
  <path fill="#00488C" d="M322.226 149.35c-2.421.233-4.855.414-7.276.544l-.596-5.412c-1.01-9.127 2.421-22.346 2.421-22.346l5.451 27.214Z"/>
  <path fill="#fff" d="M317.112 119.417c24.845-5.787 53.211-16.494 57.47-.492 4.48 16.831-24.598 30.542-54.583 33.027-5.334-9.075-3.573-27.835-2.887-32.535Z"/>
  <path fill="#CEE6FF" d="M319.999 151.888c-2.447-4.13-3.392-10.358-3.651-16.236 8.545-.738 20.495-2.369 28.405-5.877 9.063-4.027 21.841-9.426 29.273-12.533.224.525.41 1.066.556 1.618 4.48 16.792-24.611 30.542-54.583 33.028Z"/>
  <path fill="#A22E19" d="M251.537 83.5417a47.8239 47.8239 0 0 1-2.046-4.5572c-.388-1.2947-.803-4.3372-1.864-2.1751-1.062 2.1621.621 4.0006-1.153 4.3113-1.773.3107-3.741-1.463-7.392-3.0425-1.67-.725-2.874 3.2496.414 6.0073 3.884 3.2755 7.768 4.7773 9.982 4.3242 4.868-.971 2.059-4.868 2.059-4.868Z"/>
  <path fill="#00488C" d="M365.882 316.855c-3.541 1.524-7.554 1.524-11.095 0-13.685-6.952-32.069-35.176-36.834-47.799-7.47-19.822-9.218-60.267-9.218-60.267s12.52 41.429 21.414 61.911c7.626 17.633 28.496 36.303 35.733 46.155Zm-17.594-208.17c-1.514.97-3.33 1.354-5.107 1.078-1.93-.993-1.845-5.249-1.334-5.675.511-.425 4.682-1.362 5.221 0 .539 1.362 3.207 3.093 1.22 4.597Z"/>
  <path fill="#E66D57" d="m359.129 81.7158 2.616 19.0252c-.471 2.498-15.347 6.86-18.694 2.923-.991-1.155-.189-3.513 1.414-5.8939l9.241-12.9661 5.423-3.0882Z"/>
  <path fill="#A22E19" d="M351.844 87.4208h6.789c-.921 2.9396-2.927 5.4179-5.61 6.931-2.182 1.2591-4.715 1.7723-7.214 1.4616l6.035-8.3926Z"/>
  <path fill="#CEE6FF" d="M361.156 96.4735c-4.685 2.0873-9.565 3.7065-14.569 4.8325l-.377-5.9876a41.2335 41.2335 0 0 0-4.715 2.7582c-1.061.8723-1.014 8.2984-.59 8.8404.425.542 3.442-2.357 3.772-1.862.33.495 1.509 5.469 3.466 5.446 1.956-.024 14.027-5.658 14.828-7.592.802-1.933-1.815-6.4355-1.815-6.4355Z"/>
  <path fill="#0073DE" d="M345.29 60.6164c3.089-2.0274 2.641.3065 2.641.3065s4.149-3.3948 4.526-1.7681c.377 1.6266-.165 1.9331-.165 1.9331s4.149-.8015 4.55.7308c.2.6702.342 1.3564.424 2.051 0 0 2.853-1.0373 3.254.5658.259.9194.612 2.7111.872 4.0313 1.243 1.758 2.103 3.7581 2.522 5.8701.448 5.5872-3.937 13.579-3.937 13.579s-14.569-8.2747-14.475-14.7342a10.93703 10.93703 0 0 1-1.532-4.102s-1.792-6.4359 1.32-8.4633Z"/>
  <path fill="#E66D57" d="m356.677 75.1384 2.027 10.4672c.35 3.4703-2.108 6.5954-5.563 7.0724-2.666.3843-5.384.1504-7.945-.6836-2.829-.7073-3.937-3.6541-3.466-7.4261.602-4.0046 1.878-7.8784 3.772-11.4573 2.688-5.0685 9.36-4.7149 11.175 2.0274Z"/>
  <path fill="#fff" d="M349.722 81.6922c-1.935.133-3.879-.0582-5.752-.5658 0 0-.354 2.1689.872 3.1119 1.226.943 3.772-.0472 4.88-2.5461Z"/>
  <path fill="#A22E19" d="M344.795 88.2223c3.277-.2357 5.116 4.9507 11.41 1.0609 1.13-1.0637 1.946-2.4175 2.358-3.9134v.2358c.35 3.4702-2.109 6.5953-5.564 7.0724-2.665.3842-5.384.1503-7.945-.6837-1.667-.4292-2.941-1.7765-3.276-3.4655a15.7705 15.7705 0 0 0 3.017-.3065Z"/>
  <path fill="#E66D57" d="M355.97 79.1461c.199-.6221.341-1.2613.424-1.9095.165-1.2495.684-3.0647 2.357-1.9096 2.523 1.6502 1.792 7.7089-1.343 7.8268-2.358.0707-2.075-2.4282-1.438-4.0077Z"/>
  <path fill="#F7644E" d="M18.3221 6.36401 82.8712 26.8699 72.4866 48.8268l53.3014 55.3762-77.4556-36.8579L58.8779 43.107 18.3221 6.36401Z"/>
</svg>
