<svg xmlns="http://www.w3.org/2000/svg" fill="none" viewBox="0 0 32 32"><g fill="#231F20" clip-path="url(#a)"><path d="M16.255 0c-.353 0-.638.252-.638.554v26.732c0 .302.285.554.638.554.352 0 .637-.252.637-.554V.554c0-.302-.285-.554-.637-.554Zm2.743 5.957c-.352 0-.637.252-.637.554V17.99c0 .302.285.554.637.554.353 0 .638-.252.638-.554V6.511c0-.302-.285-.554-.637-.554Zm0 13.048c-.352 0-.637.251-.637.553v3.524c0 .302.285.554.637.554.353 0 .638-.252.638-.554v-3.524c0-.31-.285-.553-.637-.553Zm-5.487-9.767c-.352 0-.637.252-.637.554v1.921c0 .31.285.554.637.554.353 0 .638-.252.638-.554V9.792c0-.302-.285-.554-.638-.554Zm0 3.767c-.352 0-.637.252-.637.554v17.746c0 .302.285.554.637.554.353 0 .638-.252.638-.554V13.559c0-.302-.285-.554-.638-.554Zm-2.751-.403c-.353 0-.638.252-.638.554v7.619c0 .302.285.554.637.554.353 0 .638-.252.638-.554v-7.619c0-.31-.285-.554-.638-.554Zm10.991-1.384c-.353 0-.638.252-.638.554V22.15c0 .302.285.554.638.554.352 0 .638-.252.638-.554V11.77c0-.301-.286-.553-.638-.553Z"/></g><defs><clipPath id="a"><path fill="#fff" d="M0 0h12.453v32H0z" transform="translate(10)"/></clipPath></defs></svg>